<svg xmlns="http://www.w3.org/2000/svg" width="327.368" height="80" viewBox="0 0 327.368 80"><defs><style>.a{fill:#c8b796;}.b{fill:#67523d;}.c{fill:#383027;}.d{fill:#fdfdfd;}.e{fill:#319647;}</style></defs><g transform="translate(-4797.696 -1494.718)"><g transform="translate(4797.696 1494.718)"><path class="a" d="M386.553,326.548a10.852,10.852,0,0,1,2.359,1.53,38.285,38.285,0,0,1,6.239,4.76,8.71,8.71,0,0,0,1.378,1.412c.025.372.228.49.575.406H397.1a3.153,3.153,0,0,0,1.835,1.124c.068.059.127.118.194.186a.349.349,0,0,0,.355.38c.085.11.169.22.262.33a.771.771,0,0,0,.008.135.941.941,0,0,1,.059-.135c.262.025.38.245.558.4-.085.076-.169.161-.254.237-.135.448-.567.575-.744.254-.262-.457-.659-.33-.981-.482-.025-.042.025-.194-.11-.076a.856.856,0,0,1,.127.059c.355,2.012-1.1,2.917-2.4,3.923-.1-.068-.406.042-.152-.3.4-.533,1.057-.947,1-1.894a5.459,5.459,0,0,1-2.528,1.463c-.989.245-1.835-.49-2.807-.558a.973.973,0,0,0,.659.761,4.712,4.712,0,0,0,2.3.55c.313,0,.769-.228.938.3h.008c-.152-.025-.3-.025-.364.144l-.355.051-1.809-.254a9.688,9.688,0,0,1-4.329-4.726c.076-.076.017-.38.254-.178s.414.44.626.651c1.006,1.031,1.9,2.257,3.6,2.071.972.059,1.928.085,2.41-1.031.5-1.15.313-1.928-.71-2.968-.271-.279-.5-.6-.752-.9-.1-.186-.152-.465-.473-.245.085-.457-.287-.617-.55-.837a.149.149,0,0,0-.076-.11,19.939,19.939,0,0,0-3.695-2.519,11.543,11.543,0,0,0,3.475,2.722.158.158,0,0,0,.135.059l.025.3a1.7,1.7,0,0,0-.888.169c-.161-.44-.617-.051-.854-.3a11.3,11.3,0,0,0-2.951-1.961,30.178,30.178,0,0,0-3.035-1.767c-.025-.118-.008-.271-.076-.338a12.534,12.534,0,0,0-4.751-2.773l-1.108-.33a3.107,3.107,0,0,0-1.446-.465,1.625,1.625,0,0,0-.211-.1c-.017-.008-.051.059-.076.085.085.025.161.042.245.068-.118.068-.245.135-.364.194a10.514,10.514,0,0,0-2.359-.211,25.672,25.672,0,0,1-4.828-.473c-1.192-.44-1.961-1.5-3.069-2.071a1.249,1.249,0,0,1-.676-1.1,1.305,1.305,0,0,1,.11-.1,10.387,10.387,0,0,0,6.688,2.038,1.154,1.154,0,0,0,1.26-.727,1.551,1.551,0,0,0-.245-1.64,34.969,34.969,0,0,0-3.8-3.712,4.173,4.173,0,0,1-1.818-2.317l.186.186c.059.025.127.051.186.076-.017-.068-.034-.144-.051-.211-.051-.068-.11-.135-.161-.194-.262-.423-.406-.972-1.031-1.023h0a1.477,1.477,0,0,0-.744-1.3l.008.008a1.064,1.064,0,0,0-.524-.972c-.186-.347-.38-.693-.566-1.048-1.023-1.945-2.19-3.83-2.41-6.1a2.471,2.471,0,0,0-.566-1.42c-.643-2.038-.516-4.2-.9-6.4-.347.49-.135.93-.338,1.319a14.474,14.474,0,0,1-.076-2.41,7.018,7.018,0,0,0,.034-1.835c-.008-.118-.008-.245-.017-.364-.279-.6.144-1.217-.034-1.826a2.225,2.225,0,0,0,.254-1.065,21.11,21.11,0,0,1,.178-2.917,8.08,8.08,0,0,1,.583-2.426c.372.169.186.4.152.583a34.688,34.688,0,0,0-.347,6.417c.008.321-.152.786.414.862a27.325,27.325,0,0,1,.423,4.464c-.575.2-.237.626-.169.913a24.648,24.648,0,0,0,1.9,6.307c.71,1.378,1.2,2.866,2.029,4.21a26.561,26.561,0,0,0,4.134,5.394c.659.626,1.141,1.674,2.316,1.615l-.008-.008a18.536,18.536,0,0,0,4.565,4.067.929.929,0,0,1,.609.44,1.118,1.118,0,0,0,.127.245c2.029,2.3,4.768,3.6,7.288,5.233C386.181,326.624,386.375,326.877,386.553,326.548Zm-3.137-.93c-.008.135.068.178.186.178-.076.355-.516.025-.651.338.245.194.592.338.7.575.524,1.133,1.615,1.573,2.545,2.215.1.076.211.152.313.228a.356.356,0,0,0,.431.313c.406.271.82.541,1.226.812.2.144.482.254.609.025.1-.2-.169-.347-.372-.44.313-.473.186-.778-.3-1.082-.93-.592-1.809-1.26-2.722-1.885a5.337,5.337,0,0,0-1.784-1.1c.008-.118-.068-.169-.186-.178-.1-.186-.22-.33-.473-.262C383,325.66,383.2,325.635,383.416,325.618Zm-11.819-.38c-.44-.44-1.015-.33-1.539-.44a2.5,2.5,0,0,0,1.5.507,9.752,9.752,0,0,0,3.737-.068c.888-.626,1.97.042,2.875-.448.042.051.085.1.135.152.2.245.516-.152.744.144.287.372.769.33,1.167.44.287.076.736.287.871-.11.1-.3-.33-.44-.583-.592a3.78,3.78,0,0,0-1.294-.406c-.465-.076-.473-.287-.237-.617a2.171,2.171,0,0,1,1.133.228c.795.347,1.353,1.234,2.367,1.074a.7.7,0,0,0,.127.093c.008.008.042-.034.059-.051-.042-.034-.093-.059-.135-.093a10.243,10.243,0,0,1-2.528-1.919,5.415,5.415,0,0,0-2.249-1.818c-.076-.1-.211-.186-.3-.085-.127.135.068.169.144.237.127.4.626.541.693.981-.609.245-1.446.025-1.75.955a3.018,3.018,0,0,0-.719-1.513c-.55-.473-.871-.913-.186-1.564-1.023-.008-1.412.431-1.015,1.1a2.048,2.048,0,0,1,.313,1.945c-.051.127-.237.3-.008.465.3-.059.068-.7.457-.5.3.161.11.55-.051.82-.338.583-1.006.626-1.522.922A7.422,7.422,0,0,0,371.6,325.237Zm-6.9-18.879c-.025.533.008,1.031.609,1.209C365.1,307.17,364.9,306.764,364.7,306.358Zm26.691,33.116a1.129,1.129,0,0,0-.118-.093c-.025.051-.068.1-.059.144a.15.15,0,0,0,.118.076C391.423,339.6,391.44,339.551,391.389,339.475Zm8.192-2.063.025-.059h-.042Z" transform="translate(-356.31 -262.872)"/><path class="a" d="M426.874,344.134c.178-.1.321-.279.566-.237l.507-.1c.051.051.093.11.144.161-.076.169-.287.271-.237.5a.162.162,0,0,0-.186.186c-.127-.008-.186.051-.194.178-.076.042-.161.085-.237.135s-.135.11-.2.161c-.118.068-.228.144-.347.211a4.2,4.2,0,0,0-.989.211,2.843,2.843,0,0,1-2.722-.228c-.533-.279-.913-.761-1.539-1.074a9.752,9.752,0,0,0,1.243,2.3c-1.048-.144-1.463-1.116-2.164-1.708-.676-.566-.414-1.454-.44-2.215.093,0,.169-.017.076-.127-.017.051-.042.093-.059.144-1.167-.169-.871.879-1.192,1.42l-.034-.034c-.211-.178.49-.955-.44-.659-.051-.254.49-.634-.161-.769.017-.127.1-.262-.051-.355v.008c.127.034.237-.008.237-.135s-.1-.169-.228-.127c-.1-.3.118-.38.313-.482.059.085.127.245.177.237.135-.017.144-.127.059-.237h.008a.189.189,0,0,0,.279.11.2.2,0,0,0,.093-.287h0c.11.22.254.118.4.034a4.838,4.838,0,0,0,2.2-1.327v.008a.222.222,0,0,0,.3-.186,40.029,40.029,0,0,1,9.342-7.465,1.487,1.487,0,0,1,.347-.093,7.423,7.423,0,0,0,3.145-1.868l-.017.008c.355-.152.719-.3,1.065-.457.812-.372,1.429-1.065,2.274-1.387-.228,1.082-1.37,1.26-2.029,2a1.8,1.8,0,0,0,1.091-.262c.643-.271,1.04-1.319,2-.668a4.3,4.3,0,0,1,1.327-2.147,1.347,1.347,0,0,0,.55-.888,9.134,9.134,0,0,0-2.08,1.412c-.211.237-.372.668-.845.55-.1-.364.3-.473.372-.752l-.017.017.2-.2-.017.017.2-.2-.017.017.2-.2-.017.017c.068-.068.127-.135.194-.2l-.017.008c.313.051.237-.152.2-.321.093-.448.592-.338.82-.6.854-.042,1.3-.736,1.843-1.226a33.631,33.631,0,0,0,3.061-2.849l-.017.008c.524.118.744-.38,1.124-.55a1.634,1.634,0,0,1,.118.127c-.025.431-.549.617-.592,1.065.33.186.541-.11.8-.11l.068.068c.5.355.871.186,1.251-.245.33-.372.524-1.023,1.251-.812a1.1,1.1,0,0,1-.524,1.437,23.165,23.165,0,0,0-4.371,4.21,1.243,1.243,0,0,0,.008,1.843c.186.076.372.161.558.237.245.473.71.313,1.057.287a10.383,10.383,0,0,0,6.231-2.232l.068.051a2.69,2.69,0,0,1-1.023,1.361,9.022,9.022,0,0,1-3.263,1.556c-.3.076-.592.161-.879.237a18.328,18.328,0,0,0-3.881.271c.127.017.194.034.271.042l3.779.025h0a.5.5,0,0,1-.042.161c-2.08.152-4.168.118-6.231.431-.634-.575-1.116.076-1.666.211l-1.108.33a12.973,12.973,0,0,0-5.25,3.255c-1.606,1.2-3.492,1.945-5.073,3.2a4.373,4.373,0,0,1-1.623,1.006c-.034-.042-.076-.076-.11-.118-.4-.431-.423-.769.178-1.065a11.184,11.184,0,0,0,1.15-.752c.406.017.575-.3.795-.55a3.014,3.014,0,0,1,1.082-.845,16.312,16.312,0,0,0,6.256-4.7c.076-.389-.778.457-.364-.364a.3.3,0,0,0,.313-.228c0-.017-.034-.068-.051-.068-.144.034-.271.093-.3.254a1.429,1.429,0,0,0-.431.135c-1.48,1.04-2.951,2.1-4.413,3.145-.118.085-.33.237-.3.313.245.9-.592.989-1.023,1.251a8.876,8.876,0,0,0-1.775,1.437c-.778.44-1.733.685-2.012,1.708l.017-.017a5.957,5.957,0,0,0-2.359,2.849A2.133,2.133,0,0,0,424,344.489,3.024,3.024,0,0,0,426.874,344.134Zm17.6-19.454c-.008.025-.025.042-.034.068l.025-.076.186-.186.059-.059c-.017.025-.034.042-.051.068Zm-.744.913c.194-.051.347-.144.364-.372.042-.034.195-.017.059-.127-.017.051-.025.093-.042.144-.245,0-.287.2-.38.355Zm1.5-1.759c-.152.017-.169.135-.169.254,0,.085.051.11.11.051a2.2,2.2,0,0,0,.211-.262C445.347,323.86,445.3,323.851,445.237,323.834Zm-26.378,18.338.042-.059-.059-.008ZM435.9,330.64c-.017.017-.042.025-.059.042.017.017.034.042.051.042s.034-.025.059-.034A.289.289,0,0,0,435.9,330.64Z" transform="translate(-365.071 -268.402)"/><path class="b" d="M362.254,291.368c-.566-.076-.406-.541-.414-.862a34.69,34.69,0,0,1,.347-6.417c.034-.186.22-.414-.152-.583a8.019,8.019,0,0,0-.583,2.426,21.025,21.025,0,0,0-.178,2.917,2.224,2.224,0,0,1-.254,1.065,1.333,1.333,0,0,0,.034,1.826c.008.118.008.245.017.364a2.176,2.176,0,0,0-.034,1.835,14.433,14.433,0,0,0,.076,2.41c.2-.389-.008-.837.338-1.319.389,2.207.262,4.362.9,6.4.49.938-.245,1.784-.186,2.7-.406-.262-.118-.989-.744-1.108-.025-.135-.042-.271-.068-.406-.025.017-.068.025-.068.042a.284.284,0,0,0,.144.355,3.029,3.029,0,0,0,.685,2.054c.025-.423.042-.685.051-.947.592.829.668,1.885,1.2,2.748.059.093.034.178-.017.3a1.757,1.757,0,0,0,1.268,1.928l.068-.017h.068c-.186.279,1.048.076.194.575-.008-.017-.017-.042-.025-.059s-.025-.008-.042-.017l.076.076c-.085.448.693.059.558.566.161.22.3.279.372-.059a.223.223,0,0,1,.025-.178,1.064,1.064,0,0,1,.524.972c-.11-.076-.22-.161-.33-.237-.059-.034-.11-.059-.169-.093a1.831,1.831,0,0,0,.059.2,1.24,1.24,0,0,0,.626.9c-.085-.347-.135-.566-.194-.786a1.45,1.45,0,0,1,.744,1.3c-.1.034-.3.068-.3.093a.286.286,0,0,0,.3.271.16.16,0,0,0,.186.178c.025.034.042.068.068.1,0-.017,0-.042-.008-.051a.171.171,0,0,0-.068-.034c-.059-.059-.118-.127-.178-.186v-.372c.626.051.778.592,1.031,1.023-.059.051-.11.093-.161.144a4.231,4.231,0,0,0,1.818,2.317,37.469,37.469,0,0,1,3.8,3.711,1.548,1.548,0,0,1,.245,1.64,1.154,1.154,0,0,1-1.26.727,10.436,10.436,0,0,1-6.687-2.038c-.068-.118-.1-.287-.287-.254a.165.165,0,0,0-.1.11c-.017.211.152.2.287.245a1.234,1.234,0,0,0,.676,1.1c1.108.575,1.877,1.64,3.069,2.071.068.178.144.355.211.533.118.085.228.169.347.245-.051.2-.008.423-.38.254-.651-.3-1.336-.516-2.012-.761-.034-.186-.093-.372-.338-.321-.059.008-.161.127-.144.161.068.228.279.169.448.194.034.465.558.406.752.71-.135.025-.271.059-.414.085.017.025.034.059.051.068a.282.282,0,0,0,.372-.135,20.766,20.766,0,0,0,5.479.922c.313,0,.431.178.44.457a7.558,7.558,0,0,1-4.244-.279c-2.105-.727-4.379-1.209-5.851-3.077a7.16,7.16,0,0,1-1.8-6.053c.135-.659-.127-1.412.414-1.987a6.445,6.445,0,0,0,.372,2.841v-1.294a1.307,1.307,0,0,1,.516,1.429c-.161,1.31.8,2.147,1.31,3.2a26.268,26.268,0,0,1-1.074-6.358c.507.5.406,1.184.558,1.792.473,1.843.989,3.686,2.849,4.633a11.653,11.653,0,0,0,4.988,1.175c.406.017.845-.042,1.015-.473a1.057,1.057,0,0,0-.364-1.082c-.972-1.074-2.2-1.885-3.246-2.866-2.841-2.646-5.622-5.335-7.068-9.072a.4.4,0,0,0-.042-.085c-2.215-2.968-3.01-6.493-3.754-9.993a66.352,66.352,0,0,1-.829-7.229c-.059-.575-.414-1.158-.034-1.75a2.058,2.058,0,0,1,.347,1.2c.076,2.3.812,4.515.93,6.814,0,.068.093.127.22.3a5.325,5.325,0,0,1,.076-1.513,10.608,10.608,0,0,0,1.412,4.768c-1.226-2.891-.938-5.986-1.5-9.029.541.152.186.643.516.82.025-.211.042-.389.059-.566.7-.668.3-1.446.2-2.19.152-2.046-.465-4.143.49-6.129.389-.82.135-1.226-.812-1.108-.017,0-.051-.068-.085-.118.245-.144.583.042.752-.245l-.008.008c.845-.161.693-.947.93-1.488l-.008.008a6.316,6.316,0,0,0,1.7-2.6c.364-1.15.9-2.249,1.285-3.382a6.931,6.931,0,0,1,2.553-3.458c.118.186.228.372.347.55-1.919,1.564-2.722,3.847-3.585,5.994-.693,1.725-.659,3.712-1.15,5.546a9.5,9.5,0,0,0-.4,2.714c-.135.11-.161.228-.025.355C362.3,287.911,362.279,289.644,362.254,291.368Zm-.693,10.712-.355-.938A.79.79,0,0,0,361.561,302.08Zm5.183,9.892c-.017-.025-.034-.042-.051-.068-.017.017-.051.042-.051.059s.025.042.042.068A.391.391,0,0,0,366.743,311.972Z" transform="translate(-355.76 -260.589)"/><path class="a" d="M366.836,269.143a6.858,6.858,0,0,0-2.553,3.458c-.372,1.133-.913,2.232-1.285,3.382a6.209,6.209,0,0,1-1.7,2.6c.008-.38.355-.727.076-1.209a1.46,1.46,0,0,1-1.953.727c-.837-.279-1.124-1.031-1.573-1.7-.254.5.313.913,0,1.412-.541-.33-.3-1.031-.736-1.344a3.235,3.235,0,0,0,1.97,3.221c.068.085.118.237.254.068-.085-.017-.178-.042-.262-.059-.034-.144-.245-.406.093-.364.854.1,1.454-.431,2.139-.761-.237.541-.085,1.327-.93,1.488-.161-.194-.33-.254-.592-.008h.6c-.169.287-.516.1-.752.245.034.051.068.127.085.118.947-.118,1.2.287.812,1.108-.955,1.987-.338,4.083-.49,6.129-.068.178.034.431-.22.533a13.286,13.286,0,0,1-.051-4.836c.237-1.387-.025-2.131-1.285-2.739a1.633,1.633,0,0,1-.837-.913c-.448-1.141-.871-2.291-1.243-3.458a6.037,6.037,0,0,1-.068-4.481c1.37-3.018,2.342-6.206,3.889-9.148.085-.161.194-.33-.025-.473a4.684,4.684,0,0,1,.981-1.8c.178-.228.5-.49.778-.279s.558.566.178.964c-.524-.169-.659.186-.829.566-.829,1.894-1.175,3.982-2.3,5.766a4.358,4.358,0,0,0-.338,3.61c.068.33-.178.533-.33.769-.659,1.015-.406,3.711.414,4.481.017.017.1-.034.152-.059h.008c0,.795.592.862,1.15.845.33-.008.592-.118.575.355-.313.068-.617.144-.93.211-.127-.059-.245-.11-.372-.169-.076-.042-.152-.093-.228-.135-.059-.059-.127-.118-.186-.178-.059-.127-.186-.22-.271-.11-.11.135.076.169.161.22.059.059.118.118.178.186s.118.127.178.186c.118.068.237.135.355.211.482.186.947.313,1.26-.271a2.046,2.046,0,0,0,.372-1.792c-.964,1.057-1.285,1.124-1.877.364.8-.423.871-1.277,1.158-1.987a24.349,24.349,0,0,1,3.213-5.783c.042-.051.169-.034.262-.042.042.178.085.347.144.592a6.607,6.607,0,0,0,.989-2.452c.668-2.325,2.207-4.193,3.373-6.248.152-.271.406-.228.643-.22,0,.592-.465.964-.668,1.463-.431.051-.482.431-.592.727-.473,1.209-.879,2.443-1.4,3.627-.161.372-.144.423.161.643.33.237.558.507.854.008,1.184-1.226,2.6-2.24,3.356-3.838a23.721,23.721,0,0,1,1.944-3.356c.254-.372.524-.49.795-.33.423.245-.093.414-.144.634a1.4,1.4,0,0,1-.414.786,3.044,3.044,0,0,0-1.285,2.409c-.3.5-.609,1-.922,1.5a2.776,2.776,0,0,0-1.048,1.48,2.233,2.233,0,0,0-.668,1.082,1.007,1.007,0,0,0-.533.727A6.118,6.118,0,0,1,366.836,269.143Z" transform="translate(-355.447 -258.705)"/><path class="a" d="M460.454,261.651c-.068-.093-.178-.186-.2-.287-.127-.448-.254-.981.3-1.167.516-.178.829.2.922.719-.237.347.11.55.228.795.355.744.786,1.454,1.116,2.207,1.04,2.443,2.038,4.912,3.069,7.355.118.279.127.7.583.736a1.869,1.869,0,0,1,.178.93c-.262.144-.169.372-.118.566a7.194,7.194,0,0,1-.042,2.587v-1.327a22.83,22.83,0,0,1-1.539,4.523,2.88,2.88,0,0,1-1.125,1.412c-1.268.744-1.513,1.48-1.031,2.942a4.163,4.163,0,0,1,.144,1.48c-.059,1.1-.11,2.2-.169,3.289-.516-.634-.3-1.4-.364-2.114-.025-.313.161-.7-.33-.829a4.677,4.677,0,0,0-.042-2.925,4.094,4.094,0,0,0-.135-.981c-.338-.888-.008-1.175.854-1.065.059.008.118-.042.3-.1-.364-.068-.6-.118-.913-.177.457-.22.981.034,1.217-.465l-.017.017a2.843,2.843,0,0,0,1.868-3.2c-.338.406-.11,1.167-.854,1.277.017-.49.49-.854.22-1.4-.2.364-.355.693-.558.989-.668.972-2.029,1.124-2.519.287.414.093.8.457,1.285.11-.279-.364-.71-.355-1.065-.465-.287-.093-.186.211-.211.364-.617-.364-.49.372-.8.643-.414-.922-1.234-1.5-1.31-2.519-.042-.558-.583-.947-.414-1.657.085-.347-.5-.845-.786-1.277-.194-.364-.38-.736-.575-1.1.3-.11.152-.287.042-.423a7.755,7.755,0,0,0-2.038-2.224,4.592,4.592,0,0,1-1.53-1.564c-.828-1.31-1.945-2.418-2.714-3.779a7.426,7.426,0,0,1-.761-1.615,2.761,2.761,0,0,0-1.31-2.037.128.128,0,0,1-.017-.144c.448-.1-.3-.8.389-.778l-.008-.008c.034.11-.1.423.22.186a6.137,6.137,0,0,1,1.344,2.266,10.728,10.728,0,0,0,3.306,4.219,4.889,4.889,0,0,1,.482.541c.5.372.8.321.9-.211a2.271,2.271,0,0,0-.245-1.488,13.905,13.905,0,0,1-1.217-3.475,15.591,15.591,0,0,1,2.925,5.216c.321.812.406,1.843,1.1,2.308,1.04.7,1.344,1.792,1.911,2.739.372.634.668,1.31,1.082,1.919.118.135.3.254.338.414a9.862,9.862,0,0,0,1.175,2.511c-.3.524-.845.042-1.184.287.279.6.719.719,1.226.321a1.939,1.939,0,0,0,.879-1.1c.161-.211.44-.414.457-.643.127-1.691.262-3.39-.685-4.937l.008.017a3.536,3.536,0,0,0-.474-3.356,24.614,24.614,0,0,1-1.75-4.557,3.959,3.959,0,0,0-.659-1.268C460.682,261.389,460.682,261.609,460.454,261.651Zm-3.779,5.91-.127.127.127.051a1.709,1.709,0,0,0,1.006,1.15c-.752-.845-.5-2.147-1.387-3.052C456.117,266.572,456.523,267.037,456.675,267.561Zm4.54,7.981c-.169-.465-.338-.93-.524-1.429C459.972,274.942,460.708,275.2,461.215,275.542Zm-.516,1.581c.034.042.076.085.11.127.008-.025.042-.059.034-.068a.629.629,0,0,0-.1-.11A.318.318,0,0,0,460.7,277.123Zm2.621.448c-.068-.085-.068-.211-.194-.127-.068.051-.152.11-.169.177-.017.1.076.144.169.1A1.02,1.02,0,0,0,463.32,277.571Z" transform="translate(-369.871 -258.772)"/><path class="b" d="M462.646,290.9c.059-1.1.11-2.2.169-3.289.49-.769.093-1.589.279-2.587-.372.465-.11.879-.423,1.116-.482-1.463-.237-2.19,1.031-2.942a2.917,2.917,0,0,0,1.125-1.412,22.461,22.461,0,0,0,1.539-4.523v1.327a7.011,7.011,0,0,0,.042-2.587c-.042-.194-.144-.423.118-.566a7.047,7.047,0,0,1-.085,4.768,20.172,20.172,0,0,0-1.37,6.4c-.4,3.449-.828,6.89-1.175,10.34a18.518,18.518,0,0,1-.71,3.779c-.11-.034-.279-.118-.3.025a31.225,31.225,0,0,1-2.029,5.445c-.093.237.034.414.3.44a33.246,33.246,0,0,1-9.723,12.267,14.052,14.052,0,0,0-1.691,1.564,1.865,1.865,0,0,0-.71,1.522,1.243,1.243,0,0,1-.008-1.843,23.174,23.174,0,0,1,4.371-4.21,1.11,1.11,0,0,0,.524-1.437c.076-.152.161-.3.237-.457.583-.194.583-1.074,1.3-1.116.11.228.245.228.389.025.228-.3.465-.609.693-.922a2.6,2.6,0,0,1,.211-.22h-.034c.457-.025.524-.457.744-.727.169-.2.178-.524.465-.643a1.9,1.9,0,0,0,1.141-1.826,3.245,3.245,0,0,1,.4-1.53,3.084,3.084,0,0,0,.566-1.775c-.364.44-.262,1.209-1.057,1.158.972-3.695,2.114-7.355,2.325-11.219.059.44.11.871.169,1.344.287-.178.3-.5.583-.541.118.49-.169.93-.169,1.4-.271.008-.279-.3-.372-.372-.7,1.234-.262,2.629-.634,3.923-.068.245.025.423.3.44a13.815,13.815,0,0,0-.338,3.948c.457-1.674,1.234-3.069,1.268-4.684l-.008.017c.144-.085.211-.186.076-.33.059-.617.736-1.243-.034-1.843-.008-.3-.178-.651.271-.795.11.2-.076.482.194.651a32.777,32.777,0,0,0,1.615-7.753c.169-2.6.6-5.174.922-7.761-.9,3.221-1.124,6.544-1.7,9.824-.042-.49.017-.989-.068-1.463a.5.5,0,0,0-.685-.3Zm-2.2,15.007c.042-.068.093-.135.135-.2l-.076-.051c-.017.085-.034.169-.059.254-.051.068-.093.127-.135.194.025.017.042.034.068.051C460.406,306.071,460.431,305.995,460.448,305.91Zm3.2-16.841c.5-2,.381-3.8.676-5.546A14.877,14.877,0,0,0,463.644,289.069Zm2.655-9.647a2.047,2.047,0,0,0,.042-.279c0-.034-.051-.076-.085-.11a1.377,1.377,0,0,0-.059.254C466.205,279.321,466.256,279.354,466.3,279.422Zm-.186.321c-.017.008-.051.008-.059.017a.1.1,0,0,0-.017.085c.025.076.068.068.093-.025C466.138,279.8,466.121,279.769,466.112,279.743Z" transform="translate(-369.772 -261.274)"/><path class="c" d="M426.08,340.714c.279-1.023,1.234-1.268,2.012-1.708l.22.22a11.2,11.2,0,0,1-1.15.752c-.6.3-.575.634-.178,1.065-.068.034-.186.051-.11.152.017.025.144-.025.22-.042a4.443,4.443,0,0,0,1.623-1.006c1.581-1.251,3.466-2,5.073-3.2.8.051,1.3-.575,1.945-.9.9-.431,2-.457,2.731-1.277.093-.034.186-.068.271-.093.025,0,.042-.008.068-.008h-.1c-.1-.4.431-.583.338-.989l1.108-.33c-.008.372-.355.431-.7.668h5.817v-.186h-2.173c.676-.372,1.454.034,2.114-.423-.955.093-1.9-.347-2.858.025-.245.093-.5.051-.533-.3,2.063-.313,4.16-.287,6.231-.431.2.025.431.093.55-.152.025-.059-.025-.152-.034-.228-.161.076-.313.144-.473.22h0c-.059-.11-.11-.22-.169-.33.3-.076.592-.161.879-.237a1.371,1.371,0,0,0,1.818.406c.364-.287.473.051.609.144.271.169.093.372-.127.465-.44.194-.812.566-1.353.473-.068-.287.524-.287.237-.668-.33.1-.676.2-1.015.3-.795-.287-1.547.228-2.333.161h2.173c-.4.473-1.031,0-1.463.321.634.592,1.3-.042,2.181.042a2.232,2.232,0,0,1-1.209.423c-1.074-.118-2.038.609-3.128.38-.3-.059-.414.194-.457.465-.854.008-1.716.017-2.57.017-.152-.178-.262-.11-.364.059-1.091.4-2.266.457-3.365.871A36.579,36.579,0,0,0,428.2,341.9c-1.04.854-2.266,1.5-2.925,2.748-.194.372-.533.685-.448,1.167,0,.085-.008.178-.008.262a2.124,2.124,0,0,1-1.082-2.536,5.881,5.881,0,0,1,2.359-2.849c.034.135.11.211.254.161.034-.008.051-.076.076-.118C426.308,340.73,426.19,340.722,426.08,340.714Z" transform="translate(-365.908 -270.012)"/><path class="a" d="M462.495,297.636c-.287.042-.3.372-.583.541-.059-.473-.118-.913-.169-1.344-.211,3.864-1.353,7.524-2.325,11.219q-1.027,1.928-2.046,3.864a.79.79,0,0,0-.364.761l.008-.008c-.135-.008-.186.076-.194.194l.008-.008-.194.194.008-.008c-.068.127-.127.254-.194.38l.008-.017a1.289,1.289,0,0,0-.558,1.124l.008-.008c-.719.042-.719.922-1.3,1.116-.118-.566.161-1.184-.169-1.784a5.223,5.223,0,0,1-2.849,2.274,1.63,1.63,0,0,1-.118-.127c.228-.507.769-.693,1.124-1.065a35.662,35.662,0,0,0,4.21-5.648,48.6,48.6,0,0,0,2.824-6.146,17.793,17.793,0,0,0,1.006-4.472,7.288,7.288,0,0,0,.228-2.773q.013-.469.025-.938a7,7,0,0,0,.364-2.672,55.363,55.363,0,0,0-.355-6.586l.017-.008c.11.076.22.161.33.237.144.659.288,1.319.44,1.97v1.581c.144-.38.254-.651.355-.913a8.984,8.984,0,0,0,.11,4.16,1.209,1.209,0,0,1-.025.457,14.077,14.077,0,0,0-.059,3.213c-.051.4.017.727.465.837A2.136,2.136,0,0,0,462.495,297.636ZM458.3,307.858l.287-.262a1.24,1.24,0,0,0,.364-1.277c-.22.482-.364.8-.507,1.124a.373.373,0,0,0-.144.414.446.446,0,0,1-.093.085c.017,0,.051,0,.059-.008A.21.21,0,0,0,458.3,307.858Z" transform="translate(-370.213 -262.858)"/><path class="c" d="M370.222,333.624c-.194-.3-.719-.245-.752-.71l.034-.034c.676.245,1.361.465,2.012.761.372.169.338-.051.38-.254.617.008,1.234.025,1.852.034,0,.135-.008.262-.008.4-.321-.034-.659-.211-.955.161.347-.008.685.135.955-.169h3.678v.22h-2.139a9.109,9.109,0,0,0,2.663.085c.643-.1,1.074-.068,1.344.533a.413.413,0,0,0,.516.254c-.1-.592.854-.744.592-1.4l1.108.33c.3.3-.287,1.023.524,1.082.786.769,1.885.854,2.815,1.294.575.093.829.845,1.5.727a33,33,0,0,1,3.035,1.767,11.51,11.51,0,0,1,2.951,1.961c.237.254.685-.135.854.3.431.82,1.361.406,1.961.8.025-.118.059-.228.085-.347.254.3.482.626.752.9a2.348,2.348,0,0,1,.71,2.968c-.482,1.116-1.437,1.091-2.41,1.031,0-.085.008-.169.008-.254.482-.051,1.167.169,1.387-.22.262-.465-.3-.93-.566-1.361a5.346,5.346,0,0,0-1.285-1.437,52.607,52.607,0,0,0-9.385-6.146,26.877,26.877,0,0,0-5.69-1.818c-.389-1.463-1.319-.245-1.97-.406.237.034.473.068.71.093-.355.558-.871.186-1.319.228-.008-.279-.127-.465-.44-.457a21.181,21.181,0,0,1-5.479-.922Zm10.8.49c-.051-.017-.085-.025-.118-.034.008.017.008.059.017.059C380.943,334.14,380.968,334.123,381.019,334.114Z" transform="translate(-357.539 -270.151)"/><path class="b" d="M448.59,333.29c.034-.271.152-.524.457-.465,1.091.22,2.054-.5,3.128-.38a2.145,2.145,0,0,0,1.209-.423c-.879-.085-1.547.55-2.181-.042.431-.321,1.065.152,1.463-.321v.034l.194-.194-.034.008c.338-.1.685-.2,1.015-.3.287.389-.3.38-.237.668.541.093.922-.279,1.353-.473.22-.1.4-.3.127-.465-.135-.085-.245-.431-.609-.144a1.371,1.371,0,0,1-1.818-.406,9.088,9.088,0,0,0,3.263-1.556,2.644,2.644,0,0,0,1.023-1.361c.11-.059.186-.194.085-.245-.127-.068-.118.11-.152.194a10.438,10.438,0,0,1-6.231,2.232c-.347.034-.812.186-1.057-.287a18.038,18.038,0,0,0,3.8-.55,5.6,5.6,0,0,0,4.472-4.447,14.37,14.37,0,0,1,.727-2.832c.059.068.169.135.161.194a25.8,25.8,0,0,0-.524,3.686,1.438,1.438,0,0,1-.38,1,2.212,2.212,0,0,0-.194,1.928c.507-1.251,1.319-2.274,1.344-3.635.516.178.186.778.719.871-.228-1.108.287-2.207-.177-3.289-.093-.211.076-.406.287-.507.118.812.211,1.632.355,2.435.457,2.562-1.4,6.417-4.177,7.491a21.511,21.511,0,0,1-3.263,1.184c-.076-.118-.161-.245-.33-.237-.042,0-.076.059-.118.085.118.059.237.118.347.169A6.547,6.547,0,0,1,448.59,333.29Zm.533-.2a.778.778,0,0,0,.82-.051A.991.991,0,0,0,449.123,333.087Zm6.654-2.553c.051-.025.127-.034.144-.068s-.017-.1-.025-.152c-.068.025-.127.051-.195.076C455.726,330.441,455.751,330.483,455.776,330.534Z" transform="translate(-369.767 -268.397)"/><path class="c" d="M404.35,345.459c-.085-.11-.169-.22-.262-.33.042-.271-.1-.38-.355-.38-.068-.059-.127-.118-.194-.186l.254-.228c1.065.237,1.378,1.243,1.945,1.961.262.33-1.209,3.534-1.64,3.585-1.513.186-2.731,1.133-4.143,1.556a6.559,6.559,0,0,1-6.73-2.291,8.794,8.794,0,0,1-1.894-5.639c.008-.431.034-.812.558-.9v.254c-.541.761-.169,1.564-.118,2.35.279.364-.1,1.175.778,1.116.034.076.068.152.11.228-.076.431.11.617.541.583a4.115,4.115,0,0,0,.008.457c.017.169-.008.431.262.364s.254-.287.135-.516a.475.475,0,0,0-.414-.3c-.042-.287.135-.668-.347-.744-.034-.372-.068-.736-.093-1.108.135.008.271.008.414.017a9.688,9.688,0,0,0,4.329,4.726,1.087,1.087,0,0,0,1.809.245l.355-.051c.042.127.135.228.254.152.076-.042.076-.194.118-.3h-.008c.287.051.533.042.583-.321,1.3-1,2.756-1.9,2.4-3.923l-.017.017c.321.161.727.025.981.482.178.321.609.194.744-.254.152.127.178.541.448.347.2-.152-.051-.406-.194-.583-.169-.152-.3-.372-.558-.4C404.417,345.459,404.35,345.459,404.35,345.459Zm-10.221,3.72.186.186c.1.634.507.085.744.186.1.626.592.795,1.108.922.178.178.355.372.685.22-.2-.313-.465-.178-.685-.211-.1-.634-.592-.795-1.108-.922a.575.575,0,0,0-.364-.583c-.3-.093-.118.38-.372.4a1.4,1.4,0,0,1-.194-.194c-.059-.051.076-.237-.135-.186C394.035,349.052,394.077,349.112,394.128,349.179Z" transform="translate(-360.918 -271.655)"/><path class="c" d="M418.248,347.088c.93-.3.22.482.44.659-.068.262-.144.533.22.719.118-.287.127-.524-.186-.685.321-.541.034-1.589,1.192-1.42l-.017-.017c.025.769-.237,1.649.44,2.215.7.592,1.116,1.556,2.164,1.708.364.829,1.074.49,1.682.507a5.076,5.076,0,0,0,2.131-.753,10.557,10.557,0,0,0,2.384-2.367c.059,0,.085-.025.085-.085.144-.127.271-.262.194-.482l-.017.017c.1-.068.195-.135.3-.194.431-.271.178-1.133.955-1.091.161.144-.457.6.22.533.473.059.347.33.271.643-.059.228-.38.575.152.693a9.429,9.429,0,0,1-1.716,2.545c-.271.025-.364.178-.313.431a7.243,7.243,0,0,1-8.708-.1c-.152-.448-.347-.457-.583-.059a1,1,0,0,1-.786-.178c.051-.406-.042-.719-.49-.837a11.982,11.982,0,0,0-.871-1.666c-.533-.913-.364-1.319.659-1.868.152.1.068.237.051.355-.135.152-.287.287-.406.448-.186.254.068.38.2.5C418.1,347.451,418.172,347.249,418.248,347.088Z" transform="translate(-364.899 -272.151)"/><path class="b" d="M462.1,284.111a55.252,55.252,0,0,1,.355,6.586,6.844,6.844,0,0,1-.364,2.672c-.051-.1-.161-.2-.152-.3.194-2.173.017-4.337,0-6.51a16.188,16.188,0,0,0-.507-3.137c-.313-1.564-.609-3.12-.854-4.692-.169-1.065-.989-1.885-1.226-2.942.127-.127.254-.245.372-.372.279.431.871.93.786,1.277-.169.71.372,1.108.414,1.657.076,1.023.9,1.6,1.31,2.519.313-.271.194-1.006.8-.643l-.008-.008c.5.837,1.852.685,2.519-.287.2-.3.355-.626.558-.989.262.558-.211.913-.22,1.4.753-.118.524-.879.854-1.277a2.84,2.84,0,0,1-1.868,3.2c.034-.118.237-.364.025-.338a4.248,4.248,0,0,1-2.207-.719c.372,1.378.516,1.463,1.75,1.133.144-.042.3-.059.448-.093-.245.49-.769.245-1.217.465.321.059.558.11.913.177a1.673,1.673,0,0,1-.3.1c-.862-.1-1.2.178-.854,1.065a4.154,4.154,0,0,1,.135.981.921.921,0,0,0-.152-.008c-.237-.287-.152-.685-.3-1-.085-.161-.042-.549-.423-.3-.245.135-.152.406-.228.6-.11-.076-.22-.161-.33-.237-.025-.085-.051-.169-.076-.245-.025.017-.068.051-.068.059A1.2,1.2,0,0,0,462.1,284.111Zm.194-1.3.076.051-.076-.051a.343.343,0,0,1-.076-.042C462.241,282.784,462.267,282.792,462.292,282.809Z" transform="translate(-371.43 -261.271)"/><path class="b" d="M360.111,262.75c.22.144.118.313.025.473-1.547,2.942-2.519,6.13-3.889,9.148a6.079,6.079,0,0,0,.068,4.481c.364,1.167.795,2.317,1.243,3.458a1.633,1.633,0,0,0,.837.913c1.26.609,1.522,1.353,1.285,2.739a13.288,13.288,0,0,0,.051,4.836c-.059.051-.11.1-.169.161-.169-.093-.4.423-.49,0-.152-.668-.82-1.31-.085-2.054a.874.874,0,0,0,0-.795,7.129,7.129,0,0,1-.575-2.832,3.791,3.791,0,0,0-.44-1.835c-.321.169.144.583-.355.668-.2-.38-.076-.9-.406-1.226-.211.33.152.8-.262,1.1-.034-.051-.093-.093-.1-.152-.372-2.486-1.75-4.735-1.446-7.406a15.077,15.077,0,0,1,1.353-4A68.052,68.052,0,0,1,360.111,262.75Z" transform="translate(-355.358 -259.313)"/><path class="a" d="M357.228,285.289c.414-.3.051-.761.262-1.1.33.33.2.854.406,1.226.49-.093.034-.5.355-.668a3.61,3.61,0,0,1,.44,1.835,6.987,6.987,0,0,0,.575,2.832.849.849,0,0,1,0,.795c-.727.744-.068,1.387.085,2.054.093.423.321-.085.49,0l.178,1.5c-.017.178-.034.364-.059.566-.33-.186.025-.668-.516-.82.566,3.044.279,6.146,1.5,9.029a10.669,10.669,0,0,1-1.412-4.768,5.651,5.651,0,0,0-.076,1.513c-.127-.169-.22-.228-.22-.3-.118-2.3-.862-4.515-.93-6.814a2.057,2.057,0,0,0-.347-1.2.214.214,0,0,1,.017-.144c-.059-1.251-.11-2.511-.178-3.762-.017-.287-.194-.347-.448-.262C357.456,286.287,356.865,285.83,357.228,285.289Zm1.4,4.32c-.085-.727-.169-1.446-.254-2.173A3.252,3.252,0,0,0,358.632,289.609Z" transform="translate(-355.629 -262.626)"/><path class="b" d="M460.647,297.731a7.29,7.29,0,0,1-.228,2.773,17.436,17.436,0,0,1-1.006,4.472,48.6,48.6,0,0,1-2.824,6.146,36.187,36.187,0,0,1-4.21,5.648c-.355.372-.888.558-1.124,1.065-.38.178-.6.668-1.124.549.989-.989,2.046-1.919,2.951-2.976a34.517,34.517,0,0,0,5.064-8.277,35.76,35.76,0,0,0,2.317-9.342c.008-.051.025-.1.034-.161A1.186,1.186,0,0,1,460.647,297.731Z" transform="translate(-370.005 -264.703)"/><path class="b" d="M373.7,318.819c-1.175.059-1.657-.989-2.317-1.615a26.334,26.334,0,0,1-4.134-5.394c-.829-1.344-1.319-2.832-2.029-4.21a24.749,24.749,0,0,1-1.9-6.307c-.068-.3-.406-.71.169-.913a27.69,27.69,0,0,0,1.961,6.924c.879,1.784,1.7,3.576,2.731,5.293a20.505,20.505,0,0,0,3.669,4.456A15.251,15.251,0,0,0,373.7,318.819Z" transform="translate(-356.564 -265.128)"/><path class="b" d="M359.137,271.365a4.327,4.327,0,0,1,.338-3.61c1.124-1.775,1.463-3.872,2.3-5.766.169-.38.3-.736.829-.566a39.1,39.1,0,0,1-2.959,8.294A14.27,14.27,0,0,0,359.137,271.365Z" transform="translate(-355.906 -259.101)"/><path class="b" d="M449.29,260.33a2.81,2.81,0,0,1,1.31,2.038,8.305,8.305,0,0,0,.761,1.615c.769,1.361,1.885,2.469,2.714,3.779a4.518,4.518,0,0,0,1.53,1.564,7.855,7.855,0,0,1,2.038,2.224c.1.135.254.313-.042.423-.287-.068-.431-.414-.769-.38-1.5-1.522-2.917-3.128-4.286-4.785A19.628,19.628,0,0,1,449.29,260.33Z" transform="translate(-369.876 -258.939)"/><path class="b" d="M462.5,262c.228-.042.228-.262.355-.473a3.72,3.72,0,0,1,.659,1.268,25.224,25.224,0,0,0,1.75,4.557,3.558,3.558,0,0,1,.473,3.356,7.744,7.744,0,0,1-.761-1.809,11.49,11.49,0,0,0-.448-1.1A19.114,19.114,0,0,1,462.5,262Z" transform="translate(-371.917 -259.124)"/><path class="b" d="M462.247,273.528c-.414-.609-.71-1.294-1.082-1.919-.558-.955-.871-2.046-1.911-2.739-.693-.465-.786-1.5-1.1-2.308a15.59,15.59,0,0,0-2.925-5.216l.008.008c0-.127-.025-.228-.194-.194l.008.008c.085-.2.051-.338-.186-.38l.008.008a.455.455,0,0,0-.245-.634c-.127-.076-.313-.11-.271-.313a.248.248,0,0,1,.372-.135,1.031,1.031,0,0,1,.372.389,43.927,43.927,0,0,1,3.356,6.121c.693,1.767,2.021,3.17,2.731,4.9C461.511,271.939,462.264,272.573,462.247,273.528Z" transform="translate(-370.658 -258.838)"/><path class="a" d="M461.479,321.653c-.22.1-.38.3-.287.507.457,1.082-.051,2.181.178,3.289-.533-.093-.211-.693-.719-.871-.025,1.361-.837,2.376-1.344,3.635a2.212,2.212,0,0,1,.195-1.928,1.438,1.438,0,0,0,.38-1,25.8,25.8,0,0,1,.524-3.686c.008-.051-.1-.127-.161-.195.059-.473.38-.609.786-.541S461.454,321.315,461.479,321.653Z" transform="translate(-371.404 -268.292)"/><path class="b" d="M370.519,260.035c-.245-.008-.49-.051-.643.22-1.175,2.054-2.705,3.923-3.373,6.248a6.607,6.607,0,0,1-.989,2.452c-.059-.245-.1-.423-.144-.592a28.978,28.978,0,0,1,3.2-6.544c.423-.626.778-1.31,1.184-1.953.127-.2.321-.414.6-.33C370.578,259.6,370.654,259.8,370.519,260.035Z" transform="translate(-356.906 -258.813)"/><path class="b" d="M468.672,272.3c-.457-.034-.457-.448-.583-.736-1.031-2.452-2.029-4.912-3.069-7.355-.321-.752-.753-1.463-1.116-2.207-.118-.245-.465-.44-.228-.795,1.725,2.629,2.714,5.6,3.931,8.454C467.987,270.535,468.317,271.423,468.672,272.3Z" transform="translate(-372.086 -259.075)"/><path class="a" d="M364.914,321.645A26.272,26.272,0,0,0,365.988,328c-.507-1.048-1.471-1.885-1.31-3.2a1.307,1.307,0,0,0-.516-1.429v1.294a6.446,6.446,0,0,1-.372-2.841v.025c.414-.025.364-.862.964-.55C364.931,321.358,364.923,321.5,364.914,321.645Z" transform="translate(-356.662 -268.352)"/><path class="b" d="M430.642,347.212c0,.059-.025.085-.085.085-.524-.152-.626.473-1.031.55l.008.008c-.051-.228.169-.33.237-.5l.186-.186c.059-.059.118-.127.178-.186s.118-.127.178-.194.127-.118.186-.186c.025-.068.051-.135.076-.211a2.051,2.051,0,0,0-.2.085c-.059.059-.118.127-.186.186s-.127.118-.186.178-.135.118-.194.178-.118.11-.177.169l-.507.1c.676-.854,1.336-1.716,2.029-2.553.321-.389.389-.989.964-1.175-.118.626.372,1.268-.042,1.894-.778-.042-.533.829-.955,1.091a.285.285,0,0,0-.3.194l.017-.017A.368.368,0,0,0,430.642,347.212Zm.127-1.015.152-.076s-.017-.068-.025-.068a.461.461,0,0,0-.152.008A.928.928,0,0,0,430.769,346.2Z" transform="translate(-366.758 -271.802)"/><path class="b" d="M393.362,345.382c-.135-.008-.271-.008-.406-.017-.313-.693.135-1.5-.347-2.173l.152-.152c.575.829,1.15,1.649,1.725,2.477a4.794,4.794,0,0,0,3.365,2.156c0,.085-.008.169-.008.254-1.708.186-2.6-1.04-3.6-2.071-.211-.211-.4-.457-.626-.651C393.371,345,393.439,345.306,393.362,345.382Z" transform="translate(-361.116 -271.721)"/><path class="b" d="M389.679,332.994c-.177.33-.38.085-.524-.017-2.511-1.623-5.259-2.925-7.288-5.233a1.118,1.118,0,0,1-.127-.245c.406-.068.634.254.829.49,1.294,1.589,3.111,2.46,4.794,3.509C388.14,332,388.909,332.495,389.679,332.994Z" transform="translate(-359.436 -269.318)"/><path class="b" d="M455.249,261.476a14.021,14.021,0,0,0,1.217,3.475,2.271,2.271,0,0,1,.245,1.488c-.1.533-.4.583-.9.211.938-.017.659-.727.482-1.091-.668-1.344-.9-2.841-1.615-4.16-.127-.237-.406-.49-.144-.82.152.085.135.338.355.355l-.008-.008c-.034.178-.017.321.186.38l-.008-.008c0,.135.034.228.194.178Z" transform="translate(-370.669 -258.977)"/><path class="b" d="M433.283,347.187c-.524-.127-.211-.465-.152-.693.085-.313.2-.583-.271-.643.068-.507.583-.862.44-1.446.169.228,0,.507.3.761a13.985,13.985,0,0,1,.008-1.581c.085-.71-.228-.71-.735-.5a.475.475,0,0,1,.592-.507.56.56,0,0,1,.524.541,6.719,6.719,0,0,1-.533,3.568.58.58,0,0,0-.2.507Z" transform="translate(-367.336 -271.65)"/><path class="c" d="M373.136,264.9c.3-.5.609-1,.922-1.5.144.068.3.127.44.194a13.811,13.811,0,0,1-2.621,3.889l-.457-.025a2.234,2.234,0,0,1,.668-1.082A1.549,1.549,0,0,0,373.136,264.9Z" transform="translate(-357.841 -259.413)"/><path class="c" d="M463.4,311.26c-.271-.025-.4-.2-.3-.44a31.926,31.926,0,0,0,2.029-5.445c.025-.144.2-.059.3-.025a3.752,3.752,0,0,1-.465,1.75C464.287,308.427,464.117,309.949,463.4,311.26Z" transform="translate(-372.004 -265.888)"/><path class="b" d="M380.185,326.247a18.555,18.555,0,0,1-4.565-4.067q2.257,1.9,4.5,3.813C380.177,326.035,380.169,326.162,380.185,326.247Z" transform="translate(-358.49 -268.498)"/><path class="b" d="M449.254,322.17a33.617,33.617,0,0,1-3.06,2.849c-.55.5-.989,1.184-1.843,1.226q2.321-2.029,4.642-4.05C449.051,322.153,449.169,322.178,449.254,322.17Z" transform="translate(-369.112 -268.496)"/><path class="b" d="M369.3,266.855c-.3.5-.524.237-.854-.008-.3-.22-.321-.271-.161-.643.524-1.184.93-2.418,1.4-3.627.118-.3.169-.676.592-.727-.482,1.217-.812,2.494-1.361,3.7C368.721,265.984,368.265,266.7,369.3,266.855Z" transform="translate(-357.34 -259.174)"/><path class="b" d="M466.31,272.35c.947,1.547.812,3.247.685,4.937-.017.228-.3.431-.457.643-.059-.068-.127-.135-.186-.2C466.969,275.935,466.606,274.142,466.31,272.35Z" transform="translate(-372.506 -260.796)"/><path class="a" d="M432.838,343.148c.5-.211.82-.211.736.5a13.956,13.956,0,0,0-.008,1.581c-.3-.254-.135-.533-.3-.761.144.583-.372.938-.44,1.446-.676.068-.059-.389-.22-.533.414-.617-.076-1.26.042-1.894C432.457,343.232,432.567,343.148,432.838,343.148Z" transform="translate(-367.28 -271.719)"/><path class="b" d="M357.39,287.284c.254-.085.431-.025.448.262.068,1.251.118,2.511.178,3.762-.38-.2-.38-.566-.406-.93C357.542,289.346,357.466,288.315,357.39,287.284Z" transform="translate(-355.672 -263.099)"/><path class="b" d="M359.287,278.522c-.051.025-.135.076-.152.059-.829-.761-1.074-3.466-.414-4.481A11.213,11.213,0,0,0,359.287,278.522Z" transform="translate(-355.82 -261.067)"/><path class="b" d="M441.227,329.7c-.845.313-1.463,1.015-2.274,1.387-.355.161-.71.3-1.065.457-.051-.152.051-.237.152-.287a27.241,27.241,0,0,0,3.559-2.308c-.059.279-.465.389-.372.752Z" transform="translate(-368.111 -269.544)"/><path class="b" d="M374.98,263.154c-.144-.068-.3-.127-.44-.194a3.044,3.044,0,0,1,1.285-2.41A12.029,12.029,0,0,1,374.98,263.154Z" transform="translate(-358.323 -258.973)"/><path class="b" d="M359.815,279.164c.592.761.913.693,1.877-.364a2.02,2.02,0,0,1-.372,1.792c-.042-.051-.093-.1-.135-.144.017-.473-.245-.364-.575-.355-.558.017-1.15-.042-1.15-.845C359.578,279.223,359.7,279.189,359.815,279.164Z" transform="translate(-355.992 -261.793)"/><path class="c" d="M368.83,270.727a5.947,5.947,0,0,0,1.657-1.657l.575.051c-.626.719-1.251,1.437-1.885,2.156C369.058,271.091,368.94,270.913,368.83,270.727Z" transform="translate(-357.44 -260.289)"/><path class="b" d="M437.335,332a7.509,7.509,0,0,1-3.145,1.868C435.247,333.26,436.118,332.338,437.335,332Z" transform="translate(-367.542 -270.015)"/><path class="c" d="M466.009,278.71c.059.068.127.135.186.2a1.967,1.967,0,0,1-.879,1.1c-.507.4-.947.279-1.226-.321.338-.245.888.237,1.184-.287C465.553,279.2,465.865,279.048,466.009,278.71Z" transform="translate(-372.163 -261.779)"/><path class="c" d="M458.21,273.66c.338-.034.482.313.769.38.194.364.38.736.575,1.1-.127.127-.254.245-.372.372C458.853,274.894,458.531,274.277,458.21,273.66Z" transform="translate(-371.254 -260.998)"/><path class="b" d="M421.932,343.36a4.8,4.8,0,0,1-2.2,1.327c-.085-.076-.169-.152-.254-.237A8.4,8.4,0,0,1,421.932,343.36Z" transform="translate(-365.268 -271.771)"/><path class="b" d="M425.03,348.607c0-.085.008-.178.008-.262a8.47,8.47,0,0,0,2.883-.085A3.022,3.022,0,0,1,425.03,348.607Z" transform="translate(-366.126 -272.528)"/><path class="b" d="M405.7,344.486l-.254.228a3.154,3.154,0,0,1-1.835-1.124A5.164,5.164,0,0,1,405.7,344.486Z" transform="translate(-362.816 -271.807)"/><path class="b" d="M378.8,335.075c-.237-.034-.473-.068-.71-.093.651.161,1.581-1.048,1.97.406a.738.738,0,0,1-.566-.085c-.127-.406-.406-.3-.685-.211Z" transform="translate(-358.872 -270.427)"/><path class="b" d="M449.584,259.154c-.7-.025.051.676-.389.778-.093-.161-.186-.313-.271-.473-.118-.254-.245-.6.017-.727S449.534,258.757,449.584,259.154Z" transform="translate(-369.798 -258.684)"/><path class="b" d="M371.355,268.988l-.575-.051a1.006,1.006,0,0,1,.533-.727l.457.025A.766.766,0,0,1,371.355,268.988Z" transform="translate(-357.742 -260.156)"/><path class="b" d="M364.748,321.255c-.609-.321-.55.524-.964.55a.688.688,0,0,1,.313-.845A.452.452,0,0,1,364.748,321.255Z" transform="translate(-356.655 -268.3)"/><path class="b" d="M418.458,350.17c.448.11.55.431.49.837A.678.678,0,0,1,418.458,350.17Z" transform="translate(-365.109 -272.823)"/><path class="c" d="M378.94,335.155c.279-.093.558-.194.685.211C379.4,335.324,379.058,335.586,378.94,335.155Z" transform="translate(-359.003 -270.49)"/><path class="b" d="M419.97,351.307c.237-.406.431-.389.583.059C420.359,351.349,420.164,351.332,419.97,351.307Z" transform="translate(-365.344 -272.954)"/><path class="b" d="M403.5,343.516c-.347.076-.549-.042-.575-.406C403.167,343.195,403.471,343.161,403.5,343.516Z" transform="translate(-362.711 -271.732)"/><path class="a" d="M363.124,288.9c-.135-.127-.11-.245.025-.355C363.3,288.667,363.276,288.785,363.124,288.9Z" transform="translate(-356.545 -263.298)"/><path class="b" d="M430.958,351.471c-.051-.254.042-.406.313-.431A.444.444,0,0,1,430.958,351.471Z" transform="translate(-367.04 -272.958)"/><path class="a" d="M454.9,260.884c-.22-.017-.2-.271-.355-.355.034-.093.068-.186.11-.279A.447.447,0,0,1,454.9,260.884Z" transform="translate(-370.687 -258.926)"/><path class="b" d="M392,342.856V342.6c.237-.127.364.068.507.186-.059.051-.118.093-.169.144Z" transform="translate(-361.021 -271.647)"/><path class="b" d="M445.12,335.509c.093-.169.2-.245.364-.059A.266.266,0,0,1,445.12,335.509Z" transform="translate(-369.231 -270.532)"/><path class="b" d="M443.335,327.71c.025.169.11.372-.2.321C443,327.786,443.208,327.778,443.335,327.71Z" transform="translate(-368.917 -269.352)"/><path class="c" d="M453.337,334.933c-.118-.059-.237-.118-.347-.169.042-.034.076-.085.118-.085.169-.017.245.11.33.237A.138.138,0,0,1,453.337,334.933Z" transform="translate(-370.447 -270.429)"/><path class="c" d="M419.449,344.66c.085.076.169.152.254.237-.144.085-.287.186-.4-.034C419.221,344.694,419.356,344.685,419.449,344.66Z" transform="translate(-365.237 -271.972)"/><path class="b" d="M449.939,259.406c-.321.245-.194-.068-.22-.186C449.8,259.288,449.871,259.347,449.939,259.406Z" transform="translate(-369.941 -258.767)"/><path class="c" d="M433.349,347.927a.58.58,0,0,1,.2-.507C433.653,347.665,433.535,347.809,433.349,347.927Z" transform="translate(-367.411 -272.398)"/><path class="c" d="M419.252,344.876a.191.191,0,0,1-.093.287c-.127.068-.22.017-.279-.11C418.9,344.783,419.024,344.732,419.252,344.876Z" transform="translate(-365.176 -271.993)"/><path class="b" d="M392.569,342.83l.152.178-.152.152a1.766,1.766,0,0,1-.169-.186C392.459,342.931,392.51,342.881,392.569,342.83Z" transform="translate(-361.083 -271.689)"/><path class="b" d="M422.676,343.148a.222.222,0,0,1-.3.186C422.363,343.088,422.524,343.131,422.676,343.148Z" transform="translate(-365.716 -271.736)"/><path class="c" d="M418.837,345.1c.085.11.068.22-.059.237-.051.008-.118-.152-.177-.237A.151.151,0,0,1,418.837,345.1Z" transform="translate(-365.133 -272.031)"/><path class="c" d="M418.2,345.687c.127-.042.237-.008.228.127s-.11.169-.237.135C418.086,345.856,418.094,345.771,418.2,345.687Z" transform="translate(-365.058 -272.128)"/><path class="b" d="M442.469,328.727l-.2.2C442.207,328.736,442.292,328.685,442.469,328.727Z" transform="translate(-368.787 -269.507)"/><path class="b" d="M442.681,328.506l-.2.2C442.453,328.54,442.479,328.438,442.681,328.506Z" transform="translate(-368.822 -269.472)"/><path class="b" d="M442.9,328.287l-.2.2C442.637,328.3,442.722,328.236,442.9,328.287Z" transform="translate(-368.854 -269.439)"/><path class="b" d="M443.11,328.066c-.068.068-.127.135-.195.2C442.857,328.083,442.916,328.007,443.11,328.066Z" transform="translate(-368.887 -269.404)"/><path class="d" d="M376.04,331.391c.516-.287,1.184-.33,1.522-.922.152-.271.347-.668.051-.82-.389-.211-.161.44-.457.5-.228-.152-.042-.338.008-.465a2.07,2.07,0,0,0-.313-1.945c-.4-.676-.008-1.108,1.015-1.1-.693.659-.364,1.091.186,1.564a3.018,3.018,0,0,1,.719,1.513c.3-.922,1.141-.71,1.75-.955h0a1.193,1.193,0,0,0,.676,1.167.425.425,0,0,1,.017.178c-.228.33-.228.533.237.617a3.5,3.5,0,0,1,1.294.406c.262.152.685.3.583.592-.135.4-.583.186-.871.11-.4-.11-.879-.068-1.167-.44-.22-.3-.533.11-.744-.144.152-.068.423-.127.271-.33-.135-.178-.279.068-.406.178-.9.49-2-.178-2.875.448A4.7,4.7,0,0,1,376.04,331.391Z" transform="translate(-358.555 -269.187)"/><path class="c" d="M365.381,314.657a1.765,1.765,0,0,1-1.268-1.928c.051-.127.076-.211.017-.3-.524-.862-.609-1.911-1.2-2.748h0c-.051-.9.676-1.759.186-2.7a2.471,2.471,0,0,1,.566,1.42c.22,2.266,1.387,4.151,2.41,6.1.186.347.38.693.566,1.048a.156.156,0,0,0-.025.169c-.127.017-.245.042-.372.059.135-.5-.634-.11-.558-.566l-.008.008c.854-.5-.38-.3-.194-.575.017-.152.1-.347-.186-.338-.008-.11-.017-.22-.025-.321-.042.017-.085.025-.127.042.059.093.11.186.169.271A2.5,2.5,0,0,1,365.381,314.657Zm-.6-1.649c-.017-.11-.025-.211-.042-.321-.042.017-.11.034-.11.068a.21.21,0,0,0,.152.254.789.789,0,0,0,.355.795C365.128,313.405,365.1,313.143,364.781,313.008Zm-.211-.71c-.025-.042-.051-.076-.076-.118-.017.017-.051.042-.042.059a.931.931,0,0,0,.042.144C364.519,312.357,364.544,312.323,364.57,312.3Z" transform="translate(-356.528 -266.148)"/><path class="b" d="M390.116,336.238c-.93-.643-2.021-1.082-2.545-2.215-.11-.245-.457-.38-.7-.575.135-.313.575.025.651-.338l-.008.008a5.623,5.623,0,0,1,1.784,1.1c.913.626,1.792,1.294,2.722,1.885.482.3.609.609.3,1.082a1.384,1.384,0,0,1-.71-.659C391.182,335.892,390.539,335.79,390.116,336.238Z" transform="translate(-360.229 -270.187)"/><path class="b" d="M374.53,333.847c0-.135.008-.262.008-.4.084-.034.169-.059.254-.093,1.361.059,2.722.11,4.084.194.245.017.414.076.448-.237.118-.068.245-.135.364-.194l.042-.051a3.171,3.171,0,0,1,1.446.465c.262.659-.693.812-.592,1.4a.413.413,0,0,1-.516-.254c-.271-.609-.7-.634-1.344-.533a9.42,9.42,0,0,1-2.663-.085H378.2v-.22Z" transform="translate(-358.321 -270.18)"/><path class="b" d="M401.481,350.67c-.051.364-.3.38-.583.321-.178-.524-.626-.3-.938-.3a4.713,4.713,0,0,1-2.3-.55,1,1,0,0,1-.659-.761c.981.068,1.818.8,2.807.558a5.458,5.458,0,0,0,2.528-1.463c.059.955-.6,1.361-1,1.894C401.075,350.712,401.379,350.6,401.481,350.67Z" transform="translate(-361.794 -272.562)"/><path class="b" d="M381.887,330.3a.425.425,0,0,0-.017-.178c-.025-.507-.1-.981-.676-1.167h0c-.068-.44-.566-.583-.693-.981.051-.051.1-.1.161-.152a5.289,5.289,0,0,1,2.249,1.818,10.245,10.245,0,0,0,2.528,1.919l-.051.051c-1.015.161-1.573-.727-2.367-1.074A2.083,2.083,0,0,0,381.887,330.3Z" transform="translate(-359.244 -269.369)"/><path class="b" d="M388.526,337.123c-.676.118-.93-.634-1.5-.727a4.1,4.1,0,0,0-2.815-1.294c-.812-.059-.22-.786-.524-1.082a12.533,12.533,0,0,1,4.751,2.773C388.518,336.852,388.5,337,388.526,337.123Z" transform="translate(-359.737 -270.327)"/><path class="c" d="M378.875,333.245c-.025.313-.2.254-.448.237-1.361-.085-2.722-.135-4.084-.194-.82-.068-1.632-.127-2.452-.194-.068-.178-.144-.355-.211-.533a25.808,25.808,0,0,0,4.828.473A10.5,10.5,0,0,1,378.875,333.245Z" transform="translate(-357.881 -270.102)"/><path class="b" d="M397.725,341.342a11.543,11.543,0,0,1-3.475-2.722,19.271,19.271,0,0,1,3.695,2.519C397.869,341.207,397.8,341.275,397.725,341.342Z" transform="translate(-361.369 -271.038)"/><path class="c" d="M390.71,336.76c.423-.448,1.065-.347,1.488.279a1.35,1.35,0,0,0,.71.659c.2.093.473.237.372.44-.118.228-.4.118-.609-.025-.406-.279-.812-.541-1.226-.812a.326.326,0,0,0-.431-.313Q390.875,336.874,390.71,336.76Z" transform="translate(-360.822 -270.708)"/><path class="b" d="M375.629,332.259a4.9,4.9,0,0,0,1.488.161,9.75,9.75,0,0,1-3.737.068l.042-.068A7.464,7.464,0,0,1,375.629,332.259Z" transform="translate(-358.144 -270.055)"/><path class="b" d="M399.546,342.9c-.025.118-.059.228-.085.347-.6-.4-1.53.008-1.961-.8a1.793,1.793,0,0,1,.888-.169.617.617,0,0,0,.685.38C399.385,342.422,399.436,342.71,399.546,342.9Z" transform="translate(-361.871 -271.603)"/><path class="b" d="M400.419,351.645a1.1,1.1,0,0,1-1.809-.245C399.219,351.476,399.819,351.561,400.419,351.645Z" transform="translate(-362.043 -273.014)"/><path class="c" d="M361.551,295.186a1.332,1.332,0,0,1-.034-1.826C361.695,293.969,361.272,294.586,361.551,295.186Z" transform="translate(-356.257 -264.043)"/><path class="b" d="M365.279,310.12c.2.406.406.8.609,1.209C365.3,311.151,365.254,310.653,365.279,310.12Z" transform="translate(-356.891 -266.634)"/><path class="b" d="M373.106,332.437a2.374,2.374,0,0,1-1.5-.507c.524.1,1.108,0,1.539.44C373.157,332.37,373.106,332.437,373.106,332.437Z" transform="translate(-357.87 -270.004)"/><path class="c" d="M399.23,342.565a.617.617,0,0,1-.685-.38l-.025-.3c.051-.051.11-.1.161-.161C398.943,341.948,399.315,342.109,399.23,342.565Z" transform="translate(-362.029 -271.517)"/><path class="c" d="M361.565,297.785a2.116,2.116,0,0,1,.034-1.835A7.013,7.013,0,0,1,361.565,297.785Z" transform="translate(-356.288 -264.444)"/><path class="b" d="M407.414,346.45c.152.178.4.423.195.583-.271.2-.3-.22-.448-.347C407.245,346.6,407.329,346.526,407.414,346.45Z" transform="translate(-363.364 -272.249)"/><path class="b" d="M387.333,332.849c-.211.017-.414.042-.473-.262.245-.068.372.068.473.262Z" transform="translate(-360.227 -270.103)"/><path class="b" d="M401.542,351.448c-.034.1-.042.262-.118.3-.11.068-.211-.034-.254-.152A.3.3,0,0,1,401.542,351.448Z" transform="translate(-362.439 -273.019)"/><path class="b" d="M406.01,345.13c.254,0,.4.11.355.38A.344.344,0,0,1,406.01,345.13Z" transform="translate(-363.187 -272.044)"/><path class="b" d="M391.08,337.078a.326.326,0,0,1,.431.313C391.266,337.433,391.139,337.3,391.08,337.078Z" transform="translate(-360.879 -270.799)"/><path class="b" d="M380.585,333.1c-.085-.025-.161-.042-.245-.068.025-.034.059-.093.076-.085a1.624,1.624,0,0,1,.211.1Z" transform="translate(-359.219 -270.162)"/><path class="b" d="M396.809,349.273c.051.076.034.127-.051.127-.042,0-.118-.042-.118-.076s.034-.093.059-.144A1.076,1.076,0,0,1,396.809,349.273Z" transform="translate(-361.738 -272.67)"/><path class="b" d="M380.477,327.938c-.076-.068-.262-.1-.144-.237.085-.1.22-.017.3.085Z" transform="translate(-359.212 -269.344)"/><path class="c" d="M398.36,341.8c.076-.068.144-.135.22-.2a.149.149,0,0,1,.076.11c-.051.051-.11.1-.161.161A.191.191,0,0,1,398.36,341.8Z" transform="translate(-362.004 -271.499)"/><path class="b" d="M406.73,345.98h.059a.953.953,0,0,1-.059.135A.364.364,0,0,0,406.73,345.98Z" transform="translate(-363.298 -272.176)"/><path class="c" d="M405.117,346.42a.853.853,0,0,1-.127-.059c.135-.127.085.034.11.076Z" transform="translate(-363.029 -272.227)"/><path class="c" d="M406.537,346.838l-.017-.068.042.008Z" transform="translate(-363.266 -272.298)"/><path class="b" d="M386.331,332.23c.042.034.093.059.135.093-.017.017-.051.059-.059.051a1.221,1.221,0,0,1-.127-.093Z" transform="translate(-360.137 -270.051)"/><path class="b" d="M370.056,321.32l-.186-.186c.051-.051.11-.093.161-.144.051.068.11.127.161.195Z" transform="translate(-357.601 -268.314)"/><path class="b" d="M387.606,333.078c-.118,0-.194-.051-.186-.178h0c.118.008.194.059.186.178Z" transform="translate(-360.313 -270.154)"/><path class="b" d="M370.225,321.22c.017.068.034.144.051.211-.059-.025-.127-.051-.186-.076Z" transform="translate(-357.635 -268.349)"/><path class="b" d="M429.13,339.361l-.22-.22a8.874,8.874,0,0,1,1.775-1.437c.431-.262,1.268-.364,1.023-1.251-.017-.068.186-.228.3-.313q2.207-1.585,4.413-3.145a1.429,1.429,0,0,1,.431-.135l.042.042c-.414.82.44-.017.364.364a16.375,16.375,0,0,1-6.256,4.7,3.015,3.015,0,0,0-1.082.845C429.7,339.057,429.536,339.378,429.13,339.361Z" transform="translate(-366.726 -270.148)"/><path class="d" d="M451.492,321.264a5.165,5.165,0,0,0,2.849-2.274c.33.6.051,1.217.169,1.784-.076.152-.161.3-.237.457-.727-.22-.922.44-1.251.812-.38.423-.752.592-1.251.237a.472.472,0,0,0,.465-.355c.025-.11-.051-.177-.161-.161-.245.042-.33.237-.372.457-.262-.008-.473.3-.8.11C450.951,321.873,451.466,321.7,451.492,321.264Z" transform="translate(-370.124 -268.005)"/><path class="b" d="M424.945,351.157c-.609-.008-1.319.321-1.682-.507a9.754,9.754,0,0,1-1.243-2.3c.626.313,1.006.795,1.539,1.074a2.819,2.819,0,0,0,2.722.228,4.108,4.108,0,0,1,.989-.211c.068.068.144.135.211.2a3.38,3.38,0,0,1-2.012.972C425.148,350.709,424.852,350.709,424.945,351.157Z" transform="translate(-365.661 -272.542)"/><path class="b" d="M441.478,329.481c.473.127.634-.3.845-.55a9.327,9.327,0,0,1,2.08-1.412,1.346,1.346,0,0,1-.55.888,4.342,4.342,0,0,0-1.327,2.147c-.955-.651-1.353.4-2,.668a1.78,1.78,0,0,1-1.091.262c.668-.744,1.8-.922,2.038-2Z" transform="translate(-368.353 -269.323)"/><path class="b" d="M444.707,333.337c.034.347.3.4.533.3.955-.38,1.9.059,2.858-.025-.651.465-1.437.051-2.114.423h2.173v.186H442.34c.347-.245.685-.3.7-.668C443.591,333.413,444.073,332.762,444.707,333.337Z" transform="translate(-368.802 -270.186)"/><path class="b" d="M440.606,335.009c-.093.034-.186.068-.271.093a4.2,4.2,0,0,0-2.731,1.277c-.643.313-1.141.938-1.945.9a12.974,12.974,0,0,1,5.25-3.255c.093.4-.44.583-.338.981C440.564,335,440.606,335.009,440.606,335.009Z" transform="translate(-367.769 -270.327)"/><path class="b" d="M451.651,332.278c.059.11.11.22.169.33l-3.779-.025a1.329,1.329,0,0,1-.271-.042A18.887,18.887,0,0,1,451.651,332.278Z" transform="translate(-369.641 -270.057)"/><path class="b" d="M418.344,347.181c-.076.161-.152.364-.364.186-.135-.118-.389-.245-.2-.5a5.124,5.124,0,0,1,.406-.448C418.835,346.547,418.294,346.927,418.344,347.181Z" transform="translate(-364.995 -272.244)"/><path class="b" d="M419,348.134c.313.161.3.389.186.685-.364-.186-.287-.457-.22-.719Z" transform="translate(-365.181 -272.504)"/><path class="b" d="M450.151,324.25a1.132,1.132,0,0,1,.161.042c-.068.085-.135.178-.211.262-.059.059-.11.042-.11-.051C449.99,324.385,450,324.267,450.151,324.25Z" transform="translate(-369.984 -268.818)"/><path class="b" d="M452.552,332.64c.161-.076.313-.144.473-.22.017.076.068.169.034.228-.118.254-.347.178-.55.152A.648.648,0,0,0,452.552,332.64Z" transform="translate(-370.373 -270.08)"/><path class="b" d="M448.41,326.272c.085-.161.127-.364.372-.364l-.017-.008c-.017.228-.161.321-.355.372Z" transform="translate(-369.74 -269.072)"/><path class="b" d="M438.31,332.814c.034-.161.161-.22.3-.254a.143.143,0,0,1,.051.068.283.283,0,0,1-.313.228Z" transform="translate(-368.179 -270.102)"/><path class="b" d="M428.23,349.621c.118-.068.228-.144.347-.211.042.042.085.093.127.135-.085.093-.169.194-.262.287C428.374,349.757,428.3,349.689,428.23,349.621Z" transform="translate(-366.621 -272.706)"/><path class="b" d="M448.4,326.33Z" transform="translate(-369.738 -269.139)"/><path class="b" d="M449.5,325.018c.017-.025.034-.042.051-.068l-.059.059Z" transform="translate(-369.907 -268.926)"/><path class="b" d="M418.977,345.928l-.017-.068.059.008Z" transform="translate(-365.188 -272.157)"/><path class="c" d="M420.427,346.434c.017-.051.042-.093.059-.144.093.11.017.127-.076.127C420.418,346.417,420.427,346.434,420.427,346.434Z" transform="translate(-365.412 -272.224)"/><path class="b" d="M448.847,325.884c.017-.051.025-.093.042-.144.144.11-.017.093-.059.127C448.83,325.875,448.847,325.884,448.847,325.884Z" transform="translate(-369.804 -269.048)"/><path class="b" d="M429.39,348.814c-.008-.127.059-.186.186-.186l-.008-.008c-.059.068-.118.127-.178.194Z" transform="translate(-366.8 -272.584)"/><path class="b" d="M429.16,349.028a.163.163,0,0,1,.194-.169l-.008-.008c-.059.068-.118.127-.178.194Z" transform="translate(-366.764 -272.619)"/><path class="b" d="M428.88,349.2c.076-.042.161-.085.237-.135l.008.008c-.051.076-.1.144-.152.22A.976.976,0,0,0,428.88,349.2Z" transform="translate(-366.721 -272.652)"/><path class="b" d="M428.64,349.381c.068-.051.135-.11.2-.161a.968.968,0,0,0,.093.093l-.178.2A.9.9,0,0,0,428.64,349.381Z" transform="translate(-366.684 -272.677)"/><path class="b" d="M449.265,325.24l-.025.076c.008-.025.025-.042.034-.068Z" transform="translate(-369.868 -268.97)"/><path class="b" d="M449.279,325.214l.186-.186-.008-.008-.186.186Z" transform="translate(-369.873 -268.936)"/><path class="b" d="M439.119,332.3l.051.051a.107.107,0,0,1-.059.034c-.017,0-.034-.025-.051-.042A.258.258,0,0,1,439.119,332.3Z" transform="translate(-368.295 -270.062)"/><path class="c" d="M362.8,309.968c-.017.262-.034.524-.051.947a3.072,3.072,0,0,1-.685-2.054h-.008c.626.118.338.845.744,1.108Z" transform="translate(-356.394 -266.439)"/><path class="c" d="M360.518,295.12l-.178-1.5c.059-.051.11-.1.169-.161.254-.1.152-.355.22-.533C360.813,293.674,361.228,294.452,360.518,295.12Z" transform="translate(-356.128 -263.977)"/><path class="a" d="M371.94,333.19c.82.068,1.632.127,2.452.194-.085.034-.169.059-.254.093-.617-.008-1.234-.025-1.852-.034C372.168,333.351,372.05,333.275,371.94,333.19Z" transform="translate(-357.921 -270.199)"/><path class="a" d="M362.147,307.588a.781.781,0,0,1-.355-.938Z" transform="translate(-356.345 -266.097)"/><path class="a" d="M367.56,317.98c.11.076.22.161.33.237l-.008-.008c.051.22.11.448.195.786a1.241,1.241,0,0,1-.626-.9A1.351,1.351,0,0,0,367.56,317.98Z" transform="translate(-357.227 -267.848)"/><path class="c" d="M369.388,332.854c-.169-.025-.38.034-.448-.194-.008-.042.085-.152.144-.161.245-.042.3.135.338.321Z" transform="translate(-357.457 -270.091)"/><path class="a" d="M367.207,328.734c-.127-.042-.3-.034-.287-.245a.148.148,0,0,1,.1-.11c.194-.034.22.135.287.254A1.144,1.144,0,0,0,367.207,328.734Z" transform="translate(-357.145 -269.455)"/><path class="c" d="M362.041,308.777a.293.293,0,0,1-.144-.355.133.133,0,0,1,.068-.042c.025.135.051.271.076.4Z" transform="translate(-356.367 -266.365)"/><path class="a" d="M368.786,319.78v.372l.008-.008c-.169-.017-.3-.1-.3-.271a1.775,1.775,0,0,1,.3-.093Z" transform="translate(-357.388 -268.127)"/><path class="c" d="M370.3,333.777a.282.282,0,0,1-.372.135c-.025-.008-.034-.042-.051-.068.135-.025.271-.059.414-.085C370.286,333.76,370.3,333.777,370.3,333.777Z" transform="translate(-357.603 -270.287)"/><path class="a" d="M366.88,317.379c.127-.017.245-.042.372-.059C367.176,317.658,367.041,317.6,366.88,317.379Z" transform="translate(-357.139 -267.746)"/><path class="a" d="M365.77,315.638c.287-.008.2.186.186.338h-.068l-.068.017c-.008-.118-.025-.237-.034-.364Z" transform="translate(-356.968 -267.485)"/><path class="c" d="M366.206,316.706l-.076-.076c.017.008.034.008.042.017s.017.042.034.059Z" transform="translate(-357.023 -267.64)"/><path class="a" d="M367.439,318.073a1.816,1.816,0,0,0-.059-.2c.059.034.11.059.169.093A1.342,1.342,0,0,1,367.439,318.073Z" transform="translate(-357.216 -267.831)"/><path class="a" d="M368.331,319.448a.392.392,0,0,1-.059.059c-.017-.025-.042-.042-.042-.068s.034-.042.051-.059C368.3,319.405,368.315,319.422,368.331,319.448Z" transform="translate(-357.348 -268.065)"/><path class="a" d="M368.84,320.22c.059.059.118.127.177.186l.017-.008a.169.169,0,0,1-.194-.178Z" transform="translate(-357.442 -268.195)"/><path class="a" d="M369.05,320.437a.17.17,0,0,1,.068.034c.008.008.008.034.008.051-.025-.034-.042-.068-.068-.1C369.067,320.428,369.05,320.437,369.05,320.437Z" transform="translate(-357.474 -268.226)"/><path class="b" d="M361.521,281.783c-.685.33-1.285.862-2.139.761-.338-.042-.127.22-.093.364l.008-.008a3.235,3.235,0,0,1-1.97-3.221c.44.321.2,1.015.736,1.344.313-.5-.254-.913,0-1.412.448.659.736,1.412,1.573,1.7a1.462,1.462,0,0,0,1.953-.727c.271.482-.068.828-.076,1.209C361.512,281.8,361.521,281.783,361.521,281.783Z" transform="translate(-355.66 -261.918)"/><path class="b" d="M373.258,265.17a1.549,1.549,0,0,1-1.048,1.48A2.763,2.763,0,0,1,373.258,265.17Z" transform="translate(-357.963 -259.687)"/><path class="b" d="M360.374,280.951c.313-.068.617-.144.93-.211a1.091,1.091,0,0,0,.135.144c-.313.583-.786.448-1.26.271C360.239,281.087,360.307,281.019,360.374,280.951Z" transform="translate(-356.104 -262.093)"/><path class="b" d="M361.09,283.9h-.6c.262-.245.431-.178.592.008Z" transform="translate(-356.152 -262.557)"/><path class="b" d="M359.65,283.509c.085.017.178.042.262.059-.135.169-.186.008-.254-.068Z" transform="translate(-356.022 -262.52)"/><path class="b" d="M360.105,281.162c-.118-.068-.237-.135-.355-.211.059-.051.118-.11.178-.161.127.059.245.11.372.169C360.24,281.027,360.173,281.094,360.105,281.162Z" transform="translate(-356.037 -262.101)"/><path class="b" d="M359.3,280.5c-.085-.059-.271-.085-.161-.22.085-.11.211-.008.271.11A.677.677,0,0,0,359.3,280.5Z" transform="translate(-355.938 -262.015)"/><path class="b" d="M359.718,280.936c-.059-.059-.118-.127-.178-.186a1.474,1.474,0,0,0,.127-.11c.076.051.152.093.228.135C359.836,280.826,359.777,280.877,359.718,280.936Z" transform="translate(-356.005 -262.078)"/><path class="b" d="M359.448,280.42c.059.059.127.118.186.177a.54.54,0,0,1-.127.11c-.059-.059-.118-.118-.178-.186C359.372,280.488,359.406,280.454,359.448,280.42Z" transform="translate(-355.972 -262.044)"/><path class="c" d="M464.083,286.79a.916.916,0,0,1,.152.008,4.677,4.677,0,0,1,.042,2.925,1.492,1.492,0,0,0-.228.964c-.042,1.116.364,2.19.262,3.323.2-.313.161-.736.524-.93a4.823,4.823,0,0,1-.11,1.251,13.938,13.938,0,0,0,.093,4.472l-.008-.008c-.025.237-.042.482-.068.719-.448.144-.279.5-.271.795-.051.372.11.778-.195,1.1-.017-.643-.034-1.294-.059-1.936,0-.085,0-.178-.008-.262.008-.473.3-.913.177-1.4,0-.144,0-.279.008-.423a3.363,3.363,0,0,0-.211-1.97c-.262.355.059.812-.254,1.133a14.082,14.082,0,0,1,.059-3.213.942.942,0,0,0,.025-.457,8.986,8.986,0,0,1-.11-4.16l-.017.008C464.227,288.109,464,287.433,464.083,286.79Z" transform="translate(-372.105 -263.028)"/><path class="b" d="M464.906,293.616c-.364.194-.321.609-.524.93.1-1.133-.313-2.207-.262-3.323a1.492,1.492,0,0,1,.228-.964c.49.118.3.516.33.829.059.719-.152,1.48.364,2.114l.042.051c-.008.059-.025.127-.034.186l-.161.186Z" transform="translate(-372.167 -263.564)"/><path class="b" d="M457.952,268.765c-.152-.524-.55-.989-.389-1.725.9.9.634,2.215,1.387,3.052a1.73,1.73,0,0,1-1.006-1.15l-.008.008c.042-.042.076-.093.118-.135-.042-.017-.076-.042-.118-.059Z" transform="translate(-371.148 -259.976)"/><path class="b" d="M463.249,278.259c-.516-.338-1.243-.6-.524-1.429C462.911,277.329,463.08,277.794,463.249,278.259Z" transform="translate(-371.905 -261.489)"/><path class="c" d="M465.24,287.886c.313-.237.051-.643.423-1.116-.194,1,.211,1.818-.279,2.587A4.153,4.153,0,0,0,465.24,287.886Z" transform="translate(-372.341 -263.025)"/><path class="b" d="M463.708,281.04c.025-.152-.076-.457.211-.364.355.11.786.1,1.065.465-.482.347-.871-.017-1.285-.11C463.7,281.023,463.708,281.04,463.708,281.04Z" transform="translate(-372.103 -262.081)"/><path class="b" d="M462.79,280.381c.017-.017.025-.034.042-.051a.626.626,0,0,1,.1.11c.008.008-.017.042-.034.068A1.465,1.465,0,0,0,462.79,280.381Z" transform="translate(-371.962 -262.03)"/><path class="b" d="M465.823,280.892a.809.809,0,0,1-.194.152c-.093.042-.186,0-.169-.1.008-.068.1-.135.169-.177C465.755,280.68,465.755,280.807,465.823,280.892Z" transform="translate(-372.374 -262.093)"/><path class="b" d="M458.007,269.256l-.127-.051.127-.127L458,269.07v.194Z" transform="translate(-371.203 -260.289)"/><path class="a" d="M465.137,292.5c.008-.059.025-.127.034-.186a.5.5,0,0,1,.685.3,13.884,13.884,0,0,1,.068,1.463c.575-3.272.795-6.595,1.7-9.824-.321,2.587-.753,5.166-.922,7.761a32.777,32.777,0,0,1-1.615,7.753c-.271-.169-.085-.457-.195-.651.025-.237.042-.482.068-.719.457-.862.034-1.759.118-2.629a11.493,11.493,0,0,0-.11,2.638,14.181,14.181,0,0,1-.093-4.472,4.823,4.823,0,0,0,.11-1.251h-.025A1.173,1.173,0,0,0,465.137,292.5Z" transform="translate(-372.264 -262.635)"/><path class="c" d="M458.4,315.782q1.027-1.928,2.046-3.864c.795.051.693-.719,1.057-1.158a3.083,3.083,0,0,1-.566,1.775,3.271,3.271,0,0,0-.4,1.53,1.9,1.9,0,0,1-1.141,1.826c-.287.118-.3.44-.465.643-.22.271-.287.7-.744.727-.034-.33.4-.55.228-.913l-.008.017c.042-.017.118-.017.127-.042.025-.093-.017-.161-.127-.161C458.409,316.036,458.409,315.909,458.4,315.782Zm.938-.541a1.691,1.691,0,0,0,.634-1.429c-.211.482-.643.862-.626,1.446H459.2c.017.034.025.076.042.11C459.28,315.334,459.306,315.283,459.339,315.241Zm.888-1.759c-.025-.051-.042-.11-.068-.161-.017.025-.051.051-.051.076a.754.754,0,0,0,.059.161C460.185,313.533,460.21,313.508,460.227,313.482Z" transform="translate(-371.251 -266.733)"/><path class="a" d="M464.183,303.62c.3-.33.144-.736.194-1.1.778.6.093,1.226.034,1.843l-.076.33.008-.017c-.313.254-.271.668-.44.955-.211.347-.161-.085-.237-.152.127-.1.177-.211.068-.355-.068.076-.144.152-.211.228a.085.085,0,0,0-.093.059c-.287-.017-.372-.194-.3-.44.372-1.294-.068-2.689.634-3.923.093.068.1.38.372.372,0,.085,0,.178.008.262a7.357,7.357,0,0,0-.659,2.486c.321.347.457.127.524-.211a.351.351,0,0,0,.194-.372Z" transform="translate(-372.011 -265.232)"/><path class="c" d="M463.408,306.076a.091.091,0,0,1,.093-.059l.152.127c.076.068.025.507.237.152.178-.287.135-.71.44-.955-.025,1.615-.8,3.01-1.268,4.684A13.489,13.489,0,0,1,463.408,306.076Z" transform="translate(-371.996 -265.895)"/><path class="a" d="M466.378,290.546a15.185,15.185,0,0,1,.676-5.546C466.759,286.75,466.869,288.542,466.378,290.546Z" transform="translate(-372.507 -262.751)"/><path class="a" d="M458.258,317.38c.169.364-.262.583-.228.913h.034c-.144.008-.186.11-.211.22-.228.3-.465.609-.693.922l-.059-.068c.008-.372.338-.676.228-1.074l-.008.017c.22-.051.228-.211.194-.38l-.008.008c.144.008.194-.068.194-.194l-.008.008c.135,0,.186-.068.194-.194l-.008.008C458,317.507,458.131,317.439,458.258,317.38Z" transform="translate(-371.083 -267.756)"/><path class="a" d="M469.513,280.079c-.042-.059-.1-.1-.093-.135a1.37,1.37,0,0,1,.059-.254c.025.034.085.076.085.11A2.5,2.5,0,0,1,469.513,280.079Z" transform="translate(-372.987 -261.931)"/><path class="c" d="M464.56,305.3l.076-.33C464.771,305.114,464.7,305.215,464.56,305.3Z" transform="translate(-372.236 -265.838)"/><path class="a" d="M457.1,319.8c-.144.2-.271.2-.389-.025l-.008.008.33-.051Z" transform="translate(-371.021 -268.119)"/><path class="c" d="M462.61,311.435c.025-.085.042-.161.068-.245l.076.051c-.051.059-.093.127-.144.194Z" transform="translate(-371.934 -266.799)"/><path class="c" d="M462.585,311.48c-.025.085-.042.161-.068.245-.025-.017-.042-.034-.068-.051.042-.068.093-.127.135-.194Z" transform="translate(-371.91 -266.844)"/><path class="a" d="M469.3,280.53c.008.025.025.059.017.085-.025.093-.059.1-.093.025a.1.1,0,0,1,.017-.085C469.245,280.538,469.279,280.538,469.3,280.53Z" transform="translate(-372.955 -262.061)"/><path class="c" d="M457.99,318.68c.025-.118.068-.22.211-.22C458.125,318.536,458.058,318.6,457.99,318.68Z" transform="translate(-371.22 -267.923)"/><path class="a" d="M437.95,336.577a4.2,4.2,0,0,1,2.731-1.277C439.954,336.12,438.863,336.145,437.95,336.577Z" transform="translate(-368.123 -270.525)"/><path class="a" d="M453.013,333.465H450.84c.786.068,1.539-.44,2.333-.161l.034-.008c-.11.017-.228.034-.194.194Z" transform="translate(-370.115 -270.204)"/><path class="a" d="M441.5,335.188l-.034-.008h.1C441.546,335.18,441.521,335.188,441.5,335.188Z" transform="translate(-368.667 -270.507)"/><path class="a" d="M426.53,342.307l.347.025c-.025.042-.042.11-.076.118-.144.051-.22-.025-.254-.161C426.538,342.29,426.53,342.307,426.53,342.307Z" transform="translate(-366.358 -271.606)"/><path class="a" d="M427.685,342.81c-.076.017-.2.068-.22.042-.076-.11.042-.127.11-.152A.676.676,0,0,1,427.685,342.81Z" transform="translate(-366.499 -271.669)"/><path class="c" d="M463.01,285.85c.076-.2-.017-.465.228-.6a7.5,7.5,0,0,1,.482,2.587c-.093-.008-.186-.008-.279-.017C463.3,287.169,463.154,286.51,463.01,285.85Z" transform="translate(-371.996 -262.79)"/><path class="b" d="M463.967,298.123c.313-.321-.008-.778.254-1.133a3.364,3.364,0,0,1,.211,1.97C463.976,298.85,463.917,298.52,463.967,298.123Z" transform="translate(-372.142 -264.604)"/><path class="b" d="M463.52,288.3c.093.008.186.008.279.017a.853.853,0,0,1,.059.659l.017-.008c-.1.271-.2.533-.355.913C463.52,289.264,463.52,288.782,463.52,288.3Z" transform="translate(-372.075 -263.261)"/><path class="b" d="M457.038,319.534l-.33.051a1.32,1.32,0,0,1,.558-1.124C457.377,318.857,457.038,319.162,457.038,319.534Z" transform="translate(-371.021 -267.923)"/><path class="b" d="M459.71,311.224c.144-.321.287-.643.507-1.124a1.223,1.223,0,0,1-.364,1.277A1.224,1.224,0,0,0,459.71,311.224Z" transform="translate(-371.486 -266.631)"/><path class="b" d="M458.4,317.276c-.127.068-.254.127-.38.194a.774.774,0,0,1,.364-.761c0,.127.008.254.008.38v.2Z" transform="translate(-371.222 -267.652)"/><path class="b" d="M457.554,318.03c.034.177.025.33-.194.38C457.428,318.284,457.487,318.157,457.554,318.03Z" transform="translate(-371.123 -267.856)"/><path class="b" d="M459.835,311.572l-.287.262.008.008a.373.373,0,0,1,.127-.423C459.733,311.479,459.784,311.521,459.835,311.572Z" transform="translate(-371.459 -266.835)"/><path class="b" d="M459.533,311.91a.209.209,0,0,1-.034.076c-.008.008-.042.008-.059.008a.442.442,0,0,0,.093-.085Z" transform="translate(-371.444 -266.91)"/><path class="b" d="M457.995,317.59c-.008.127-.059.194-.195.194C457.808,317.666,457.859,317.59,457.995,317.59Z" transform="translate(-371.191 -267.788)"/><path class="b" d="M457.774,317.81c0,.135-.059.2-.194.194C457.639,317.937,457.707,317.878,457.774,317.81Z" transform="translate(-371.157 -267.822)"/><path class="a" d="M384.31,335.3a4.1,4.1,0,0,1,2.815,1.294C386.187,336.154,385.1,336.061,384.31,335.3Z" transform="translate(-359.833 -270.525)"/><path class="b" d="M374.345,333.978c-.262.3-.6.152-.955.169.3-.38.643-.194.955-.169Z" transform="translate(-358.145 -270.31)"/><path class="b" d="M383.108,334.334a.343.343,0,0,1-.1.025c-.008,0-.008-.042-.017-.059C383.024,334.308,383.058,334.317,383.108,334.334Z" transform="translate(-359.629 -270.371)"/><path class="c" d="M449.22,335.179a.991.991,0,0,1,.82-.051A.778.778,0,0,1,449.22,335.179Z" transform="translate(-369.865 -270.489)"/><path class="c" d="M457.078,332.141a1,1,0,0,1-.068-.135c.068-.025.127-.051.194-.076.008.051.042.118.025.152S457.128,332.116,457.078,332.141Z" transform="translate(-371.069 -270.004)"/><path class="a" d="M458.4,328.442c.034-.085.025-.262.152-.194.1.051.025.186-.085.245Z" transform="translate(-371.284 -269.433)"/><path class="c" d="M453.409,333.514c-.034-.161.085-.178.194-.194Z" transform="translate(-370.511 -270.219)"/><path class="a" d="M392.284,343a1.772,1.772,0,0,1,.169.186c.482.668.034,1.48.347,2.173.034.372.068.736.093,1.108-.059.051-.127.1-.186.161-.034-.076-.068-.152-.11-.228-.169-.44.042-1.133-.778-1.116-.042-.786-.423-1.589.118-2.35A1.572,1.572,0,0,1,392.284,343Z" transform="translate(-360.967 -271.704)"/><path class="b" d="M391.86,345.69c.82-.017.609.685.778,1.116C391.75,346.865,392.131,346.045,391.86,345.69Z" transform="translate(-361 -272.131)"/><path class="b" d="M396.836,351.742c-.516-.127-1.006-.3-1.108-.922l-.008.008c.524.127,1.015.287,1.116.913Z" transform="translate(-361.596 -272.924)"/><path class="b" d="M395.594,350.713c-.237-.1-.634.448-.744-.186v.008c.254-.025.076-.49.372-.4a.573.573,0,0,1,.372.575Z" transform="translate(-361.462 -272.817)"/><path class="b" d="M393.54,347.98a.456.456,0,0,1,.414.3c.11.22.135.448-.135.516s-.245-.194-.262-.364a4.121,4.121,0,0,1-.017-.457Z" transform="translate(-361.259 -272.485)"/><path class="b" d="M392.9,347.251c.059-.051.127-.1.186-.161.482.076.313.457.347.744h0C393.016,347.868,392.83,347.682,392.9,347.251Z" transform="translate(-361.158 -272.347)"/><path class="b" d="M397.03,351.919c.22.034.49-.1.685.211-.321.152-.5-.042-.685-.211Z" transform="translate(-361.799 -273.093)"/><path class="b" d="M394.615,350.344c-.042-.059-.093-.127-.135-.186.211-.051.076.127.135.186Z" transform="translate(-361.405 -272.82)"/><path class="b" d="M394.814,350.566l-.186-.186-.008.008c.068.059.135.118.194.178Z" transform="translate(-361.426 -272.856)"/><path class="a" d="M428.277,349.318l.177-.2c.051-.076.1-.144.152-.22s.118-.127.178-.194l.186-.186c.4-.076.507-.7,1.031-.55a10.559,10.559,0,0,1-2.384,2.367,4.963,4.963,0,0,1-2.13.752c-.093-.448.2-.448.524-.524a3.454,3.454,0,0,0,2.012-.972C428.1,349.5,428.184,349.411,428.277,349.318Z" transform="translate(-366.194 -272.479)"/><path class="a" d="M430.915,347.792a.356.356,0,0,1,.195-.482C431.177,347.53,431.051,347.665,430.915,347.792Z" transform="translate(-367.032 -272.381)"/><path class="a" d="M431.13,347.294a.285.285,0,0,1,.3-.194C431.324,347.168,431.231,347.235,431.13,347.294Z" transform="translate(-367.069 -272.349)"/><path class="a" d="M465.5,283.31c-.152.034-.3.051-.448.093-1.243.33-1.387.245-1.75-1.133a4.248,4.248,0,0,0,2.207.719c.22-.017.008.22-.025.338C465.481,283.318,465.5,283.31,465.5,283.31Z" transform="translate(-372.041 -262.329)"/><path class="a" d="M463.821,288.482a.853.853,0,0,0-.059-.659,7.5,7.5,0,0,0-.482-2.587c.38-.245.347.144.423.3.161.313.068.7.3,1C463.931,287.18,464.159,287.856,463.821,288.482Z" transform="translate(-372.038 -262.776)"/><path class="a" d="M462.577,285.652l-.127-.2c0-.008.042-.034.068-.059.025.085.051.169.076.245Z" transform="translate(-371.91 -262.812)"/><path class="c" d="M462.816,284.152c-.025-.017-.051-.025-.076-.042.025.017.051.025.076.042Z" transform="translate(-371.954 -262.614)"/><path class="c" d="M462.83,284.16c.025.017.051.025.076.042-.025-.017-.051-.025-.076-.042Z" transform="translate(-371.968 -262.622)"/><path class="b" d="M358.848,290.2a3.251,3.251,0,0,1-.254-2.173C358.679,288.757,358.764,289.476,358.848,290.2Z" transform="translate(-355.846 -263.22)"/><path class="a" d="M455.143,261.36c-.2-.051-.228-.2-.186-.38C455.194,261.022,455.227,261.166,455.143,261.36Z" transform="translate(-370.749 -259.039)"/><path class="a" d="M455.364,261.613c-.161.034-.2-.059-.194-.194C455.339,261.385,455.364,261.486,455.364,261.613Z" transform="translate(-370.784 -259.106)"/><path class="a" d="M431.064,346.652a.889.889,0,0,0-.034-.144.915.915,0,0,1,.152-.008c.017,0,.034.068.025.068A.8.8,0,0,1,431.064,346.652Z" transform="translate(-367.054 -272.256)"/><path class="a" d="M430.61,347l.2-.076c-.025.068-.051.135-.076.211C430.686,347.081,430.652,347.038,430.61,347Z" transform="translate(-366.989 -272.321)"/><path class="a" d="M430.39,347.2l.186-.186.127.127c-.059.059-.127.118-.186.186C430.466,347.281,430.432,347.238,430.39,347.2Z" transform="translate(-366.955 -272.335)"/><path class="a" d="M430.473,347.348c-.059.068-.118.127-.178.194l-.135-.135c.068-.059.127-.118.186-.178C430.4,347.272,430.431,347.315,430.473,347.348Z" transform="translate(-366.919 -272.369)"/><path class="a" d="M430.26,347.575c-.059.059-.118.127-.178.186-.051-.051-.1-.093-.152-.144.068-.059.135-.118.194-.178Z" transform="translate(-366.884 -272.401)"/><path class="a" d="M430.05,347.8l-.186.186c-.051-.051-.093-.1-.144-.161.059-.059.118-.11.178-.169C429.948,347.7,430,347.753,430.05,347.8Z" transform="translate(-366.851 -272.436)"/><path class="a" d="M381.33,329.16c.575.186.651.659.676,1.167A1.2,1.2,0,0,1,381.33,329.16Z" transform="translate(-359.372 -269.576)"/><path class="a" d="M381.21,331.876c.118-.11.262-.355.406-.177.152.194-.118.262-.271.33C381.295,331.978,381.252,331.927,381.21,331.876Z" transform="translate(-359.354 -269.959)"/><path class="a" d="M365.118,314.11c.321.135.347.406.355.795a.8.8,0,0,1-.355-.795Z" transform="translate(-356.866 -267.25)"/><path class="a" d="M364.848,313.25c-.025.034-.051.059-.076.093a.921.921,0,0,1-.042-.144c0-.017.025-.042.042-.059A1.257,1.257,0,0,1,364.848,313.25Z" transform="translate(-356.807 -267.1)"/><path class="a" d="M365.1,314.041a.208.208,0,0,1-.161-.254c.008-.025.076-.042.11-.068.017.11.025.22.051.321Z" transform="translate(-356.839 -267.19)"/><path class="a" d="M365.759,315.573c-.059-.093-.11-.186-.169-.271.042-.017.085-.025.127-.042.008.11.017.22.025.321Z" transform="translate(-356.94 -267.428)"/><g transform="translate(18.322 2.364)"><path class="b" d="M406.841,321.008a29.764,29.764,0,1,1,29.726-29.861A29.78,29.78,0,0,1,406.841,321.008ZM377.7,291.468a29.1,29.1,0,1,0,28.864-29.329A29.111,29.111,0,0,0,377.7,291.468Z" transform="translate(-377.03 -261.48)"/><path class="c" d="M407.074,319.742a28.222,28.222,0,1,1,28.23-28.1A28.287,28.287,0,0,1,407.074,319.742Zm-26.479-28.2A26.493,26.493,0,1,0,406.93,265.05,26.513,26.513,0,0,0,380.595,291.538Z" transform="translate(-377.314 -261.761)"/></g><path class="a" d="M451.86,322.716c.042-.22.118-.414.372-.457a.132.132,0,0,1,.161.161c-.051.245-.237.33-.465.355C451.919,322.784,451.86,322.716,451.86,322.716Z" transform="translate(-370.273 -268.509)"/><path class="b" d="M464.061,304.074c-.068.338-.2.558-.524.211a7.258,7.258,0,0,1,.659-2.486c.017.643.034,1.294.059,1.936v-.025C464.1,303.787,463.875,303.829,464.061,304.074Z" transform="translate(-372.074 -265.348)"/><path class="c" d="M465.181,294.01l-.161.186Z" transform="translate(-372.307 -264.144)"/><path class="a" d="M458.01,269.274v-.194c.042.017.076.042.118.059C458.095,269.181,458.052,269.224,458.01,269.274Z" transform="translate(-371.223 -260.291)"/><path class="b" d="M465.025,300.518a11.023,11.023,0,0,1,.11-2.638c-.085.879.338,1.767-.118,2.629C465.009,300.509,465.025,300.518,465.025,300.518Z" transform="translate(-372.304 -264.742)"/><path class="a" d="M459.558,315.816c-.017-.583.414-.964.626-1.446a1.714,1.714,0,0,1-.634,1.429Z" transform="translate(-371.461 -267.29)"/><path class="a" d="M460.578,313.949a.478.478,0,0,1-.059.068.9.9,0,0,1-.059-.161c0-.017.034-.051.051-.076C460.536,313.839,460.553,313.9,460.578,313.949Z" transform="translate(-371.602 -267.199)"/><path class="a" d="M459.527,316.06c-.025.042-.059.093-.085.135-.017-.034-.025-.076-.042-.11h.144A.121.121,0,0,1,459.527,316.06Z" transform="translate(-371.438 -267.552)"/><path class="a" d="M458.46,317.353v-.2c.11,0,.152.068.127.161C458.578,317.336,458.5,317.344,458.46,317.353Z" transform="translate(-371.293 -267.72)"/><path class="c" d="M464.148,304.422c-.178-.254.042-.287.194-.372A.351.351,0,0,1,464.148,304.422Z" transform="translate(-372.162 -265.696)"/><path class="c" d="M463.59,306.1c.068-.076.144-.152.211-.228a.225.225,0,0,1-.068.355C463.691,306.183,463.641,306.141,463.59,306.1Z" transform="translate(-372.086 -265.977)"/><g transform="translate(29.287 8.105)"><path class="e" d="M420.677,273.6a4.6,4.6,0,0,1-3.128,4.565c-.364.127-.465.008-.524-.33a4.57,4.57,0,0,1,2.773-5.208c.676-.3.744-.262.845.457C420.669,273.3,420.677,273.533,420.677,273.6Z" transform="translate(-394.164 -268.918)"/><path class="e" d="M424.3,276.743a4.36,4.36,0,0,1-3.424,4.371c-.347.085-.482.008-.516-.355a4.411,4.411,0,0,1,3.441-4.785C424.668,275.771,424.11,276.523,424.3,276.743Z" transform="translate(-394.688 -269.456)"/><path class="e" d="M402.969,272.825c-.025-1.2.085-1.277,1.158-.778a4.4,4.4,0,0,1,2.587,4.65c-.042.38-.135.55-.575.4A4.323,4.323,0,0,1,402.969,272.825Z" transform="translate(-392.004 -268.81)"/><path class="e" d="M402.142,292.09a5.835,5.835,0,0,1,1.589.338c.347.11.457.254.228.609a4.465,4.465,0,0,1-5.622,1.8c-.245-.1-.473-.177-.245-.507A4.53,4.53,0,0,1,402.142,292.09Z" transform="translate(-391.236 -271.952)"/><path class="e" d="M426.2,285.59c-1.04-.017-1.074-.076-.685-1.006a4.349,4.349,0,0,1,4.726-2.731c.431.051.55.178.372.617A4.338,4.338,0,0,1,426.2,285.59Z" transform="translate(-395.454 -270.364)"/><path class="e" d="M423.81,282.12c1.1.025,1.133.085.659,1.1a4.3,4.3,0,0,1-4.557,2.646c-.634-.051-.685-.135-.473-.71A4.369,4.369,0,0,1,423.81,282.12Z" transform="translate(-394.532 -270.411)"/><path class="e" d="M429.511,290.134a4.517,4.517,0,0,1-3.889-2.2c-.161-.228-.135-.347.127-.457a4.421,4.421,0,0,1,5.8,1.725c.228.321.059.44-.2.533A5.453,5.453,0,0,1,429.511,290.134Z" transform="translate(-395.49 -271.171)"/><path class="e" d="M421.737,287.89a4.355,4.355,0,0,1,4.219,2.7c.161.3.059.431-.237.516a4.484,4.484,0,0,1-5.411-2.6c-.118-.271-.093-.406.211-.482A6.219,6.219,0,0,1,421.737,287.89Z" transform="translate(-394.674 -271.303)"/><path class="e" d="M395.659,284.38a4.457,4.457,0,0,1,3.517,1.818c.22.245.169.4-.127.558a4.455,4.455,0,0,1-5.825-1.209c-.22-.3-.194-.423.135-.592A5.879,5.879,0,0,1,395.659,284.38Z" transform="translate(-390.476 -270.761)"/><path class="e" d="M399.179,281.657a4.37,4.37,0,0,1,4.236,4.151c.042.372-.093.457-.44.431a4.453,4.453,0,0,1-4.177-4.092C398.765,281.776,398.841,281.59,399.179,281.657Z" transform="translate(-391.358 -270.338)"/><path class="e" d="M401.371,279.285c.059.9-.059,1-.9.685a4.305,4.305,0,0,1-3.094-4.43c0-.651.059-.693.659-.507A4.285,4.285,0,0,1,401.371,279.285Z" transform="translate(-391.14 -269.301)"/><path class="e" d="M399.878,291.182a5.72,5.72,0,0,1-2.486-.676c-.271-.144-.355-.279-.144-.558a4.524,4.524,0,0,1,5.918-1.031c.254.169.254.287.076.524A5.075,5.075,0,0,1,399.878,291.182Z" transform="translate(-391.102 -271.357)"/><path class="e" d="M395.93,282.592a4.261,4.261,0,0,1-4.253-3c-.135-.4-.11-.566.372-.617a4.354,4.354,0,0,1,4.861,2.8c.279.693.228.778-.549.812A3.677,3.677,0,0,1,395.93,282.592Z" transform="translate(-390.248 -269.919)"/><path class="e" d="M415.188,274.269a4.409,4.409,0,0,1-1.843,3.128c-.237.2-.372.118-.516-.135a4.352,4.352,0,0,1,1.285-5.681c.271-.186.38-.127.5.135A5.96,5.96,0,0,1,415.188,274.269Z" transform="translate(-393.442 -268.766)"/><path class="e" d="M411.374,277.621c-.008.533.085,1.285-.321,1.48-.465.22-.964-.364-1.378-.71a4,4,0,0,1-1.234-4.329c.085-.4.3-.372.575-.211A4,4,0,0,1,411.374,277.621Z" transform="translate(-392.824 -269.116)"/><path class="e" d="M392.587,290.8a4.791,4.791,0,0,1-2.325-.676c-.3-.169-.355-.313-.093-.6a4.131,4.131,0,0,1,5.352-.752c.321.2.406.33.093.626A4.274,4.274,0,0,1,392.587,290.8Z" transform="translate(-390 -271.337)"/><path class="e" d="M415.711,280.96a4.16,4.16,0,0,1-1.429,3.052c-.254.262-.389.144-.55-.11a4.023,4.023,0,0,1,.778-5.242c.3-.262.431-.186.583.118A4.572,4.572,0,0,1,415.711,280.96Z" transform="translate(-393.569 -269.852)"/><path class="e" d="M423.027,299.876c-.017.372.11.964-.254,1.133-.33.152-.778-.237-1.133-.482a3.85,3.85,0,0,1-1.657-4.058c.076-.355.186-.482.566-.313A3.8,3.8,0,0,1,423.027,299.876Z" transform="translate(-394.62 -272.569)"/><path class="e" d="M423.042,294.6a3.937,3.937,0,0,1-3.1-1.725c-.2-.245-.118-.372.144-.507a4,4,0,0,1,5.081,1.268c.2.3.135.406-.152.533A4.674,4.674,0,0,1,423.042,294.6Z" transform="translate(-394.609 -271.929)"/><path class="e" d="M426.765,299.28a3.757,3.757,0,0,1-3.686-2.528c-.169-.44.042-.482.372-.533a3.9,3.9,0,0,1,4.388,2.367c.228.49.1.676-.4.685C427.222,299.288,426.994,299.28,426.765,299.28Z" transform="translate(-395.103 -272.581)"/><path class="e" d="M411.34,283.7c0,1.031-.059,1.074-1.023.685a3.441,3.441,0,0,1-2.291-3.788c.051-.49.211-.626.71-.465A3.443,3.443,0,0,1,411.34,283.7Z" transform="translate(-392.782 -270.094)"/><path class="e" d="M409.159,270.375a4.259,4.259,0,0,1,.414-1.784c.127-.338.279-.431.626-.169a3.77,3.77,0,0,1,1.048,4.785c-.144.271-.245.364-.541.152A3.856,3.856,0,0,1,409.159,270.375Z" transform="translate(-392.96 -268.271)"/><path class="e" d="M401.314,297.441a2.91,2.91,0,0,1-2.663,3.018c-.473.068-.659-.051-.651-.566a2.912,2.912,0,0,1,2.553-3.1C401.272,296.663,401.331,296.714,401.314,297.441Z" transform="translate(-391.236 -272.67)"/><path class="e" d="M402.909,277.827c-.017-.761.008-.778.736-.524a3.47,3.47,0,0,1,2.477,3.542c-.008.473-.161.55-.592.414A3.476,3.476,0,0,1,402.909,277.827Z" transform="translate(-391.994 -269.644)"/><path class="e" d="M407.471,285.608a3.4,3.4,0,0,1-3.356-2.68c-.068-.287-.025-.4.3-.431a3.463,3.463,0,0,1,3.7,2.646C408.275,285.887,407.666,285.49,407.471,285.608Z" transform="translate(-392.177 -270.467)"/><path class="e" d="M418.954,282.309a3.44,3.44,0,0,1-1.463,2.57c-.228.186-.338.093-.473-.127a3.49,3.49,0,0,1,1.057-4.43c.237-.161.355-.118.457.127A4.53,4.53,0,0,1,418.954,282.309Z" transform="translate(-394.114 -270.119)"/><path class="e" d="M418.784,270.739a3.274,3.274,0,0,1-1.7,2.858c-.254.169-.414.11-.49-.177a3.33,3.33,0,0,1,1.5-4.126c.271-.169.4-.11.482.186A4.911,4.911,0,0,1,418.784,270.739Z" transform="translate(-394.08 -268.415)"/><path class="e" d="M429.036,277.3a3.288,3.288,0,0,1-2.748,3.179c-.38.076-.524.008-.5-.406a3.339,3.339,0,0,1,2.655-3.2C428.96,276.753,429.07,276.829,429.036,277.3Z" transform="translate(-395.531 -269.593)"/><path class="e" d="M422.1,274.447a3.286,3.286,0,0,1,2.756-3.12c.372-.068.465.059.465.414a3.349,3.349,0,0,1-2.807,3.247C421.947,275.072,422.124,274.683,422.1,274.447Z" transform="translate(-394.96 -268.741)"/><path class="e" d="M402.58,298.887a3.153,3.153,0,0,1,2.131-3.061c.321-.127.457-.118.516.287a3.153,3.153,0,0,1-1.86,3.466c-.668.338-.761.279-.786-.448Z" transform="translate(-391.944 -272.519)"/><path class="e" d="M429.384,294.374A3.316,3.316,0,0,1,426.62,293c-.211-.262-.1-.372.161-.5a3.263,3.263,0,0,1,4.075.938c.22.287.2.448-.144.592A3.594,3.594,0,0,1,429.384,294.374Z" transform="translate(-395.642 -271.963)"/><path class="e" d="M395.567,292.11c.406.085,1.057-.11,1.251.406.178.465-.364.778-.676,1.1a3.011,3.011,0,0,1-3.272.6c-.347-.152-.211-.347-.085-.524A3.128,3.128,0,0,1,395.567,292.11Z" transform="translate(-390.409 -271.955)"/><path class="e" d="M431.969,286.91a3.04,3.04,0,0,1-2.029-.719c-.254-.194-.194-.33.042-.516a2.838,2.838,0,0,1,3.568.127c.22.2.245.347-.017.516A3.051,3.051,0,0,1,431.969,286.91Z" transform="translate(-396.147 -270.873)"/><path class="c" d="M416.709,296.19c0,2.748-.025,5.5.008,8.243a3.729,3.729,0,0,1-2.477,3.847,1.132,1.132,0,0,0-.643.693,9.208,9.208,0,0,0-.558,3.128,19.559,19.559,0,0,0,.364,5.436,5.747,5.747,0,0,0,.186.651c.313.93.313.93-.719.93-1.065,0-2.131-.008-3.2.008-.448.008-.524-.085-.321-.516a8.847,8.847,0,0,0,.685-3.17,18.618,18.618,0,0,0-.287-5.808,2.081,2.081,0,0,0-1.226-1.556,3.382,3.382,0,0,1-2.063-3.348c.034-3.424.076-6.848.093-10.272.008-2.054.042-4.1-.11-6.146-.025-.33-.008-.659-.025-.981-.017-.3.178-.389.414-.431.321-.059.313.186.347.38.33,1.919.609,3.838.837,5.774.22,1.877.423,3.745.524,5.631.008.144.034.287.051.431.017.169.051.33.271.347.245.017.33-.127.347-.338.051-.533.1-1.065.135-1.6.211-3.458.313-6.924.2-10.391,0-.085-.008-.161-.008-.245-.008-.22.017-.414.3-.44.3-.025.38.161.406.414.152,1.361.33,2.731.465,4.092.271,2.655.482,5.309.575,7.973.008.2-.178.566.313.549.414-.017.372-.3.38-.558.118-1.9.194-3.813.355-5.707.169-2.08.406-4.16.634-6.24.025-.237-.025-.583.389-.575s.33.347.33.592q-.063,4.616.127,9.224c.042.955.161,1.911.237,2.875.017.186.017.406.279.38.211-.017.2-.211.22-.38.245-2.257.465-4.523.744-6.772.2-1.666.465-3.331.71-4.988.034-.237-.042-.583.406-.524.406.051.347.347.33.609A82.107,82.107,0,0,0,416.709,296.19Z" transform="translate(-392.537 -271.073)"/></g></g><g transform="translate(4907.437 1505.662)"><path class="c" d="M525.623,273.854a.862.862,0,0,1-.8.845,37.593,37.593,0,0,0-7.169-.609c-20.654,0-28.957,11.743-28.957,17.07a.457.457,0,0,1-.516.473c-.989,0-3.018-1.885-3.018-4.718,0-6.51,10.568-15.286,26.742-15.286C523.315,271.639,525.623,273.38,525.623,273.854Zm-13.392,3.72c0,.237-.473.609-1.319,1.463-3.728,3.771-10.94,18.532-10.94,29.286,0,4.532,1.37,4.667,1.37,5,0,.473-.609.989-1.556.989-2.6,0-5.047-2.122-5.047-6.882,0-13.35,13.865-31.273,16.038-31.273A1.782,1.782,0,0,1,512.231,277.574Z" transform="translate(-485.16 -271.63)"/><path class="c" d="M517.7,314.388c-2.925,0-5.707-1.792-5.707-5.521,0-5.944,5.758-10.517,9.105-10.517a3.47,3.47,0,0,1,2.782,3.069c-.051,3.069-3.492,6.51-5.986,6.51a4.407,4.407,0,0,1-1.513-.516,8.2,8.2,0,0,0-.609,3.255c0,1.412.516,1.885,1.133,1.885,3.2,0,7.406-4.9,9.714-8.159.186-.237.288-.38.423-.38a.949.949,0,0,1,.8.845,1.881,1.881,0,0,1-.38.947C525.72,308.352,520.808,314.388,517.7,314.388ZM517,305.9c1.226,0,5.047-3.678,5.14-4.954,0-.186-.093-.33-.237-.33C521.375,300.616,519.354,301.749,517,305.9Z" transform="translate(-489.307 -275.76)"/><path class="c" d="M531.584,313.457c-1.649,0-4.244-1.792-4.244-5.614,0-8.3,11.507-23.013,11.6-28.864,0-.659.186-1.04.566-1.04s1.742,1.412,1.742,3.821c0,5.377-10.137,21.787-10.137,28.864,0,.609.33.938.71.938,1.226,0,6.036-6.366,8.818-10.331.186-.237.279-.38.423-.38a.949.949,0,0,1,.8.845,1.881,1.881,0,0,1-.381.947C539.362,306.144,534.788,313.457,531.584,313.457Z" transform="translate(-491.679 -272.605)"/><path class="c" d="M545.364,313.457c-1.649,0-4.244-1.792-4.244-5.614,0-8.3,11.507-23.013,11.6-28.864,0-.659.186-1.04.566-1.04s1.742,1.412,1.742,3.821c0,5.377-10.137,21.787-10.137,28.864,0,.609.33.938.71.938,1.226,0,6.037-6.366,8.818-10.331.186-.237.287-.38.423-.38a.949.949,0,0,1,.8.845,1.88,1.88,0,0,1-.38.947C553.142,306.144,548.568,313.457,545.364,313.457Z" transform="translate(-493.809 -272.605)"/><path class="c" d="M568.12,311.138a3.567,3.567,0,0,1-3.678-3.771c-.144.33-3.255,7.355-6.789,7.355a3.845,3.845,0,0,1-3.864-3.678c.051-4.667,4.625-9.241,6.129-13.722a.637.637,0,0,1,.567-.473c.947,0,2.122,1.319,2.122,3.018,0,2.029-4.151,8.209-4.151,11.65,0,.423.237.659.566.659.752,0,2.266-2.029,4.9-6.654,2.308-4.058,2.688-6.51,4.007-6.51a2.533,2.533,0,0,1,2.215,2.359c0,1.936-2.308,4.193-2.308,6.6a.757.757,0,0,0,.753.8c1.04,0,3.162-2.689,4.718-4.625.186-.237.279-.38.423-.38a.949.949,0,0,1,.8.845,1.881,1.881,0,0,1-.381.947C573.075,307.274,570.428,311.138,568.12,311.138Z" transform="translate(-495.767 -275.528)"/><path class="c" d="M576.817,305.454c-.237,0-.947-.423-.947-.9a2.881,2.881,0,0,1,.516-.947c1.835-2.739,3.255-5.284,3.255-5.284a5.993,5.993,0,0,1-1.175-2.739c0-2.359,2.215-5.047,3.348-5.047a1.726,1.726,0,0,1,1.513,1.792c0,1.37-1.175,3.492-1.835,4.625,0,1.513,3.678,3.678,3.678,5.85,0,2.308-2.359,5.326-2.359,8.3,0,.473.287.71.566.71,1.463,0,6.222-6.273,7.922-8.632.186-.237.287-.38.423-.38a.949.949,0,0,1,.8.845,1.881,1.881,0,0,1-.38.947c-1.606,2.359-6.18,9.292-9.292,9.292a4.467,4.467,0,0,1-4.625-4.151c0-3.914,3.864-6.6,3.864-8.818,0-.609-.144-.659-1.226-1.513,0,0-1.226,2.071-3.534,5.563C577.147,305.259,577,305.454,576.817,305.454Z" transform="translate(-499.179 -274.553)"/><path class="c" d="M596.362,312.673a4.678,4.678,0,0,1-4.532-4.9c0-3.4,3.111-5.757,5.986-10.517.33-.566.474-.989.8-.989.381,0,1.133.845,1.133,1.742-.093,4.1-4.2,8.3-4.295,11.794,0,.8.423,1.04.8,1.04,1.226,0,5.85-5.521,7.457-7.787.186-.237.279-.38.423-.38a.949.949,0,0,1,.8.845,1.881,1.881,0,0,1-.38.947C603.244,306.73,599,312.673,596.362,312.673Zm6.7-21.322a1.618,1.618,0,0,1-1.319,1.513,2.238,2.238,0,0,1-2.122-2.029,1.161,1.161,0,0,1,1.277-1.175C601.781,289.652,603.058,290.218,603.058,291.351Z" transform="translate(-501.646 -274.417)"/><path class="c" d="M624.092,301.2c.186-.237.288-.38.423-.38a.949.949,0,0,1,.8.845,1.881,1.881,0,0,1-.38.947c-1.606,2.359-4.337,6.654-6.18,6.654-2.832,0-3.821-1.978-3.821-5.563-2.545,2.782-5.233,8.209-8.252,8.209a4.354,4.354,0,0,1-3.585-4.058c0-6.459,6.789-12.639,10.94-12.639,1.184,0,2.08.845,2.08,1.319,0,.287-1.133.753-2.215,1.742-2.08,1.885-7.313,6.51-7.313,10.991,0,.33.144.566.423.566,1.082,0,7.778-8.683,9.909-12.31a62.384,62.384,0,0,0,6.882-18.4c.237-1.175.287-1.463.752-1.463,1.04,0,3.111,1.742,3.111,4.718,0,4.337-9.858,18.253-9.858,23.681,0,.8.237,1.37.71,1.37C619.561,307.42,622.393,303.556,624.092,301.2Z" transform="translate(-503.388 -272.562)"/><path class="c" d="M632.237,314.388c-2.925,0-5.707-1.792-5.707-5.521,0-5.944,5.757-10.517,9.106-10.517a3.471,3.471,0,0,1,2.781,3.069c-.051,3.069-3.492,6.51-5.986,6.51a4.408,4.408,0,0,1-1.513-.516,8.2,8.2,0,0,0-.609,3.255c0,1.412.516,1.885,1.133,1.885,3.2,0,7.406-4.9,9.714-8.159.186-.237.288-.38.423-.38a.949.949,0,0,1,.8.845,1.881,1.881,0,0,1-.38.947C640.26,308.352,635.348,314.388,632.237,314.388Zm-.7-8.488c1.226,0,5.047-3.678,5.14-4.954,0-.186-.093-.33-.237-.33C635.914,300.616,633.894,301.749,631.535,305.9Z" transform="translate(-507.009 -275.76)"/><path class="c" d="M679.13,290.169a.967.967,0,0,1-.8-.71c0-.566,5.614-6.223,5.614-11.084,0-1.556-.752-2.173-1.843-2.173-10,0-23.064,18.017-23.064,31.273,0,4.481,2.266,6.087,5.09,6.087,8.911,0,18.913-10.991,20.468-12.927.186-.237.33-.38.423-.38.423,0,.609.566.609,1.184S674.683,316.2,665.155,316.2a11.091,11.091,0,0,1-10.8-11.177c0-15.472,15.751-30.943,26.268-30.943,4.625,0,6.561,2.832,6.561,6.324C687.2,285.6,680.407,290.169,679.13,290.169Z" transform="translate(-511.308 -272.009)"/><path class="c" d="M700.751,309.466a3.46,3.46,0,0,1-3.441-3.441c0-3.771,4.058-7.55,4.058-8.632a.214.214,0,0,0-.186-.237c-.617,0-6.933,5.707-9.765,10.517-1.835,3.111-2.122,4.151-2.638,4.151s-1.37-.989-1.37-2.6c0-7.406,10.847-21.88,10.847-31.079,0-.423.186-.71.516-.71.8,0,3.255,1.7,3.255,4.295,0,6.933-7.5,15.565-9.013,20.942,3.678-4.337,7.026-7.448,9.579-7.448a2.779,2.779,0,0,1,2.739,2.782c0,3.111-5.047,6.273-5.047,8.962,0,.473.237.659.516.659,1.226,0,5-4.43,6.51-6.459.186-.237.287-.38.423-.38a.949.949,0,0,1,.8.845,1.88,1.88,0,0,1-.38.947C706.838,304.6,703.059,309.466,700.751,309.466Z" transform="translate(-516.418 -272.528)"/><path class="c" d="M715.257,314.388c-2.925,0-5.707-1.792-5.707-5.521,0-5.944,5.757-10.517,9.105-10.517a3.471,3.471,0,0,1,2.781,3.069c-.051,3.069-3.492,6.51-5.986,6.51a4.407,4.407,0,0,1-1.513-.516,8.2,8.2,0,0,0-.609,3.255c0,1.412.516,1.885,1.133,1.885,3.2,0,7.406-4.9,9.714-8.159.186-.237.279-.38.423-.38a.949.949,0,0,1,.8.845,1.881,1.881,0,0,1-.38.947C723.272,308.352,718.368,314.388,715.257,314.388Zm-.71-8.488c1.226,0,5.047-3.678,5.14-4.954,0-.186-.093-.33-.237-.33C718.934,300.616,716.905,301.749,714.547,305.9Z" transform="translate(-519.84 -275.76)"/><path class="c" d="M730.565,309.114a19,19,0,0,1,1.7,7.685c0,7.5-4.194,14.051-6.654,14.051-3.069,0-5.191-2.875-5.191-7.5,0-13.865,12.073-35.23,12.073-44.048a.424.424,0,0,1,.473-.473c1.463,0,3.255,2.071,3.255,5.326,0,3.635-4.388,11.887-7.778,22.117a2.332,2.332,0,0,0,2.029.989c2.638,0,5.8-3.585,7.448-5.893.186-.237.287-.38.423-.38a.949.949,0,0,1,.8.845,1.881,1.881,0,0,1-.381.947C737.456,304.777,734.108,309.114,730.565,309.114Zm-2.832-.524a65.12,65.12,0,0,0-3.162,18.913c0,.71.186,1.319.8,1.319.989,0,3.255-5.326,3.255-13.206A25.036,25.036,0,0,0,727.733,308.59Z" transform="translate(-521.52 -272.743)"/></g></g></svg>