<svg xmlns="http://www.w3.org/2000/svg" width="20.134" height="30" viewBox="0 0 20.134 30"><defs><style>.a{fill:#383027;}</style></defs><g transform="translate(0 0)"><path class="a" d="M13,23.1l3.862-5.267c1.727-2.354,3.277-4.72,3.277-7.763A10.079,10.079,0,0,0,10.109,0h-.042A10.078,10.078,0,0,0,0,10.067c0,3.043,1.55,5.409,3.277,7.763L7.139,23.1H2.648L.046,30H20.089l-2.6-6.9Zm-8.3-6.307C3.088,14.6,1.758,12.581,1.758,10.067a8.318,8.318,0,0,1,8.269-8.309h.04a8.319,8.319,0,0,1,8.309,8.309c0,2.515-1.33,4.533-2.936,6.724l-5.366,7.338ZM2.587,28.242l1.277-3.387H8.427l1.624,2.214s1.357-1.786,1.669-2.214h4.551l1.277,3.387Zm0,0"/><path class="a" d="M78.4,72.2a6.2,6.2,0,1,0-6.2,6.2A6.207,6.207,0,0,0,78.4,72.2Zm-6.2,4.441A4.442,4.442,0,1,1,76.641,72.2,4.447,4.447,0,0,1,72.2,76.641Zm0,0" transform="translate(-62.131 -62.133)"/></g></svg>