<svg xmlns="http://www.w3.org/2000/svg" width="30" height="30" viewBox="0 0 30 30"><defs><style>.a{fill:#383027;}</style></defs><path class="a" d="M10.2,14.063H3.867A3.872,3.872,0,0,1,0,10.2V3.867A3.872,3.872,0,0,1,3.867,0H10.2a3.872,3.872,0,0,1,3.867,3.867V10.2A3.872,3.872,0,0,1,10.2,14.063ZM3.867,1.875A1.994,1.994,0,0,0,1.875,3.867V10.2a1.994,1.994,0,0,0,1.992,1.992H10.2A1.994,1.994,0,0,0,12.188,10.2V3.867A1.994,1.994,0,0,0,10.2,1.875Z"/><path class="a" d="M282.2,14.063h-6.328A3.872,3.872,0,0,1,272,10.2V3.867A3.872,3.872,0,0,1,275.867,0H282.2a3.872,3.872,0,0,1,3.867,3.867V10.2A3.872,3.872,0,0,1,282.2,14.063ZM275.867,1.875a1.994,1.994,0,0,0-1.992,1.992V10.2a1.994,1.994,0,0,0,1.992,1.992H282.2a1.994,1.994,0,0,0,1.992-1.992V3.867A1.994,1.994,0,0,0,282.2,1.875Z" transform="translate(-256.062)"/><path class="a" d="M279.031,286.063a7.031,7.031,0,1,1,7.031-7.031A7.039,7.039,0,0,1,279.031,286.063Zm0-12.188a5.156,5.156,0,1,0,5.156,5.156A5.162,5.162,0,0,0,279.031,273.875Z" transform="translate(-256.062 -256.062)"/><path class="a" d="M10.2,286.063H3.867A3.872,3.872,0,0,1,0,282.2v-6.328A3.872,3.872,0,0,1,3.867,272H10.2a3.872,3.872,0,0,1,3.867,3.867V282.2A3.872,3.872,0,0,1,10.2,286.063ZM3.867,273.875a1.994,1.994,0,0,0-1.992,1.992V282.2a1.994,1.994,0,0,0,1.992,1.992H10.2a1.994,1.994,0,0,0,1.992-1.992v-6.328a1.994,1.994,0,0,0-1.992-1.992Z" transform="translate(0 -256.062)"/></svg>