<svg xmlns="http://www.w3.org/2000/svg" width="29.999" height="30" viewBox="0 0 29.999 30"><defs><style>.a{fill:#383027;}</style></defs><g transform="translate(-0.011)"><g transform="translate(0.011 0)"><path class="a" d="M29.238,22.127,25.509,18.4a2.64,2.64,0,0,0-3.729,0l-1.7,1.7a2,2,0,0,1-2.825,0L9.911,12.739a2,2,0,0,1,0-2.825l1.7-1.7a2.636,2.636,0,0,0,0-3.73L7.877.771a2.639,2.639,0,0,0-3.727,0L2.792,2.116a9.52,9.52,0,0,0,0,13.448L14.433,27.212a9.5,9.5,0,0,0,13.449,0l1.356-1.356A2.64,2.64,0,0,0,29.238,22.127ZM5.391,2.015a.88.88,0,0,1,1.244,0l3.728,3.717a.879.879,0,0,1,0,1.243L9.742,7.6,4.772,2.628ZM15.677,25.97,4.035,14.321A7.728,7.728,0,0,1,3.55,3.891L8.5,8.846a3.752,3.752,0,0,0,.163,5.136l7.347,7.354h0a3.752,3.752,0,0,0,5.136.164l4.955,4.955A7.714,7.714,0,0,1,15.677,25.97ZM28,24.613l-.622.622L22.4,20.262l.622-.622a.88.88,0,0,1,1.243,0L28,23.37A.88.88,0,0,1,28,24.613Z" transform="translate(-0.011 0)"/></g></g></svg>