<svg xmlns="http://www.w3.org/2000/svg" width="20" height="34.237" viewBox="0 0 20 34.237"><defs><style>.a{fill:#383027;}</style></defs><g transform="translate(147.244 0) rotate(90)"><g transform="translate(0 127.244)"><g transform="translate(0 0)"><path class="a" d="M33.817,127.666a1.428,1.428,0,0,0-2.026,0l-14.672,16.1-14.673-16.1a1.428,1.428,0,0,0-2.026,0,1.445,1.445,0,0,0,0,2.036l15.614,17.132a1.413,1.413,0,0,0,1.085.408,1.411,1.411,0,0,0,1.085-.408L33.817,129.7A1.443,1.443,0,0,0,33.817,127.666Z" transform="translate(0 -127.244)"/></g></g></g></svg>