<svg xmlns="http://www.w3.org/2000/svg" width="20" height="20" viewBox="0 0 20 20"><defs><style>.a{fill:#383027;}</style></defs><path class="a" d="M10,0A10,10,0,1,0,20,10,9.994,9.994,0,0,0,10,0ZM6.131,2.061a22.811,22.811,0,0,0-.762,2.512A15.8,15.8,0,0,1,3.6,3.917,8.852,8.852,0,0,1,6.131,2.061Zm-3.3,2.792a16.992,16.992,0,0,0,2.3.869,23.125,23.125,0,0,0-.387,3.692H1.191A8.744,8.744,0,0,1,2.826,4.853Zm0,10.294a8.744,8.744,0,0,1-1.634-4.561H4.735a23.125,23.125,0,0,0,.387,3.692A16.994,16.994,0,0,0,2.826,15.147Zm.776.936a15.784,15.784,0,0,1,1.767-.655,22.819,22.819,0,0,0,.762,2.512A8.853,8.853,0,0,1,3.6,16.083Zm5.812,2.726a8.831,8.831,0,0,1-1.8-.306A21.711,21.711,0,0,1,6.5,15.129a15.91,15.91,0,0,1,2.911-.372Zm0-5.223a17.083,17.083,0,0,0-3.154.4,21.964,21.964,0,0,1-.352-3.4H9.414Zm0-4.171H5.908a21.964,21.964,0,0,1,.352-3.4,17.083,17.083,0,0,0,3.154.4Zm0-4.172A15.91,15.91,0,0,1,6.5,4.871,21.711,21.711,0,0,1,7.612,1.5a8.831,8.831,0,0,1,1.8-.306Zm7.76-.389a8.744,8.744,0,0,1,1.634,4.561H15.265a23.125,23.125,0,0,0-.387-3.692A16.994,16.994,0,0,0,17.174,4.853ZM16.4,3.917a15.784,15.784,0,0,1-1.767.655,22.819,22.819,0,0,0-.762-2.512A8.853,8.853,0,0,1,16.4,3.917ZM10.586,1.191a8.831,8.831,0,0,1,1.8.306A21.712,21.712,0,0,1,13.5,4.871a15.91,15.91,0,0,1-2.911.372Zm0,5.223a17.083,17.083,0,0,0,3.154-.4,21.964,21.964,0,0,1,.352,3.4H10.586Zm1.8,12.088a8.828,8.828,0,0,1-1.8.306V14.758a15.91,15.91,0,0,1,2.911.372A21.71,21.71,0,0,1,12.388,18.5Zm-1.8-4.918v-3h3.506a21.964,21.964,0,0,1-.352,3.4A17.083,17.083,0,0,0,10.586,13.585Zm3.283,4.354a22.811,22.811,0,0,0,.762-2.512,15.8,15.8,0,0,1,1.767.655A8.852,8.852,0,0,1,13.869,17.939Zm3.305-2.792a16.992,16.992,0,0,0-2.3-.869,23.125,23.125,0,0,0,.387-3.692h3.544A8.744,8.744,0,0,1,17.174,15.147Z"/></svg>