<svg xmlns="http://www.w3.org/2000/svg" width="162.292" height="40" viewBox="0 0 162.292 40"><defs><style>.a{fill:#383027;}.b{fill:none;stroke:#383027;stroke-linecap:round;}</style></defs><g transform="translate(-614.397 -1351)"><g transform="translate(675.471 1351)"><path class="a" d="M40,35.046a4.75,4.75,0,0,0-1.7-3.426l-8.457-7.047a3.718,3.718,0,0,0-4.077-.469l-4.1-4.1,3.952-3.952a6.9,6.9,0,0,0,4.215,1.468h.1a8.55,8.55,0,0,0,5.85-2.793A15.248,15.248,0,0,0,39.633,8.05c.741-2.8.351-5.137-1.1-6.586S34.749-.374,31.951.367a15.248,15.248,0,0,0-6.672,3.859,8.549,8.549,0,0,0-2.793,5.85,6.886,6.886,0,0,0,1.467,4.314L20,18.343,16.088,14.43l.829-.829a3.519,3.519,0,0,0,0-4.972L8.63.343A1.172,1.172,0,0,0,6.973,2l5.8,5.8L11.116,9.458l-5.8-5.8A1.172,1.172,0,0,0,3.658,5.315l5.8,5.8L7.8,12.773,2,6.972A1.172,1.172,0,0,0,.344,8.63L8.63,16.916a3.519,3.519,0,0,0,4.972,0l.829-.829L18.343,20l-4.026,4.026a3.718,3.718,0,0,0-4.077.469L1.784,31.542a4.739,4.739,0,0,0,3.035,8.38c.071,0,.142,0,.213,0a4.75,4.75,0,0,0,3.426-1.7l7.047-8.457a3.718,3.718,0,0,0,.469-4.077L20,21.657l4.1,4.1a3.718,3.718,0,0,0,.469,4.077l7.047,8.457A4.75,4.75,0,0,0,35.046,40q.107,0,.213,0A4.739,4.739,0,0,0,40,35.046ZM26.936,5.883a13.022,13.022,0,0,1,5.615-3.251,7.908,7.908,0,0,1,2-.286,3.215,3.215,0,0,1,2.326.775c.821.821,1,2.4.489,4.329a13.022,13.022,0,0,1-3.251,5.615c-2.594,2.594-5.485,2.8-7.734.552s-2.042-5.14.552-7.734ZM10.287,15.259l-.829-.829,4.972-4.972.829.829a1.173,1.173,0,0,1,0,1.657l-3.315,3.315A1.173,1.173,0,0,1,10.287,15.259ZM13.62,26.38a1.388,1.388,0,0,1,.085,1.879l-.691.83-2.1-2.1.83-.691A1.388,1.388,0,0,1,13.62,26.38ZM7.992,35.115,4.885,32.009,9.1,28.493l2.4,2.4Zm-3.066,2.46a2.4,2.4,0,0,1-1.839-4.05l3.387,3.387a2.364,2.364,0,0,1-1.548.663Zm27.161-2.382-3.515-4.219,2.4-2.4,4.219,3.515Zm-4.643-9.146a1.392,1.392,0,0,1,.893.326l.83.691-2.1,2.1-.691-.83a1.4,1.4,0,0,1,1.071-2.29Zm9.511,10.907a2.4,2.4,0,0,1-3.351.036L36.991,33.6a2.4,2.4,0,0,1-.036,3.351Z" transform="translate(-0.001 0)"/></g><path class="b" d="M697.089,1359.477a32.662,32.662,0,0,1,17.518-2.4c10.092,1.338,21.516,8.511,34.655,5.35" transform="translate(26.826 10.715)"/><path class="b" d="M749.261,1359.477a32.662,32.662,0,0,0-17.518-2.4c-10.092,1.338-21.516,8.511-34.655,5.35" transform="translate(-82.088 10.715)"/></g></svg>