<svg xmlns="http://www.w3.org/2000/svg" width="121.168" height="129.283" viewBox="0 0 121.168 129.283"><defs><style>.a{fill:#319647;}</style></defs><g transform="translate(-739.712 -517.416)"><path class="a" d="M27.826,34c.09-14.1-6.647-23.714-15.181-32.427C9.95-1.216,8.513.041,6.806,2.736-4.782,21.061-1.278,44.056,15.07,58.429c3.144,2.785,4.581,1.976,6.2-1.258C25.041,49.446,28.275,41.631,27.826,34Z" transform="translate(821.597 618.835) rotate(91)"/><path class="a" d="M53.3,67.875C51.928,40.46,38.22,21.1,21.235,3.32,15.868-2.36,13.306-.057,10.394,5.015-9.373,39.5-.278,84.566,32.007,114.127c6.211,5.725,8.823,4.295,11.507-1.834C49.757,97.643,54.979,82.766,53.3,67.875Z" transform="translate(860.88 600.67) rotate(135)"/></g></svg>