<svg xmlns="http://www.w3.org/2000/svg" width="20" height="20" viewBox="0 0 20 20"><defs><style>.a{fill:#383027;}</style></defs><path class="a" d="M210.828,208.914A1.914,1.914,0,1,1,208.914,207,1.914,1.914,0,0,1,210.828,208.914Zm0,0" transform="translate(-198.914 -198.914)"/><path class="a" d="M144.669,136.81a1.9,1.9,0,0,0-1.09-1.09,3.177,3.177,0,0,0-1.066-.2c-.606-.028-.787-.034-2.32-.034s-1.715.006-2.32.033a3.179,3.179,0,0,0-1.066.2,1.9,1.9,0,0,0-1.09,1.09,3.178,3.178,0,0,0-.2,1.066c-.028.605-.034.787-.034,2.32s.006,1.715.034,2.32a3.177,3.177,0,0,0,.2,1.066,1.9,1.9,0,0,0,1.09,1.09,3.173,3.173,0,0,0,1.066.2c.605.028.787.033,2.32.033s1.715-.006,2.32-.033a3.173,3.173,0,0,0,1.066-.2,1.9,1.9,0,0,0,1.09-1.09,3.18,3.18,0,0,0,.2-1.066c.028-.606.033-.787.033-2.32s-.006-1.715-.033-2.32A3.173,3.173,0,0,0,144.669,136.81Zm-4.476,6.335a2.949,2.949,0,1,1,2.949-2.949A2.949,2.949,0,0,1,140.192,143.145Zm3.065-5.325a.689.689,0,1,1,.689-.689A.689.689,0,0,1,143.258,137.82Zm0,0" transform="translate(-130.192 -130.196)"/><path class="a" d="M10,0A10,10,0,1,0,20,10,10,10,0,0,0,10,0Zm5.708,12.367a4.213,4.213,0,0,1-.267,1.394,2.936,2.936,0,0,1-1.679,1.679,4.216,4.216,0,0,1-1.394.267c-.612.028-.808.035-2.367.035s-1.755-.007-2.368-.035a4.216,4.216,0,0,1-1.394-.267,2.936,2.936,0,0,1-1.679-1.679,4.212,4.212,0,0,1-.267-1.394c-.028-.612-.035-.808-.035-2.368s.007-1.755.035-2.367a4.213,4.213,0,0,1,.267-1.394,2.938,2.938,0,0,1,1.68-1.679,4.217,4.217,0,0,1,1.394-.267c.612-.028.808-.035,2.367-.035s1.755.007,2.367.035a4.218,4.218,0,0,1,1.394.267,2.937,2.937,0,0,1,1.679,1.68,4.213,4.213,0,0,1,.267,1.394c.028.612.034.808.034,2.367S15.736,11.755,15.708,12.367Zm0,0"/></svg>