<svg xmlns="http://www.w3.org/2000/svg" width="13.423" height="20" viewBox="0 0 13.423 20"><defs><style>.a{fill:#383027;}</style></defs><g transform="translate(0 0)"><path class="a" d="M8.664,15.4l2.575-3.512c1.151-1.57,2.184-3.147,2.184-5.175A6.719,6.719,0,0,0,6.739,0H6.711A6.719,6.719,0,0,0,0,6.711c0,2.029,1.033,3.606,2.184,5.175L4.759,15.4H1.766L.031,20H13.393l-1.735-4.6Zm-5.534-4.2C2.059,9.733,1.172,8.388,1.172,6.711A5.545,5.545,0,0,1,6.685,1.171h.027a5.546,5.546,0,0,1,5.54,5.539c0,1.677-.887,3.022-1.957,4.482L6.716,16.085Zm-1.4,7.634.851-2.258H5.618L6.7,18.046s.9-1.19,1.113-1.476h3.034l.851,2.258Zm0,0"/><path class="a" d="M74.265,70.133a4.133,4.133,0,1,0-4.133,4.133A4.138,4.138,0,0,0,74.265,70.133Zm-4.133,2.961a2.961,2.961,0,1,1,2.961-2.961A2.964,2.964,0,0,1,70.132,73.094Zm0,0" transform="translate(-63.42 -63.422)"/></g></svg>