<svg xmlns="http://www.w3.org/2000/svg" width="245.526" height="60" viewBox="0 0 245.526 60"><defs><style>.a{fill:#c8b796;}.b{fill:#67523d;}.c{fill:#383027;}.d{fill:#fdfdfd;}.e{fill:#319647;}</style></defs><g transform="translate(-4797.696 -1494.718)"><g transform="translate(4797.696 1494.718)"><path class="a" d="M380.293,316.356a8.139,8.139,0,0,1,1.769,1.148,28.713,28.713,0,0,1,4.68,3.57,6.534,6.534,0,0,0,1.034,1.059c.019.279.171.368.431.3H388.2a2.365,2.365,0,0,0,1.376.843c.051.044.1.089.146.14a.261.261,0,0,0,.266.285c.063.082.127.165.2.247a.58.58,0,0,0,.006.1.7.7,0,0,1,.044-.1c.2.019.285.184.419.3-.063.057-.127.12-.19.178-.1.336-.425.431-.558.19-.2-.342-.495-.247-.736-.361-.019-.032.019-.146-.082-.057a.644.644,0,0,1,.1.044c.266,1.509-.824,2.188-1.8,2.942-.076-.051-.3.032-.114-.222.3-.4.793-.71.748-1.42a4.1,4.1,0,0,1-1.9,1.1c-.742.184-1.376-.368-2.105-.419a.73.73,0,0,0,.495.571,3.534,3.534,0,0,0,1.725.412c.235,0,.577-.171.7.222h.006c-.114-.019-.222-.019-.273.108l-.266.038-1.357-.19a7.266,7.266,0,0,1-3.247-3.545c.057-.057.013-.285.19-.133s.311.33.469.488c.755.774,1.427,1.693,2.7,1.554.729.044,1.446.063,1.807-.774a1.753,1.753,0,0,0-.533-2.226c-.2-.209-.374-.45-.564-.678-.076-.14-.114-.349-.355-.184.063-.342-.216-.463-.412-.628a.112.112,0,0,0-.057-.082,14.956,14.956,0,0,0-2.771-1.89,8.657,8.657,0,0,0,2.606,2.042.118.118,0,0,0,.1.044l.019.228a1.279,1.279,0,0,0-.666.127c-.12-.33-.463-.038-.64-.228a8.471,8.471,0,0,0-2.213-1.471,22.634,22.634,0,0,0-2.276-1.325c-.019-.089-.006-.2-.057-.254a9.4,9.4,0,0,0-3.564-2.08l-.831-.247a2.33,2.33,0,0,0-1.084-.349,1.218,1.218,0,0,0-.159-.076c-.013-.006-.038.044-.057.063.063.019.12.032.184.051-.089.051-.184.1-.273.146a7.886,7.886,0,0,0-1.769-.159,19.253,19.253,0,0,1-3.621-.355c-.894-.33-1.471-1.122-2.3-1.554a.937.937,0,0,1-.507-.824.979.979,0,0,1,.082-.076,7.79,7.79,0,0,0,5.016,1.528.866.866,0,0,0,.945-.545,1.163,1.163,0,0,0-.184-1.23,26.229,26.229,0,0,0-2.847-2.784,3.13,3.13,0,0,1-1.363-1.737l.139.139.14.057c-.013-.051-.025-.108-.038-.159-.038-.051-.082-.1-.12-.146-.2-.317-.3-.729-.774-.767h0a1.108,1.108,0,0,0-.558-.977l.006.006a.8.8,0,0,0-.393-.729c-.14-.26-.285-.52-.425-.786a12.539,12.539,0,0,1-1.807-4.572,1.853,1.853,0,0,0-.425-1.065,38.2,38.2,0,0,1-.678-4.8c-.26.368-.1.7-.254.989a10.854,10.854,0,0,1-.057-1.807,5.264,5.264,0,0,0,.025-1.376c-.006-.089-.006-.184-.013-.273-.209-.45.108-.913-.025-1.37a1.668,1.668,0,0,0,.19-.8,15.833,15.833,0,0,1,.133-2.188,6.06,6.06,0,0,1,.438-1.82c.279.127.14.3.114.438a26.015,26.015,0,0,0-.26,4.813c.006.241-.114.59.311.647a20.5,20.5,0,0,1,.317,3.348c-.431.152-.178.469-.127.685a18.486,18.486,0,0,0,1.427,4.73c.533,1.034.9,2.15,1.522,3.158a19.921,19.921,0,0,0,3.1,4.045c.495.469.856,1.256,1.737,1.211l-.006-.006a13.9,13.9,0,0,0,3.424,3.05.7.7,0,0,1,.457.33.839.839,0,0,0,.1.184c1.522,1.725,3.576,2.7,5.466,3.925C380.014,316.413,380.16,316.6,380.293,316.356Zm-2.352-.7c-.006.1.051.133.14.133-.057.266-.387.019-.488.254.184.146.444.254.526.431.393.85,1.211,1.179,1.909,1.661.076.057.159.114.235.171a.267.267,0,0,0,.323.235c.3.2.615.406.919.609.152.108.361.19.457.019.076-.152-.127-.26-.279-.33.235-.355.14-.583-.222-.812-.7-.444-1.357-.945-2.042-1.414a4,4,0,0,0-1.338-.824c.006-.089-.051-.127-.14-.133-.076-.139-.165-.247-.355-.2C377.63,315.69,377.782,315.671,377.941,315.658Zm-8.865-.285c-.33-.33-.761-.247-1.154-.33a1.872,1.872,0,0,0,1.122.38,7.314,7.314,0,0,0,2.8-.051c.666-.469,1.477.032,2.156-.336.032.038.063.076.1.114.152.184.387-.114.558.108.216.279.577.247.875.33.216.057.552.216.653-.082.076-.222-.247-.33-.438-.444a2.835,2.835,0,0,0-.97-.3c-.349-.057-.355-.216-.178-.463a1.628,1.628,0,0,1,.85.171c.6.26,1.015.926,1.775.805a.524.524,0,0,0,.1.07c.006.006.032-.025.044-.038-.032-.025-.07-.044-.1-.07a7.682,7.682,0,0,1-1.9-1.439,4.061,4.061,0,0,0-1.687-1.363c-.057-.076-.159-.14-.222-.063-.1.1.051.127.108.178.1.3.469.406.52.736-.457.184-1.084.019-1.313.716a2.264,2.264,0,0,0-.539-1.135c-.412-.355-.653-.685-.14-1.173-.767-.006-1.059.323-.761.824a1.536,1.536,0,0,1,.235,1.458c-.038.1-.178.228-.006.349.222-.044.051-.526.342-.374.222.12.082.412-.038.615-.254.438-.755.469-1.141.691A5.567,5.567,0,0,0,369.076,315.373ZM363.9,301.214c-.019.4.006.774.457.907C364.206,301.822,364.054,301.518,363.9,301.214Zm20.018,24.837a.848.848,0,0,0-.089-.07c-.019.038-.051.076-.044.108a.112.112,0,0,0,.089.057C383.945,326.146,383.958,326.108,383.92,326.051Zm6.144-1.547.019-.044h-.032Z" transform="translate(-357.611 -268.599)"/><path class="a" d="M424.706,338.49c.133-.076.241-.209.425-.178l.38-.076c.038.038.07.082.108.12-.057.127-.216.2-.178.374a.122.122,0,0,0-.139.14c-.1-.006-.139.038-.146.133-.057.032-.12.063-.178.1s-.1.082-.152.12c-.089.051-.171.108-.26.159a3.15,3.15,0,0,0-.742.159,2.132,2.132,0,0,1-2.042-.171c-.4-.209-.685-.571-1.154-.805a7.313,7.313,0,0,0,.932,1.725c-.786-.108-1.1-.837-1.623-1.281-.507-.425-.311-1.091-.33-1.661.07,0,.127-.013.057-.1-.013.038-.032.07-.044.108-.875-.127-.653.659-.894,1.065l-.025-.025c-.159-.133.368-.717-.33-.495-.038-.19.368-.476-.12-.577.013-.1.076-.2-.038-.266v.006c.1.025.178-.006.178-.1s-.076-.127-.171-.1c-.076-.222.089-.285.235-.361.044.063.1.184.133.178.1-.013.108-.1.044-.178h.006a.141.141,0,0,0,.209.082.148.148,0,0,0,.07-.216h0c.082.165.19.089.3.025a3.629,3.629,0,0,0,1.649-1v.006a.166.166,0,0,0,.222-.14,30.022,30.022,0,0,1,7.007-5.6,1.116,1.116,0,0,1,.26-.07,5.567,5.567,0,0,0,2.359-1.4l-.013.006c.266-.114.539-.222.8-.342.609-.279,1.072-.8,1.706-1.04-.171.812-1.027.945-1.522,1.5a1.346,1.346,0,0,0,.818-.2c.482-.2.78-.989,1.5-.5a3.229,3.229,0,0,1,1-1.611,1.01,1.01,0,0,0,.412-.666,6.851,6.851,0,0,0-1.56,1.059c-.159.178-.279.5-.634.412-.076-.273.228-.355.279-.564l-.013.013.152-.152-.013.013.152-.152-.013.013.152-.152-.013.013c.051-.051.1-.1.146-.152l-.013.006c.235.038.178-.114.152-.241.07-.336.444-.254.615-.45.64-.032.977-.552,1.382-.919a25.221,25.221,0,0,0,2.3-2.137l-.013.006c.393.089.558-.285.843-.412a1.222,1.222,0,0,1,.089.1c-.019.323-.412.463-.444.8.247.139.406-.082.6-.082l.051.051c.374.266.653.14.938-.184.247-.279.393-.767.938-.609a.827.827,0,0,1-.393,1.078,17.374,17.374,0,0,0-3.278,3.158.932.932,0,0,0,.006,1.382c.14.057.279.12.419.178.184.355.533.235.793.216a7.787,7.787,0,0,0,4.673-1.674l.051.038a2.018,2.018,0,0,1-.767,1.021,6.767,6.767,0,0,1-2.448,1.167c-.222.057-.444.12-.659.178a13.745,13.745,0,0,0-2.91.2c.1.013.146.025.2.032l2.834.019h0a.375.375,0,0,1-.032.12c-1.56.114-3.126.089-4.673.323-.476-.431-.837.057-1.249.159l-.831.247a9.73,9.73,0,0,0-3.938,2.441c-1.2.9-2.619,1.458-3.8,2.4a3.28,3.28,0,0,1-1.217.755c-.025-.032-.057-.057-.082-.089-.3-.323-.317-.577.133-.8a8.384,8.384,0,0,0,.862-.564c.3.013.431-.228.6-.412a2.261,2.261,0,0,1,.812-.634,12.233,12.233,0,0,0,4.692-3.526c.057-.292-.583.342-.273-.273a.222.222,0,0,0,.235-.171c0-.013-.025-.051-.038-.051-.108.025-.2.07-.228.19a1.071,1.071,0,0,0-.323.1c-1.11.78-2.213,1.573-3.31,2.359-.089.063-.247.178-.228.235.184.672-.444.742-.767.938A6.655,6.655,0,0,0,425,333.449c-.583.33-1.3.514-1.509,1.281l.013-.013a4.468,4.468,0,0,0-1.769,2.137,1.6,1.6,0,0,0,.812,1.9A2.268,2.268,0,0,0,424.706,338.49Zm13.2-14.59c-.006.019-.019.032-.025.051l.019-.057.139-.14.044-.044c-.013.019-.025.032-.038.051Zm-.558.685c.146-.038.26-.108.273-.279.032-.025.146-.013.044-.1-.013.038-.019.07-.032.108-.184,0-.216.152-.285.266Zm1.129-1.319c-.114.013-.127.1-.127.19,0,.063.038.082.082.038a1.646,1.646,0,0,0,.159-.2C438.56,323.285,438.522,323.278,438.478,323.266Zm-19.784,13.753.032-.044-.044-.006Zm12.777-8.649c-.013.013-.032.019-.044.032.013.013.025.032.038.032s.025-.019.044-.025A.218.218,0,0,0,431.471,328.37Z" transform="translate(-378.353 -281.691)"/><path class="b" d="M361.179,286.279c-.425-.057-.3-.406-.311-.647a26.018,26.018,0,0,1,.26-4.813c.025-.139.165-.311-.114-.438a6.014,6.014,0,0,0-.437,1.82,15.767,15.767,0,0,0-.133,2.188,1.668,1.668,0,0,1-.19.8,1,1,0,0,0,.025,1.37c.006.089.006.184.013.273a1.632,1.632,0,0,0-.025,1.376,10.826,10.826,0,0,0,.057,1.807c.152-.292-.006-.628.254-.989a38.039,38.039,0,0,0,.678,4.8c.368.7-.184,1.338-.139,2.023-.3-.2-.089-.742-.558-.831-.019-.1-.032-.2-.051-.3-.019.013-.051.019-.051.032a.213.213,0,0,0,.108.266,2.271,2.271,0,0,0,.514,1.541c.019-.317.032-.514.038-.71.444.621.5,1.414.9,2.061.044.07.025.133-.013.228a1.318,1.318,0,0,0,.951,1.446l.051-.013h.051c-.139.209.786.057.146.431-.006-.013-.013-.032-.019-.044s-.019-.006-.032-.013l.057.057c-.063.336.52.044.418.425.12.165.222.209.279-.044a.167.167,0,0,1,.019-.133.8.8,0,0,1,.393.729c-.082-.057-.165-.12-.247-.178l-.127-.07a1.376,1.376,0,0,0,.044.152.93.93,0,0,0,.469.678c-.063-.26-.1-.425-.146-.59a1.088,1.088,0,0,1,.558.977c-.076.025-.228.051-.228.07a.215.215,0,0,0,.228.2.12.12,0,0,0,.14.133c.019.025.032.051.051.076,0-.013,0-.032-.006-.038a.128.128,0,0,0-.051-.025c-.044-.044-.089-.1-.133-.14v-.279c.469.038.583.444.774.767-.044.038-.082.07-.12.108a3.173,3.173,0,0,0,1.363,1.737,28.1,28.1,0,0,1,2.847,2.784,1.161,1.161,0,0,1,.184,1.23.866.866,0,0,1-.945.545,7.827,7.827,0,0,1-5.016-1.528c-.051-.089-.076-.216-.216-.19a.124.124,0,0,0-.076.082c-.013.159.114.152.216.184a.925.925,0,0,0,.507.824c.831.431,1.408,1.23,2.3,1.554.051.133.108.266.159.4.089.063.171.127.26.184-.038.152-.006.317-.285.19-.488-.222-1-.387-1.509-.571-.025-.139-.07-.279-.254-.241-.044.006-.12.1-.108.12.051.171.209.127.336.146.025.349.418.3.564.533-.1.019-.2.044-.311.063.013.019.025.044.038.051a.211.211,0,0,0,.279-.1,15.576,15.576,0,0,0,4.109.691c.235,0,.323.133.33.342a5.669,5.669,0,0,1-3.183-.209c-1.579-.545-3.285-.907-4.388-2.308a5.37,5.37,0,0,1-1.351-4.54c.1-.495-.1-1.059.311-1.49a4.834,4.834,0,0,0,.279,2.131v-.97a.98.98,0,0,1,.387,1.072c-.12.983.6,1.611.983,2.4a19.7,19.7,0,0,1-.805-4.768c.38.374.3.888.418,1.344.355,1.382.742,2.765,2.137,3.475a8.74,8.74,0,0,0,3.741.881c.3.013.634-.032.761-.355a.792.792,0,0,0-.273-.812c-.729-.805-1.649-1.414-2.435-2.15-2.131-1.985-4.217-4-5.3-6.8a.3.3,0,0,0-.032-.063c-1.661-2.226-2.257-4.87-2.815-7.495a49.764,49.764,0,0,1-.621-5.421c-.044-.431-.311-.869-.025-1.313a1.544,1.544,0,0,1,.26.9c.057,1.725.609,3.386.7,5.111,0,.051.07.1.165.222a3.994,3.994,0,0,1,.057-1.135,7.955,7.955,0,0,0,1.059,3.576c-.919-2.169-.7-4.489-1.129-6.772.406.114.139.482.387.615.019-.159.032-.292.044-.425.526-.5.222-1.084.152-1.642.114-1.534-.349-3.107.368-4.6.292-.615.1-.919-.609-.831-.013,0-.038-.051-.063-.089.184-.108.438.032.564-.184l-.006.006c.634-.12.52-.71.7-1.116l-.006.006A4.737,4.737,0,0,0,362,276.14c.273-.862.678-1.687.964-2.536a5.2,5.2,0,0,1,1.915-2.593c.089.139.171.279.26.412-1.439,1.173-2.042,2.885-2.689,4.5a36.313,36.313,0,0,0-.862,4.16,7.121,7.121,0,0,0-.3,2.035c-.1.082-.12.171-.019.266C361.217,283.685,361.2,284.985,361.179,286.279Zm-.52,8.034-.266-.7A.593.593,0,0,0,360.659,294.313Zm3.887,7.419c-.013-.019-.025-.032-.038-.051-.013.013-.038.032-.038.044s.019.032.032.051A.291.291,0,0,0,364.546,301.732Z" transform="translate(-356.309 -263.194)"/><path class="a" d="M364.109,266.561a5.144,5.144,0,0,0-1.915,2.593c-.279.85-.685,1.674-.964,2.536a4.657,4.657,0,0,1-1.275,1.953c.006-.285.266-.545.057-.907a1.1,1.1,0,0,1-1.465.545c-.628-.209-.843-.774-1.179-1.275-.19.374.235.685,0,1.059-.406-.247-.222-.774-.552-1.008a2.426,2.426,0,0,0,1.477,2.416c.051.063.089.178.19.051-.063-.013-.133-.032-.2-.044-.025-.108-.184-.3.07-.273.64.076,1.091-.323,1.6-.571-.178.406-.063,1-.7,1.116-.12-.146-.247-.19-.444-.006h.45c-.127.216-.387.076-.564.184.025.038.051.1.063.089.71-.089.9.216.609.831-.716,1.49-.254,3.063-.368,4.6-.051.133.025.323-.165.4a9.965,9.965,0,0,1-.038-3.627,1.6,1.6,0,0,0-.964-2.054,1.225,1.225,0,0,1-.628-.685c-.336-.856-.653-1.718-.932-2.593a4.528,4.528,0,0,1-.051-3.361c1.027-2.264,1.756-4.654,2.917-6.861.063-.12.146-.247-.019-.355a3.513,3.513,0,0,1,.736-1.351c.133-.171.374-.368.583-.209s.419.425.133.723c-.393-.127-.495.14-.621.425a30.577,30.577,0,0,1-1.725,4.324,3.268,3.268,0,0,0-.254,2.708c.051.247-.133.4-.247.577a3.594,3.594,0,0,0,.311,3.361c.013.013.076-.025.114-.044h.006c0,.6.444.647.862.634.247-.006.444-.089.431.266-.235.051-.463.108-.7.159-.1-.044-.184-.082-.279-.127-.057-.032-.114-.07-.171-.1s-.1-.089-.139-.133c-.044-.1-.139-.165-.2-.082-.082.1.057.127.12.165.044.044.089.089.133.14s.089.1.133.139c.089.051.178.1.266.159.361.139.71.235.945-.2a1.535,1.535,0,0,0,.279-1.344c-.723.793-.964.843-1.408.273.6-.317.653-.958.869-1.49a18.262,18.262,0,0,1,2.41-4.337c.032-.038.127-.025.2-.032.032.133.063.26.108.444a4.955,4.955,0,0,0,.742-1.839c.5-1.744,1.655-3.145,2.53-4.686.114-.2.3-.171.482-.165,0,.444-.349.723-.5,1.1-.323.038-.361.323-.444.545-.355.907-.659,1.833-1.053,2.72-.12.279-.108.317.12.482.247.178.418.38.64.006a11.5,11.5,0,0,0,2.517-2.879,17.791,17.791,0,0,1,1.458-2.517c.19-.279.393-.368.6-.247.317.184-.07.311-.108.476a1.051,1.051,0,0,1-.311.59,2.283,2.283,0,0,0-.964,1.807c-.228.374-.457.748-.691,1.122a2.082,2.082,0,0,0-.786,1.11,1.675,1.675,0,0,0-.5.812.755.755,0,0,0-.4.545A4.588,4.588,0,0,1,364.109,266.561Z" transform="translate(-355.567 -258.733)"/><path class="a" d="M457.656,261.051c-.051-.07-.133-.14-.152-.216-.1-.336-.19-.736.222-.875.387-.133.621.152.691.539-.178.26.082.412.171.6.266.558.59,1.091.837,1.655.78,1.833,1.528,3.684,2.3,5.517.089.209.1.526.438.552a1.4,1.4,0,0,1,.133.7c-.2.108-.127.279-.089.425a5.4,5.4,0,0,1-.032,1.94v-1a17.12,17.12,0,0,1-1.154,3.392,2.16,2.16,0,0,1-.843,1.059,1.551,1.551,0,0,0-.774,2.207,3.123,3.123,0,0,1,.108,1.11c-.044.824-.082,1.649-.127,2.467-.387-.476-.228-1.053-.273-1.585-.019-.235.12-.526-.247-.621a3.508,3.508,0,0,0-.032-2.194,3.071,3.071,0,0,0-.1-.736c-.254-.666-.006-.881.64-.8.044.006.089-.032.222-.076-.273-.051-.45-.089-.685-.133.342-.165.736.025.913-.349l-.013.013a2.133,2.133,0,0,0,1.4-2.4c-.254.3-.082.875-.64.957.013-.368.368-.64.165-1.053-.152.273-.266.52-.419.742-.5.729-1.522.843-1.89.216.311.07.6.342.964.082-.209-.273-.533-.266-.8-.349-.216-.07-.139.159-.159.273-.463-.273-.368.279-.6.482-.311-.691-.926-1.122-.983-1.89-.032-.419-.438-.71-.311-1.243.063-.26-.374-.634-.59-.957-.146-.273-.285-.552-.431-.824.222-.082.114-.216.032-.317a5.817,5.817,0,0,0-1.528-1.668,3.444,3.444,0,0,1-1.148-1.173c-.621-.983-1.458-1.813-2.035-2.834a5.568,5.568,0,0,1-.571-1.211,2.071,2.071,0,0,0-.983-1.528.1.1,0,0,1-.013-.108c.336-.076-.228-.6.292-.583l-.006-.006c.025.082-.076.317.165.139a4.6,4.6,0,0,1,1.008,1.7,8.046,8.046,0,0,0,2.479,3.164,3.666,3.666,0,0,1,.361.406c.374.279.6.241.678-.159a1.7,1.7,0,0,0-.184-1.116,10.43,10.43,0,0,1-.913-2.606,11.693,11.693,0,0,1,2.194,3.912c.241.609.3,1.382.824,1.731a5.349,5.349,0,0,1,1.433,2.054c.279.476.5.983.812,1.439.089.1.222.19.254.311a7.4,7.4,0,0,0,.881,1.883c-.222.393-.634.032-.888.216.209.45.539.539.919.241a1.454,1.454,0,0,0,.659-.824c.12-.159.33-.311.342-.482a5.887,5.887,0,0,0-.514-3.7l.006.013a2.652,2.652,0,0,0-.355-2.517,18.46,18.46,0,0,1-1.313-3.418,2.969,2.969,0,0,0-.495-.951C457.827,260.854,457.827,261.019,457.656,261.051Zm-2.834,4.432-.1.1.1.038a1.282,1.282,0,0,0,.755.862c-.564-.634-.374-1.611-1.04-2.289C454.4,264.741,454.708,265.09,454.822,265.483Zm3.405,5.986c-.127-.349-.254-.7-.393-1.072C457.295,271.019,457.846,271.215,458.227,271.469Zm-.387,1.186c.025.032.057.063.082.1.006-.019.032-.044.025-.051a.471.471,0,0,0-.076-.082A.238.238,0,0,0,457.84,272.655Zm1.966.336c-.051-.063-.051-.159-.146-.1-.051.038-.114.082-.127.133-.013.076.057.108.127.076A.766.766,0,0,0,459.806,272.991Z" transform="translate(-389.719 -258.891)"/><path class="b" d="M459.14,287.037c.044-.824.082-1.649.127-2.467.368-.577.07-1.192.209-1.94-.279.349-.082.659-.317.837a1.553,1.553,0,0,1,.774-2.207,2.188,2.188,0,0,0,.843-1.059,16.845,16.845,0,0,0,1.154-3.392v1a5.257,5.257,0,0,0,.032-1.94c-.032-.146-.108-.317.089-.425a5.285,5.285,0,0,1-.063,3.576,15.127,15.127,0,0,0-1.027,4.8c-.3,2.587-.621,5.168-.881,7.755a13.887,13.887,0,0,1-.533,2.834c-.082-.025-.209-.089-.228.019a23.422,23.422,0,0,1-1.522,4.083c-.07.178.025.311.228.33a24.935,24.935,0,0,1-7.292,9.2,10.535,10.535,0,0,0-1.268,1.173,1.4,1.4,0,0,0-.533,1.141.932.932,0,0,1-.006-1.382,17.381,17.381,0,0,1,3.278-3.158.833.833,0,0,0,.393-1.078c.057-.114.12-.228.178-.342.438-.146.438-.805.977-.837.082.171.184.171.292.019.171-.228.349-.457.52-.691a1.949,1.949,0,0,1,.159-.165h-.025c.342-.019.393-.342.558-.545.127-.152.133-.393.349-.482a1.423,1.423,0,0,0,.856-1.37,2.433,2.433,0,0,1,.3-1.148,2.313,2.313,0,0,0,.425-1.332c-.273.33-.2.907-.793.869a42.213,42.213,0,0,0,1.744-8.414c.044.33.082.653.127,1.008.216-.133.222-.374.438-.406.089.368-.127.7-.127,1.053-.2.006-.209-.228-.279-.279-.526.926-.2,1.972-.476,2.942-.051.184.019.317.228.33a10.362,10.362,0,0,0-.254,2.961,15.039,15.039,0,0,0,.951-3.513l-.006.013c.108-.063.159-.139.057-.247.044-.463.552-.932-.025-1.382-.006-.222-.133-.488.2-.6.082.152-.057.361.146.488a24.584,24.584,0,0,0,1.211-5.815c.127-1.947.45-3.881.691-5.821a74.225,74.225,0,0,0-1.274,7.368c-.032-.368.013-.742-.051-1.1a.376.376,0,0,0-.514-.222Zm-1.649,11.255c.032-.051.07-.1.1-.152l-.057-.038c-.013.063-.025.127-.044.19-.038.051-.07.1-.1.146.019.013.032.025.051.038C457.459,298.413,457.478,298.356,457.491,298.293Zm2.4-12.631c.374-1.5.285-2.847.507-4.16A11.158,11.158,0,0,0,459.888,285.661Zm1.991-7.235a1.533,1.533,0,0,0,.032-.209c0-.025-.038-.057-.063-.082a1.031,1.031,0,0,0-.044.19C461.809,278.35,461.847,278.376,461.879,278.427Zm-.139.241c-.013.006-.038.006-.044.013a.078.078,0,0,0-.013.063c.019.057.051.051.07-.019C461.758,278.712,461.746,278.687,461.739,278.667Z" transform="translate(-389.484 -264.815)"/><path class="c" d="M425.465,338.53c.209-.767.926-.951,1.509-1.281l.165.165a8.392,8.392,0,0,1-.862.564c-.45.222-.431.476-.133.8-.051.025-.14.038-.082.114.013.019.108-.019.165-.032a3.332,3.332,0,0,0,1.217-.755c1.186-.938,2.6-1.5,3.8-2.4.6.038.977-.431,1.458-.672.678-.323,1.5-.342,2.048-.957.07-.025.139-.051.2-.07.019,0,.032-.006.051-.006h-.076c-.076-.3.323-.437.254-.742l.831-.247c-.006.279-.266.323-.526.5h4.363v-.139h-1.63c.507-.279,1.091.025,1.585-.317-.717.07-1.427-.26-2.143.019-.184.07-.374.038-.4-.228,1.547-.235,3.12-.216,4.673-.323.152.019.323.07.412-.114.019-.044-.019-.114-.025-.171-.12.057-.235.108-.355.165h0c-.044-.082-.082-.165-.127-.247.222-.057.444-.12.659-.178a1.028,1.028,0,0,0,1.363.3c.273-.216.355.038.457.108.2.127.07.279-.1.349-.33.146-.609.425-1.015.355-.051-.216.393-.216.178-.5-.247.076-.507.152-.761.228-.6-.216-1.16.171-1.75.12h1.63c-.3.355-.774,0-1.1.241.476.444.977-.032,1.636.032a1.674,1.674,0,0,1-.907.317c-.805-.089-1.528.457-2.346.285-.222-.044-.311.146-.342.349-.64.006-1.287.013-1.928.013-.114-.133-.2-.082-.273.044-.818.3-1.7.342-2.524.653a27.433,27.433,0,0,0-7.672,4.54,7.4,7.4,0,0,0-2.194,2.061c-.146.279-.4.514-.336.875,0,.063-.006.133-.006.2a1.593,1.593,0,0,1-.812-1.9,4.41,4.41,0,0,1,1.769-2.137c.025.1.082.159.19.12.025-.006.038-.057.057-.089C425.636,338.543,425.547,338.536,425.465,338.53Z" transform="translate(-380.336 -285.504)"/><path class="a" d="M459.739,294.65c-.216.032-.222.279-.438.406-.044-.355-.089-.685-.127-1.008a42.218,42.218,0,0,1-1.744,8.414q-.77,1.446-1.534,2.9a.592.592,0,0,0-.273.571l.006-.006c-.1-.006-.14.057-.146.146l.006-.006-.146.146.006-.006c-.051.1-.1.19-.146.285l.006-.013a.967.967,0,0,0-.419.843l.006-.006c-.539.032-.539.691-.977.837-.089-.425.12-.888-.127-1.338a3.917,3.917,0,0,1-2.137,1.706,1.216,1.216,0,0,1-.089-.1c.171-.38.577-.52.843-.8a26.746,26.746,0,0,0,3.158-4.236,36.456,36.456,0,0,0,2.118-4.61,13.346,13.346,0,0,0,.755-3.354,5.467,5.467,0,0,0,.171-2.08l.019-.7a5.253,5.253,0,0,0,.273-2,41.515,41.515,0,0,0-.266-4.94l.013-.006c.082.057.165.12.247.178.108.495.216.989.33,1.477v1.186c.108-.285.19-.488.266-.685a6.738,6.738,0,0,0,.082,3.12.906.906,0,0,1-.019.342,10.557,10.557,0,0,0-.044,2.41c-.038.3.013.545.349.628A1.6,1.6,0,0,0,459.739,294.65Zm-3.145,7.666.216-.2a.93.93,0,0,0,.273-.957c-.165.361-.273.6-.38.843a.28.28,0,0,0-.108.311.334.334,0,0,1-.07.063c.013,0,.038,0,.044-.006A.157.157,0,0,0,456.593,302.316Z" transform="translate(-390.527 -268.566)"/><path class="c" d="M370.034,333.438c-.146-.222-.539-.184-.564-.533l.025-.025c.507.184,1.021.349,1.509.571.279.127.254-.038.285-.19.463.006.926.019,1.389.025,0,.1-.006.2-.006.3-.241-.025-.495-.159-.716.12.26-.006.514.1.716-.127h2.758v.165h-1.6a6.832,6.832,0,0,0,2,.063c.482-.076.805-.051,1.008.4a.31.31,0,0,0,.387.19c-.076-.444.64-.558.444-1.053l.831.247c.228.222-.216.767.393.812a6.725,6.725,0,0,0,2.112.97c.431.07.621.634,1.122.545a24.741,24.741,0,0,1,2.276,1.325,8.632,8.632,0,0,1,2.213,1.471c.178.19.514-.1.64.228.323.615,1.021.3,1.471.6.019-.089.044-.171.063-.26.19.228.361.469.564.678a1.761,1.761,0,0,1,.533,2.226c-.361.837-1.078.818-1.807.774,0-.063.006-.127.006-.19.361-.038.875.127,1.04-.165.2-.349-.228-.7-.425-1.021a4.009,4.009,0,0,0-.964-1.078,39.458,39.458,0,0,0-7.038-4.61,20.158,20.158,0,0,0-4.267-1.363c-.292-1.1-.989-.184-1.477-.3.178.025.355.051.533.07-.266.418-.653.139-.989.171-.006-.209-.1-.349-.33-.342a15.885,15.885,0,0,1-4.109-.691Zm8.1.368c-.038-.013-.063-.019-.089-.025.006.013.006.044.013.044S378.094,333.812,378.132,333.806Z" transform="translate(-360.522 -285.833)"/><path class="b" d="M448.59,330.35c.025-.2.114-.393.342-.349.818.165,1.541-.374,2.346-.285a1.608,1.608,0,0,0,.907-.317c-.659-.063-1.16.412-1.636-.032.323-.241.8.114,1.1-.241v.025l.146-.146-.025.006c.254-.076.514-.152.761-.228.216.292-.228.285-.178.5.406.07.691-.209,1.015-.355.165-.076.3-.222.1-.349-.1-.063-.184-.323-.457-.108a1.028,1.028,0,0,1-1.363-.3A6.816,6.816,0,0,0,454.088,327a1.983,1.983,0,0,0,.767-1.021c.082-.044.14-.146.063-.184-.1-.051-.089.082-.114.146a7.828,7.828,0,0,1-4.673,1.674c-.26.025-.609.14-.793-.216a13.529,13.529,0,0,0,2.847-.412,4.2,4.2,0,0,0,3.354-3.335,10.778,10.778,0,0,1,.545-2.124c.044.051.127.1.12.146a19.35,19.35,0,0,0-.393,2.765,1.078,1.078,0,0,1-.285.748,1.659,1.659,0,0,0-.146,1.446,7.731,7.731,0,0,0,1.008-2.727c.387.133.14.583.539.653-.171-.831.216-1.655-.133-2.467-.07-.159.057-.3.216-.38.089.609.159,1.224.266,1.826a5.683,5.683,0,0,1-3.132,5.618,16.134,16.134,0,0,1-2.448.888c-.057-.089-.12-.184-.247-.178-.032,0-.057.044-.089.063.089.044.178.089.26.127A4.91,4.91,0,0,1,448.59,330.35Zm.4-.152a.584.584,0,0,0,.615-.038A.743.743,0,0,0,448.989,330.2Zm4.99-1.915c.038-.019.1-.025.108-.051s-.013-.076-.019-.114l-.146.057C453.942,328.213,453.961,328.245,453.98,328.283Z" transform="translate(-389.473 -281.68)"/><path class="c" d="M401.094,344.747c-.063-.082-.127-.165-.2-.247.032-.2-.076-.285-.266-.285-.051-.044-.1-.089-.146-.139l.19-.171c.8.178,1.034.932,1.458,1.471a5.309,5.309,0,0,1-1.23,2.689,19.066,19.066,0,0,0-3.107,1.167,4.919,4.919,0,0,1-5.047-1.718,6.6,6.6,0,0,1-1.42-4.229c.006-.323.025-.609.418-.672v.19c-.406.571-.127,1.173-.089,1.763.209.273-.076.881.583.837.025.057.051.114.082.171-.057.323.082.463.406.438a3.09,3.09,0,0,0,.006.342c.013.127-.006.323.2.273s.19-.216.1-.387a.356.356,0,0,0-.311-.228c-.032-.216.1-.5-.26-.558-.025-.279-.051-.552-.07-.831.1.006.2.006.311.013a7.266,7.266,0,0,0,3.247,3.545.815.815,0,0,0,1.357.184l.266-.038c.032.1.1.171.19.114.057-.032.057-.146.089-.228h-.006c.216.038.4.032.438-.241.977-.748,2.067-1.427,1.8-2.942l-.013.013c.241.12.545.019.736.361.133.241.457.146.558-.19.114.1.133.406.336.26.152-.114-.038-.3-.146-.437-.127-.114-.222-.279-.419-.3C401.145,344.747,401.094,344.747,401.094,344.747Zm-7.666,2.79.14.139c.076.476.38.063.558.139.076.469.444.6.831.691.133.133.266.279.514.165-.152-.235-.349-.133-.514-.159-.076-.476-.444-.6-.831-.691a.431.431,0,0,0-.273-.437c-.222-.07-.089.285-.279.3a1.053,1.053,0,0,1-.146-.146c-.044-.038.057-.178-.1-.139C393.359,347.442,393.39,347.486,393.428,347.537Z" transform="translate(-368.52 -289.394)"/><path class="c" d="M417.959,346.771c.7-.222.165.361.33.495-.051.2-.108.4.165.539.089-.216.1-.393-.14-.514.241-.406.025-1.192.894-1.065l-.013-.013c.019.577-.178,1.236.33,1.661.526.444.837,1.167,1.623,1.281.273.621.805.368,1.262.38a3.807,3.807,0,0,0,1.6-.564A7.918,7.918,0,0,0,425.8,347.2c.044,0,.063-.019.063-.063.108-.1.2-.2.146-.361l-.013.013c.076-.051.146-.1.222-.146.323-.2.133-.85.717-.818.12.108-.342.45.165.4.355.044.26.247.2.482-.044.171-.285.431.114.52a7.072,7.072,0,0,1-1.287,1.909c-.2.019-.273.133-.235.323a5.432,5.432,0,0,1-6.531-.076c-.114-.336-.26-.342-.437-.044a.752.752,0,0,1-.59-.133c.038-.3-.032-.539-.368-.628a8.991,8.991,0,0,0-.653-1.249c-.4-.685-.273-.989.495-1.4.114.076.051.178.038.266-.1.114-.216.216-.3.336-.139.19.051.285.152.374C417.845,347.043,417.9,346.891,417.959,346.771Z" transform="translate(-377.947 -290.568)"/><path class="b" d="M461.411,281.938a41.443,41.443,0,0,1,.266,4.94,5.133,5.133,0,0,1-.273,2c-.038-.076-.12-.152-.114-.222.146-1.63.013-3.253,0-4.882a12.139,12.139,0,0,0-.38-2.352c-.235-1.173-.457-2.34-.64-3.519-.127-.8-.742-1.414-.919-2.207.1-.1.19-.184.279-.279.209.323.653.7.59.957-.127.533.279.831.311,1.243.057.767.672,1.2.983,1.89.235-.2.146-.755.6-.482l-.006-.006c.374.628,1.389.514,1.89-.216.152-.222.266-.469.419-.742.2.419-.159.685-.165,1.053.564-.089.393-.659.64-.957a2.13,2.13,0,0,1-1.4,2.4c.025-.089.178-.273.019-.254a3.186,3.186,0,0,1-1.655-.539c.279,1.034.387,1.1,1.313.85.108-.032.222-.044.336-.07-.184.368-.577.184-.913.349.241.044.419.082.685.133a1.254,1.254,0,0,1-.222.076c-.647-.076-.9.133-.64.8a3.118,3.118,0,0,1,.1.736.688.688,0,0,0-.114-.006c-.178-.216-.114-.514-.228-.748-.063-.12-.032-.412-.317-.228-.184.1-.114.3-.171.45-.082-.057-.165-.12-.247-.178-.019-.063-.038-.127-.057-.184-.019.013-.051.038-.051.044A.9.9,0,0,0,461.411,281.938Zm.146-.977.057.038-.057-.038a.256.256,0,0,1-.057-.032C461.519,280.943,461.538,280.949,461.557,280.962Z" transform="translate(-393.41 -264.808)"/><path class="b" d="M358.923,262.75c.165.108.089.235.019.355-1.16,2.207-1.89,4.6-2.917,6.861a4.559,4.559,0,0,0,.051,3.361c.273.875.6,1.737.932,2.593a1.225,1.225,0,0,0,.628.685,1.6,1.6,0,0,1,.964,2.054,9.967,9.967,0,0,0,.038,3.627c-.044.038-.082.076-.127.12-.127-.07-.3.317-.368,0-.114-.5-.615-.983-.063-1.541a.656.656,0,0,0,0-.6,5.347,5.347,0,0,1-.431-2.124,2.843,2.843,0,0,0-.33-1.376c-.241.127.108.438-.266.5-.152-.285-.057-.672-.3-.919-.159.247.114.6-.2.824-.025-.038-.07-.07-.076-.114-.279-1.864-1.313-3.551-1.084-5.555a11.307,11.307,0,0,1,1.015-3A51.036,51.036,0,0,1,358.923,262.75Z" transform="translate(-355.358 -260.172)"/><path class="a" d="M357.2,285.014c.311-.222.038-.571.2-.824.247.247.152.64.3.919.368-.07.025-.374.266-.5a2.707,2.707,0,0,1,.33,1.376,5.24,5.24,0,0,0,.431,2.124.637.637,0,0,1,0,.6c-.545.558-.051,1.04.063,1.541.07.317.241-.063.368,0l.133,1.122c-.013.133-.025.273-.044.425-.247-.139.019-.5-.387-.615.425,2.283.209,4.61,1.129,6.772a8,8,0,0,1-1.059-3.576,4.239,4.239,0,0,0-.057,1.135c-.1-.127-.165-.171-.165-.222-.089-1.725-.647-3.386-.7-5.111a1.543,1.543,0,0,0-.26-.9.161.161,0,0,1,.013-.108c-.044-.938-.082-1.883-.133-2.822-.013-.216-.146-.26-.336-.2C357.37,285.763,356.926,285.42,357.2,285.014Zm1.053,3.24c-.063-.545-.127-1.084-.19-1.63A2.439,2.439,0,0,0,358.251,288.255Z" transform="translate(-355.999 -268.017)"/><path class="b" d="M458.018,297.706a5.467,5.467,0,0,1-.171,2.08,13.078,13.078,0,0,1-.755,3.354,36.457,36.457,0,0,1-2.118,4.61,27.14,27.14,0,0,1-3.158,4.236c-.266.279-.666.419-.843.8-.285.133-.45.5-.843.412.742-.742,1.534-1.439,2.213-2.232a25.887,25.887,0,0,0,3.8-6.208,26.82,26.82,0,0,0,1.737-7.007c.006-.038.019-.076.025-.12A.889.889,0,0,1,458.018,297.706Z" transform="translate(-390.036 -272.935)"/><path class="b" d="M371.067,314.209c-.881.044-1.243-.742-1.737-1.211a19.751,19.751,0,0,1-3.1-4.045c-.621-1.008-.989-2.124-1.522-3.158a18.561,18.561,0,0,1-1.427-4.73c-.051-.222-.3-.533.127-.685a20.767,20.767,0,0,0,1.471,5.193c.659,1.338,1.275,2.682,2.048,3.969a15.379,15.379,0,0,0,2.752,3.342A11.436,11.436,0,0,0,371.067,314.209Z" transform="translate(-358.213 -273.941)"/><path class="b" d="M359.079,268.868a3.245,3.245,0,0,1,.254-2.708,31.036,31.036,0,0,0,1.725-4.324c.127-.285.228-.552.621-.425a29.327,29.327,0,0,1-2.219,6.22A10.7,10.7,0,0,0,359.079,268.868Z" transform="translate(-356.655 -259.67)"/><path class="b" d="M449.29,260.33a2.107,2.107,0,0,1,.983,1.528,6.232,6.232,0,0,0,.571,1.211c.577,1.021,1.414,1.852,2.035,2.834a3.389,3.389,0,0,0,1.148,1.173,5.892,5.892,0,0,1,1.528,1.668c.076.1.19.235-.032.317-.216-.051-.323-.311-.577-.285-1.129-1.141-2.188-2.346-3.215-3.589A14.721,14.721,0,0,1,449.29,260.33Z" transform="translate(-389.729 -259.286)"/><path class="b" d="M462.5,261.885c.171-.032.171-.2.266-.355a2.789,2.789,0,0,1,.495.951,18.918,18.918,0,0,0,1.313,3.418,2.669,2.669,0,0,1,.355,2.517,5.808,5.808,0,0,1-.571-1.357,8.617,8.617,0,0,0-.336-.824A14.335,14.335,0,0,1,462.5,261.885Z" transform="translate(-394.563 -259.726)"/><path class="b" d="M460.273,270.066c-.311-.457-.533-.97-.812-1.439a5.19,5.19,0,0,0-1.433-2.054c-.52-.349-.59-1.129-.824-1.731a11.693,11.693,0,0,0-2.194-3.912l.006.006c0-.1-.019-.171-.146-.146l.006.006c.063-.152.038-.254-.139-.285l.006.006a.341.341,0,0,0-.184-.476c-.1-.057-.235-.082-.2-.235a.186.186,0,0,1,.279-.1.773.773,0,0,1,.279.292,32.942,32.942,0,0,1,2.517,4.591c.52,1.325,1.515,2.378,2.048,3.678C459.722,268.874,460.286,269.349,460.273,270.066Z" transform="translate(-391.582 -259.048)"/><path class="a" d="M460.9,321.453c-.165.076-.285.222-.216.38.342.812-.038,1.636.133,2.467-.4-.07-.159-.52-.539-.653a7.776,7.776,0,0,1-1.008,2.727,1.659,1.659,0,0,1,.146-1.446,1.078,1.078,0,0,0,.285-.748,19.35,19.35,0,0,1,.393-2.765c.006-.038-.076-.1-.12-.146.044-.355.285-.457.59-.406S460.885,321.2,460.9,321.453Z" transform="translate(-393.347 -281.432)"/><path class="b" d="M369.232,259.906c-.184-.006-.368-.038-.482.165a22,22,0,0,0-2.53,4.686,4.955,4.955,0,0,1-.742,1.839c-.044-.184-.076-.317-.108-.444a21.733,21.733,0,0,1,2.4-4.908c.317-.469.583-.983.888-1.465.1-.152.241-.311.45-.247C369.276,259.576,369.333,259.728,369.232,259.906Z" transform="translate(-359.022 -258.989)"/><path class="b" d="M467.4,269.529c-.342-.025-.342-.336-.438-.552-.774-1.839-1.522-3.684-2.3-5.517-.241-.564-.564-1.1-.837-1.655-.089-.184-.349-.33-.171-.6a39.151,39.151,0,0,1,2.949,6.341C466.889,268.2,467.136,268.87,467.4,269.529Z" transform="translate(-394.963 -259.608)"/><path class="a" d="M364.633,321.543a19.7,19.7,0,0,0,.805,4.768c-.38-.786-1.1-1.414-.983-2.4a.98.98,0,0,0-.387-1.072v.97a4.835,4.835,0,0,1-.279-2.131v.019c.311-.019.273-.647.723-.412C364.646,321.328,364.64,321.436,364.633,321.543Z" transform="translate(-358.444 -281.573)"/><path class="b" d="M430.261,346.3c0,.044-.019.063-.063.063-.393-.114-.469.355-.774.412l.006.006c-.038-.171.127-.247.178-.374l.139-.139c.044-.044.089-.1.133-.14s.089-.1.133-.146.1-.089.139-.14c.019-.051.038-.1.057-.159a1.54,1.54,0,0,0-.152.063c-.044.044-.089.1-.139.139s-.1.089-.139.133-.1.089-.146.133-.089.082-.133.127l-.38.076c.507-.64,1-1.287,1.522-1.915.241-.292.292-.742.723-.881-.089.469.279.951-.032,1.42-.583-.032-.4.621-.717.818a.214.214,0,0,0-.222.146l.013-.013A.276.276,0,0,0,430.261,346.3Zm.1-.761.114-.057s-.013-.051-.019-.051a.346.346,0,0,0-.114.006A.7.7,0,0,0,430.356,345.538Z" transform="translate(-382.349 -289.741)"/><path class="b" d="M393.174,344.8c-.1-.006-.2-.006-.3-.013-.235-.52.1-1.129-.26-1.63l.114-.114c.431.621.862,1.236,1.294,1.858a3.6,3.6,0,0,0,2.524,1.617c0,.063-.006.127-.006.19-1.281.139-1.947-.78-2.7-1.554-.159-.159-.3-.342-.469-.488S393.231,344.739,393.174,344.8Z" transform="translate(-368.989 -289.551)"/><path class="b" d="M387.694,331.618c-.133.247-.285.063-.393-.013-1.883-1.217-3.944-2.194-5.466-3.925a.838.838,0,0,1-.1-.184c.3-.051.476.19.621.368a13.334,13.334,0,0,0,3.6,2.631C386.54,330.869,387.117,331.243,387.694,331.618Z" transform="translate(-365.012 -283.861)"/><path class="b" d="M455.042,261.252a10.517,10.517,0,0,0,.913,2.606,1.7,1.7,0,0,1,.184,1.116c-.076.4-.3.438-.678.159.7-.013.495-.545.361-.818-.5-1.008-.678-2.13-1.211-3.12-.1-.178-.3-.368-.108-.615.114.063.1.254.266.266l-.006-.006c-.025.133-.013.241.139.285l-.006-.006c0,.1.025.171.146.133Z" transform="translate(-391.607 -259.378)"/><path class="b" d="M433.177,346.034c-.393-.1-.159-.349-.114-.52.063-.235.152-.438-.2-.482.051-.38.438-.647.33-1.084.127.171,0,.38.228.571a10.485,10.485,0,0,1,.006-1.186c.063-.533-.171-.533-.552-.374a.356.356,0,0,1,.444-.38.42.42,0,0,1,.393.406,5.039,5.039,0,0,1-.4,2.676.435.435,0,0,0-.152.38Z" transform="translate(-383.717 -289.381)"/><path class="c" d="M372.707,264.522c.228-.374.457-.748.691-1.122.108.051.222.1.33.146a10.359,10.359,0,0,1-1.966,2.917l-.342-.019a1.675,1.675,0,0,1,.5-.812A1.162,1.162,0,0,0,372.707,264.522Z" transform="translate(-361.236 -260.41)"/><path class="c" d="M463.315,309.768c-.2-.019-.3-.152-.228-.33a23.947,23.947,0,0,0,1.522-4.084c.019-.108.152-.044.228-.019a2.814,2.814,0,0,1-.349,1.313C463.981,307.644,463.854,308.785,463.315,309.768Z" transform="translate(-394.769 -275.739)"/><path class="b" d="M379.044,325.23a13.916,13.916,0,0,1-3.424-3.05q1.693,1.427,3.373,2.86C379.038,325.071,379.031,325.167,379.044,325.23Z" transform="translate(-362.772 -281.918)"/><path class="b" d="M448.028,322.17a25.216,25.216,0,0,1-2.3,2.137c-.412.374-.742.888-1.382.919q1.741-1.522,3.481-3.037C447.876,322.157,447.964,322.176,448.028,322.17Z" transform="translate(-387.922 -281.914)"/><path class="b" d="M369.017,265.6c-.222.374-.393.178-.64-.006-.228-.165-.241-.2-.12-.482.393-.888.7-1.813,1.053-2.72.089-.222.127-.507.444-.545-.361.913-.609,1.871-1.021,2.777C368.586,264.951,368.244,265.49,369.017,265.6Z" transform="translate(-360.05 -259.843)"/><path class="b" d="M466.31,272.35a5.886,5.886,0,0,1,.514,3.7c-.013.171-.222.323-.342.482-.044-.051-.1-.1-.14-.152A8.045,8.045,0,0,0,466.31,272.35Z" transform="translate(-395.957 -263.685)"/><path class="a" d="M432.752,343.117c.374-.159.615-.159.552.374a10.471,10.471,0,0,0-.006,1.186c-.228-.19-.1-.4-.228-.571.108.438-.279.7-.33,1.084-.507.051-.044-.292-.165-.4.311-.463-.057-.945.032-1.42C432.467,343.18,432.549,343.117,432.752,343.117Z" transform="translate(-383.584 -289.545)"/><path class="b" d="M357.39,287.275c.19-.063.323-.019.336.2.051.938.089,1.883.133,2.822-.285-.152-.285-.425-.3-.7C357.5,288.822,357.447,288.048,357.39,287.275Z" transform="translate(-356.102 -269.136)"/><path class="b" d="M359.051,277.416c-.038.019-.1.057-.114.044a3.574,3.574,0,0,1-.311-3.361A8.41,8.41,0,0,0,359.051,277.416Z" transform="translate(-356.451 -264.325)"/><path class="b" d="M440.389,329.514c-.634.235-1.1.761-1.706,1.04-.266.12-.533.228-.8.342-.038-.114.038-.178.114-.216a20.434,20.434,0,0,0,2.669-1.731c-.044.209-.349.292-.279.564Z" transform="translate(-385.552 -284.395)"/><path class="b" d="M374.87,262.5c-.108-.051-.222-.1-.33-.146a2.283,2.283,0,0,1,.964-1.807A9.022,9.022,0,0,1,374.87,262.5Z" transform="translate(-362.377 -259.367)"/><path class="b" d="M359.726,279.073c.444.571.685.52,1.408-.273a1.515,1.515,0,0,1-.279,1.344c-.032-.038-.07-.076-.1-.108.013-.355-.184-.273-.431-.266-.419.013-.862-.032-.862-.634C359.549,279.117,359.638,279.092,359.726,279.073Z" transform="translate(-356.859 -266.045)"/><path class="c" d="M368.83,270.313a4.46,4.46,0,0,0,1.243-1.243l.431.038c-.469.539-.938,1.078-1.414,1.617C369,270.585,368.912,270.452,368.83,270.313Z" transform="translate(-360.288 -262.485)"/><path class="b" d="M436.549,332a5.632,5.632,0,0,1-2.359,1.4A10.677,10.677,0,0,1,436.549,332Z" transform="translate(-384.204 -285.511)"/><path class="c" d="M465.529,278.71c.044.051.1.1.14.152a1.475,1.475,0,0,1-.659.824c-.38.3-.71.209-.919-.241.254-.184.666.178.888-.216C465.187,279.078,465.422,278.964,465.529,278.71Z" transform="translate(-395.145 -266.012)"/><path class="c" d="M458.21,273.659c.254-.025.361.235.577.285.146.273.285.552.431.824-.1.1-.19.184-.279.279C458.692,274.585,458.451,274.122,458.21,273.659Z" transform="translate(-392.993 -264.163)"/><path class="b" d="M421.319,343.36a3.6,3.6,0,0,1-1.649,1c-.063-.057-.127-.114-.19-.178A6.3,6.3,0,0,1,421.319,343.36Z" transform="translate(-378.821 -289.668)"/><path class="b" d="M425.03,348.52c0-.063.006-.133.006-.2a6.352,6.352,0,0,0,2.162-.063A2.266,2.266,0,0,1,425.03,348.52Z" transform="translate(-380.852 -291.461)"/><path class="b" d="M405.176,344.262l-.19.171a2.365,2.365,0,0,1-1.376-.843A3.873,3.873,0,0,1,405.176,344.262Z" transform="translate(-373.014 -289.752)"/><path class="b" d="M378.623,334.971c-.178-.025-.355-.051-.533-.07.488.12,1.186-.786,1.477.3a.554.554,0,0,1-.425-.063c-.1-.3-.3-.228-.514-.159Z" transform="translate(-363.676 -286.485)"/><path class="b" d="M449.385,259.037c-.526-.019.038.507-.292.583-.07-.12-.139-.235-.2-.355-.089-.19-.184-.45.013-.545S449.347,258.739,449.385,259.037Z" transform="translate(-389.545 -258.684)"/><path class="b" d="M371.211,268.793l-.431-.038a.755.755,0,0,1,.4-.545l.342.019A.574.574,0,0,1,371.211,268.793Z" transform="translate(-361.001 -262.17)"/><path class="b" d="M364.5,321.167c-.457-.241-.412.393-.723.412a.516.516,0,0,1,.235-.634A.339.339,0,0,1,364.5,321.167Z" transform="translate(-358.429 -281.45)"/><path class="b" d="M418.456,350.17c.336.082.412.323.368.628A.508.508,0,0,1,418.456,350.17Z" transform="translate(-378.444 -292.16)"/><path class="c" d="M378.94,335.134c.209-.07.419-.146.514.159C379.282,335.261,379.029,335.457,378.94,335.134Z" transform="translate(-363.987 -286.635)"/><path class="b" d="M419.97,351.234c.178-.3.323-.292.438.044C420.262,351.266,420.116,351.253,419.97,351.234Z" transform="translate(-379.001 -292.469)"/><path class="b" d="M403.361,343.414c-.26.057-.412-.032-.431-.3C403.108,343.173,403.336,343.148,403.361,343.414Z" transform="translate(-372.765 -289.577)"/><path class="a" d="M363.1,288.806c-.1-.1-.082-.184.019-.266C363.234,288.635,363.215,288.724,363.1,288.806Z" transform="translate(-358.167 -269.609)"/><path class="b" d="M430.954,351.363c-.038-.19.032-.3.235-.323A.333.333,0,0,1,430.954,351.363Z" transform="translate(-383.016 -292.478)"/><path class="a" d="M454.806,260.726c-.165-.013-.152-.2-.266-.266.025-.07.051-.139.082-.209A.335.335,0,0,1,454.806,260.726Z" transform="translate(-391.65 -259.257)"/><path class="b" d="M392,342.782v-.19c.178-.1.273.051.38.14-.044.038-.089.07-.127.108Z" transform="translate(-368.766 -289.376)"/><path class="b" d="M445.12,335.468c.07-.127.152-.184.273-.044A.2.2,0,0,1,445.12,335.468Z" transform="translate(-388.203 -286.734)"/><path class="b" d="M443.273,327.71c.019.127.082.279-.152.241C443.02,327.767,443.178,327.761,443.273,327.71Z" transform="translate(-387.46 -283.942)"/><path class="c" d="M453.25,334.87c-.089-.044-.178-.089-.26-.127.032-.025.057-.063.089-.063.127-.013.184.082.247.178A.1.1,0,0,1,453.25,334.87Z" transform="translate(-391.083 -286.491)"/><path class="c" d="M419.406,344.66c.063.057.127.114.19.178-.108.063-.216.139-.3-.025C419.235,344.685,419.336,344.679,419.406,344.66Z" transform="translate(-378.748 -290.144)"/><path class="b" d="M449.883,259.359c-.241.184-.146-.051-.165-.139C449.775,259.271,449.832,259.315,449.883,259.359Z" transform="translate(-389.885 -258.88)"/><path class="c" d="M433.347,347.8a.435.435,0,0,1,.152-.38C433.575,347.6,433.487,347.712,433.347,347.8Z" transform="translate(-383.894 -291.154)"/><path class="c" d="M419.159,344.856a.143.143,0,0,1-.07.216c-.1.051-.165.013-.209-.082C418.893,344.786,418.988,344.748,419.159,344.856Z" transform="translate(-378.602 -290.194)"/><path class="b" d="M392.527,342.83l.114.133-.114.114a1.323,1.323,0,0,1-.127-.139C392.444,342.906,392.482,342.868,392.527,342.83Z" transform="translate(-368.912 -289.474)"/><path class="b" d="M422.6,343.144a.166.166,0,0,1-.222.139C422.367,343.1,422.487,343.131,422.6,343.144Z" transform="translate(-379.882 -289.585)"/><path class="c" d="M418.778,345.085c.063.082.051.165-.044.178-.038.006-.089-.114-.133-.178A.113.113,0,0,1,418.778,345.085Z" transform="translate(-378.499 -290.284)"/><path class="c" d="M418.182,345.683c.1-.032.178-.006.171.1s-.082.127-.178.1C418.094,345.809,418.1,345.746,418.182,345.683Z" transform="translate(-378.323 -290.513)"/><path class="b" d="M442.414,328.724l-.152.152C442.218,328.73,442.281,328.692,442.414,328.724Z" transform="translate(-387.152 -284.309)"/><path class="b" d="M442.629,328.5l-.152.152C442.457,328.526,442.477,328.45,442.629,328.5Z" transform="translate(-387.234 -284.225)"/><path class="b" d="M442.844,328.283l-.152.152C442.647,328.289,442.711,328.245,442.844,328.283Z" transform="translate(-387.31 -284.146)"/><path class="b" d="M443.056,328.061c-.051.051-.1.1-.146.152C442.866,328.074,442.911,328.017,443.056,328.061Z" transform="translate(-387.389 -284.065)"/><path class="d" d="M376.04,330.2c.387-.216.888-.247,1.141-.691.114-.2.26-.5.038-.615-.292-.159-.12.33-.342.374-.171-.114-.032-.254.006-.349a1.553,1.553,0,0,0-.235-1.458c-.3-.507-.006-.831.761-.824-.52.495-.273.818.139,1.173a2.264,2.264,0,0,1,.539,1.135c.228-.691.856-.533,1.313-.717h0a.9.9,0,0,0,.507.875.319.319,0,0,1,.013.133c-.171.247-.171.4.178.463a2.628,2.628,0,0,1,.97.3c.2.114.514.222.438.444-.1.3-.438.139-.653.082-.3-.082-.659-.051-.875-.33-.165-.222-.4.082-.558-.108.114-.051.317-.1.2-.247-.1-.133-.209.051-.3.133-.678.368-1.5-.133-2.156.336A3.526,3.526,0,0,1,376.04,330.2Z" transform="translate(-362.926 -283.55)"/><path class="c" d="M364.768,312.738a1.324,1.324,0,0,1-.951-1.446c.038-.1.057-.159.013-.228-.393-.647-.457-1.433-.9-2.061h0c-.038-.678.507-1.319.139-2.023a1.853,1.853,0,0,1,.425,1.065,12.539,12.539,0,0,0,1.807,4.572c.14.26.285.52.425.786a.117.117,0,0,0-.019.127c-.1.013-.184.032-.279.044.1-.374-.476-.082-.418-.425l-.006.006c.64-.374-.285-.222-.146-.431.013-.114.076-.26-.14-.254-.006-.082-.013-.165-.019-.241-.032.013-.063.019-.1.032.044.07.082.139.127.2A1.876,1.876,0,0,1,364.768,312.738Zm-.45-1.237c-.013-.082-.019-.159-.032-.241-.032.013-.082.025-.082.051a.157.157,0,0,0,.114.19.592.592,0,0,0,.266.6C364.578,311.8,364.559,311.6,364.318,311.5Zm-.159-.533c-.019-.032-.038-.057-.057-.089-.013.013-.038.032-.032.044a.7.7,0,0,0,.032.108C364.121,311.013,364.14,310.987,364.159,310.968Z" transform="translate(-358.128 -276.356)"/><path class="b" d="M389.3,335.456c-.7-.482-1.515-.812-1.909-1.661-.082-.184-.342-.285-.526-.431.1-.235.431.019.488-.254l-.006.006a4.217,4.217,0,0,1,1.338.824c.685.469,1.344.97,2.042,1.414.361.228.457.457.222.812a1.038,1.038,0,0,1-.533-.495C390.1,335.2,389.622,335.12,389.3,335.456Z" transform="translate(-366.889 -285.918)"/><path class="b" d="M374.53,333.652c0-.1.006-.2.006-.3.063-.025.127-.044.19-.07,1.021.044,2.042.082,3.063.146.184.013.311.057.336-.178.089-.051.184-.1.273-.146l.032-.038a2.378,2.378,0,0,1,1.084.349c.2.495-.52.609-.444,1.053a.31.31,0,0,1-.387-.19c-.2-.457-.526-.476-1.008-.4a7.065,7.065,0,0,1-2-.063h1.6v-.165Z" transform="translate(-362.374 -285.902)"/><path class="b" d="M400.361,350.122c-.038.273-.222.285-.437.241-.133-.393-.469-.222-.7-.222a3.535,3.535,0,0,1-1.725-.412.751.751,0,0,1-.495-.571c.736.051,1.363.6,2.105.418a4.094,4.094,0,0,0,1.9-1.1c.044.717-.45,1.021-.748,1.42C400.056,350.154,400.285,350.072,400.361,350.122Z" transform="translate(-370.596 -291.542)"/><path class="b" d="M381.54,329.678a.319.319,0,0,0-.013-.133c-.019-.38-.076-.736-.507-.875h0c-.051-.33-.425-.437-.52-.736.038-.038.076-.076.12-.114a3.967,3.967,0,0,1,1.687,1.363,7.683,7.683,0,0,0,1.9,1.439l-.038.038c-.761.12-1.179-.545-1.775-.805A1.562,1.562,0,0,0,381.54,329.678Z" transform="translate(-364.558 -283.982)"/><path class="b" d="M387.317,336.347c-.507.089-.7-.476-1.122-.545a3.078,3.078,0,0,0-2.112-.97c-.609-.044-.165-.59-.393-.812a9.4,9.4,0,0,1,3.564,2.08C387.311,336.144,387.3,336.258,387.317,336.347Z" transform="translate(-365.725 -286.25)"/><path class="c" d="M377.076,333.074c-.019.235-.152.19-.336.178-1.021-.063-2.042-.1-3.063-.146-.615-.051-1.224-.1-1.839-.146-.051-.133-.108-.266-.159-.4a19.354,19.354,0,0,0,3.621.355A7.878,7.878,0,0,1,377.076,333.074Z" transform="translate(-361.331 -285.716)"/><path class="b" d="M396.856,340.662a8.657,8.657,0,0,1-2.606-2.042,14.454,14.454,0,0,1,2.771,1.89C396.964,340.56,396.913,340.611,396.856,340.662Z" transform="translate(-369.589 -287.934)"/><path class="c" d="M390.71,336.691c.317-.336.8-.26,1.116.209a1.013,1.013,0,0,0,.533.495c.152.07.355.178.279.33-.089.171-.3.089-.457-.019-.3-.209-.609-.406-.919-.609a.244.244,0,0,0-.323-.235Q390.834,336.776,390.71,336.691Z" transform="translate(-368.294 -287.152)"/><path class="b" d="M375.067,332.259a3.678,3.678,0,0,0,1.116.12,7.313,7.313,0,0,1-2.8.051l.032-.051A5.6,5.6,0,0,1,375.067,332.259Z" transform="translate(-361.953 -285.605)"/><path class="b" d="M399.035,342.739c-.019.089-.044.171-.063.26-.45-.3-1.148.006-1.471-.6a1.345,1.345,0,0,1,.666-.127.462.462,0,0,0,.514.285C398.914,342.384,398.952,342.6,399.035,342.739Z" transform="translate(-370.779 -289.269)"/><path class="b" d="M399.967,351.584a.821.821,0,0,1-1.357-.184C399.067,351.457,399.517,351.52,399.967,351.584Z" transform="translate(-371.185 -292.61)"/><path class="c" d="M361.456,294.73a1,1,0,0,1-.025-1.37C361.564,293.817,361.247,294.279,361.456,294.73Z" transform="translate(-357.486 -271.372)"/><path class="b" d="M365.278,310.12c.152.3.3.6.457.907C365.29,310.894,365.259,310.519,365.278,310.12Z" transform="translate(-358.987 -277.505)"/><path class="b" d="M372.732,332.31a1.78,1.78,0,0,1-1.122-.38c.393.076.831,0,1.154.33C372.77,332.26,372.732,332.31,372.732,332.31Z" transform="translate(-361.305 -285.486)"/><path class="c" d="M399.053,342.354a.462.462,0,0,1-.514-.285l-.019-.228c.038-.038.082-.076.12-.12C398.837,341.891,399.116,342.012,399.053,342.354Z" transform="translate(-371.152 -289.068)"/><path class="c" d="M361.517,297.326a1.587,1.587,0,0,1,.025-1.376A5.26,5.26,0,0,1,361.517,297.326Z" transform="translate(-357.559 -272.32)"/><path class="b" d="M407.35,346.45c.114.133.3.317.146.438-.2.152-.222-.165-.336-.26C407.223,346.564,407.287,346.507,407.35,346.45Z" transform="translate(-374.313 -290.799)"/><path class="b" d="M387.215,332.779c-.159.013-.311.032-.355-.2.184-.051.279.051.355.2Z" transform="translate(-366.885 -285.72)"/><path class="b" d="M401.449,351.445c-.025.076-.032.2-.089.228-.082.051-.159-.025-.19-.114A.225.225,0,0,1,401.449,351.445Z" transform="translate(-372.121 -292.624)"/><path class="b" d="M406.01,345.13c.19,0,.3.082.266.285A.258.258,0,0,1,406.01,345.13Z" transform="translate(-373.892 -290.316)"/><path class="b" d="M391.08,337.076a.244.244,0,0,1,.323.235C391.219,337.342,391.124,337.241,391.08,337.076Z" transform="translate(-368.429 -287.366)"/><path class="b" d="M380.524,333.064c-.063-.019-.12-.032-.184-.051.019-.025.044-.07.057-.063a1.216,1.216,0,0,1,.159.076Z" transform="translate(-364.499 -285.859)"/><path class="b" d="M396.766,349.25c.038.057.025.1-.038.1-.032,0-.089-.032-.089-.057s.025-.07.044-.108A.807.807,0,0,1,396.766,349.25Z" transform="translate(-370.463 -291.798)"/><path class="b" d="M380.431,327.868c-.057-.051-.2-.076-.108-.178.063-.076.165-.013.222.063Z" transform="translate(-364.483 -283.922)"/><path class="c" d="M398.36,341.752c.057-.051.108-.1.165-.152a.112.112,0,0,1,.057.082c-.038.038-.082.076-.12.12A.143.143,0,0,1,398.36,341.752Z" transform="translate(-371.093 -289.024)"/><path class="b" d="M406.73,345.98h.044a.709.709,0,0,1-.044.1A.273.273,0,0,0,406.73,345.98Z" transform="translate(-374.156 -290.627)"/><path class="c" d="M405.085,346.394a.64.64,0,0,1-.1-.044c.1-.1.063.025.082.057Z" transform="translate(-373.519 -290.749)"/><path class="c" d="M406.533,346.821l-.013-.051.032.006Z" transform="translate(-374.079 -290.916)"/><path class="b" d="M386.318,332.23c.032.025.07.044.1.07-.013.013-.038.044-.044.038a.911.911,0,0,1-.1-.07Z" transform="translate(-366.673 -285.595)"/><path class="b" d="M370.01,321.237l-.14-.14c.038-.038.082-.07.12-.108.038.051.082.1.12.146Z" transform="translate(-360.668 -281.483)"/><path class="b" d="M387.559,333.033c-.089,0-.146-.038-.14-.133h0c.089.006.146.044.14.133Z" transform="translate(-367.09 -285.841)"/><path class="b" d="M370.191,321.22c.013.051.025.108.038.159l-.139-.057Z" transform="translate(-360.749 -281.567)"/><path class="b" d="M429.075,337.736l-.165-.165a6.657,6.657,0,0,1,1.332-1.078c.323-.2.951-.273.767-.938-.013-.051.139-.171.228-.235q1.655-1.189,3.31-2.359a1.071,1.071,0,0,1,.323-.1l.032.032c-.311.615.33-.013.273.273a12.281,12.281,0,0,1-4.692,3.526,2.262,2.262,0,0,0-.812.634C429.506,337.508,429.379,337.749,429.075,337.736Z" transform="translate(-382.272 -285.826)"/><path class="d" d="M451.344,320.7a3.874,3.874,0,0,0,2.137-1.706c.247.45.038.913.127,1.338-.057.114-.12.228-.178.342-.545-.165-.691.33-.938.609-.285.317-.564.444-.938.178a.354.354,0,0,0,.349-.266c.019-.082-.038-.133-.12-.12-.184.032-.247.178-.279.342-.2-.006-.355.222-.6.082C450.938,321.152,451.325,321.019,451.344,320.7Z" transform="translate(-390.318 -280.751)"/><path class="b" d="M424.214,350.455c-.457-.006-.989.241-1.262-.38a7.315,7.315,0,0,1-.932-1.725c.469.235.755.6,1.154.805a2.114,2.114,0,0,0,2.042.171,3.082,3.082,0,0,1,.742-.159c.051.051.108.1.159.152a2.535,2.535,0,0,1-1.509.729C424.366,350.119,424.144,350.119,424.214,350.455Z" transform="translate(-379.751 -291.494)"/><path class="b" d="M440.968,328.991c.355.1.476-.228.634-.412a7,7,0,0,1,1.56-1.059,1.01,1.01,0,0,1-.412.666,3.256,3.256,0,0,0-1,1.611c-.717-.488-1.015.3-1.5.5a1.335,1.335,0,0,1-.818.2c.5-.558,1.351-.691,1.528-1.5Z" transform="translate(-386.125 -283.872)"/><path class="b" d="M444.115,333.279c.025.26.222.3.4.228.717-.285,1.427.044,2.143-.019-.488.349-1.078.038-1.585.317h1.63v.139H442.34c.26-.184.514-.222.526-.5C443.278,333.336,443.64,332.848,444.115,333.279Z" transform="translate(-387.186 -285.915)"/><path class="b" d="M439.369,334.762c-.07.025-.139.051-.2.07a3.153,3.153,0,0,0-2.048.958c-.482.235-.856.7-1.458.672a9.73,9.73,0,0,1,3.938-2.441c.07.3-.33.438-.254.736C439.338,334.756,439.369,334.762,439.369,334.762Z" transform="translate(-384.742 -286.25)"/><path class="b" d="M450.68,332.276c.044.082.082.165.127.247l-2.834-.019a1,1,0,0,1-.2-.032A14.164,14.164,0,0,1,450.68,332.276Z" transform="translate(-389.173 -285.61)"/><path class="b" d="M418.186,346.991c-.057.12-.114.273-.273.139-.1-.089-.292-.184-.152-.374a3.843,3.843,0,0,1,.3-.336C418.554,346.515,418.148,346.8,418.186,346.991Z" transform="translate(-378.174 -290.788)"/><path class="b" d="M418.981,348.125c.235.12.222.292.139.514-.273-.139-.216-.342-.165-.539Z" transform="translate(-378.614 -291.403)"/><path class="b" d="M450.11,324.25a.852.852,0,0,1,.12.032c-.051.063-.1.133-.159.2-.044.044-.082.032-.082-.038C449.99,324.351,450,324.263,450.11,324.25Z" transform="translate(-389.985 -282.676)"/><path class="b" d="M452.542,332.585c.12-.057.235-.108.355-.165.013.057.051.127.025.171-.089.19-.26.133-.412.114A.486.486,0,0,0,452.542,332.585Z" transform="translate(-390.907 -285.665)"/><path class="b" d="M448.41,326.179c.063-.12.1-.273.279-.273l-.013-.006c-.013.171-.12.241-.266.279Z" transform="translate(-389.407 -283.279)"/><path class="b" d="M438.31,332.75c.025-.12.12-.165.228-.19a.107.107,0,0,1,.038.051.212.212,0,0,1-.235.171Z" transform="translate(-385.711 -285.716)"/><path class="b" d="M428.23,349.569c.089-.051.171-.108.26-.159.032.032.063.07.1.1-.063.07-.127.146-.2.216C428.338,349.67,428.281,349.619,428.23,349.569Z" transform="translate(-382.023 -291.882)"/><path class="b" d="M448.4,326.33Z" transform="translate(-389.403 -283.437)"/><path class="b" d="M449.5,325c.013-.019.025-.032.038-.051l-.044.044Z" transform="translate(-389.802 -282.932)"/><path class="b" d="M418.973,345.911l-.013-.051.044.006Z" transform="translate(-378.631 -290.583)"/><path class="c" d="M420.423,346.4c.013-.038.032-.07.044-.108.07.082.013.1-.057.1C420.416,346.385,420.423,346.4,420.423,346.4Z" transform="translate(-379.162 -290.74)"/><path class="b" d="M448.843,325.848c.013-.038.019-.07.032-.108.108.082-.013.07-.044.1C448.83,325.841,448.843,325.848,448.843,325.848Z" transform="translate(-389.561 -283.221)"/><path class="b" d="M429.39,348.766c-.006-.1.044-.14.14-.14l-.006-.006c-.044.051-.089.1-.133.146Z" transform="translate(-382.447 -291.593)"/><path class="b" d="M429.16,348.983a.123.123,0,0,1,.146-.127l-.006-.006c-.044.051-.089.1-.133.146Z" transform="translate(-382.363 -291.677)"/><path class="b" d="M428.88,349.161c.057-.032.12-.063.178-.1l.006.006c-.038.057-.076.108-.114.165A.726.726,0,0,0,428.88,349.161Z" transform="translate(-382.261 -291.754)"/><path class="b" d="M428.64,349.34c.051-.038.1-.082.152-.12a.726.726,0,0,0,.07.07l-.133.152A.681.681,0,0,0,428.64,349.34Z" transform="translate(-382.173 -291.812)"/><path class="b" d="M449.259,325.24l-.019.057c.006-.019.019-.032.025-.051Z" transform="translate(-389.711 -283.038)"/><path class="b" d="M449.276,325.166l.139-.139-.006-.006-.139.139Z" transform="translate(-389.722 -282.957)"/><path class="b" d="M439.1,332.3l.038.038a.081.081,0,0,1-.044.025c-.013,0-.025-.019-.038-.032A.193.193,0,0,1,439.1,332.3Z" transform="translate(-385.986 -285.621)"/><path class="c" d="M362.618,309.691c-.013.2-.025.393-.038.71a2.3,2.3,0,0,1-.514-1.541h-.006c.469.089.254.634.558.831Z" transform="translate(-357.811 -277.044)"/><path class="c" d="M360.473,294.572l-.133-1.122c.044-.038.082-.076.127-.12.19-.076.114-.266.165-.4C360.7,293.488,361.006,294.071,360.473,294.572Z" transform="translate(-357.181 -271.215)"/><path class="a" d="M371.94,333.19c.615.051,1.224.1,1.839.146-.063.025-.127.044-.19.07-.463-.006-.926-.019-1.389-.025C372.111,333.31,372.022,333.253,371.94,333.19Z" transform="translate(-361.426 -285.947)"/><path class="a" d="M362.046,307.354a.585.585,0,0,1-.266-.7Z" transform="translate(-357.695 -276.236)"/><path class="a" d="M367.532,317.98c.082.057.165.12.247.178l-.006-.006c.038.165.082.336.146.59a.931.931,0,0,1-.469-.678A1.009,1.009,0,0,0,367.532,317.98Z" transform="translate(-359.783 -280.381)"/><path class="c" d="M369.276,332.764c-.127-.019-.285.025-.336-.146-.006-.032.063-.114.108-.12.184-.032.222.1.254.241Z" transform="translate(-360.328 -285.692)"/><path class="a" d="M367.135,328.644c-.1-.032-.228-.025-.216-.184a.111.111,0,0,1,.076-.082c.146-.025.165.1.216.19A.858.858,0,0,0,367.135,328.644Z" transform="translate(-359.588 -284.185)"/><path class="c" d="M362,308.678a.22.22,0,0,1-.108-.266.1.1,0,0,1,.051-.032c.019.1.038.2.057.3Z" transform="translate(-357.746 -276.868)"/><path class="a" d="M368.712,319.78v.279l.006-.006c-.127-.013-.222-.076-.228-.2a1.333,1.333,0,0,1,.222-.07Z" transform="translate(-360.163 -281.04)"/><path class="c" d="M370.2,333.773a.211.211,0,0,1-.279.1c-.019-.006-.025-.032-.038-.051.1-.019.2-.044.311-.063C370.184,333.76,370.2,333.773,370.2,333.773Z" transform="translate(-360.672 -286.155)"/><path class="a" d="M366.88,317.364c.1-.013.184-.032.279-.044C367.1,317.574,367,317.529,366.88,317.364Z" transform="translate(-359.574 -280.14)"/><path class="a" d="M365.77,315.636c.216-.006.152.139.139.254h-.051l-.051.013c-.006-.089-.019-.178-.025-.273Z" transform="translate(-359.168 -279.521)"/><path class="c" d="M366.187,316.687l-.057-.057c.013.006.025.006.032.013s.013.032.025.044Z" transform="translate(-359.3 -279.887)"/><path class="a" d="M367.424,318.022a1.362,1.362,0,0,0-.044-.152l.127.07A1.009,1.009,0,0,1,367.424,318.022Z" transform="translate(-359.757 -280.341)"/><path class="a" d="M368.306,319.431a.294.294,0,0,1-.044.044c-.013-.019-.032-.032-.032-.051s.025-.032.038-.044C368.281,319.4,368.293,319.412,368.306,319.431Z" transform="translate(-360.068 -280.894)"/><path class="a" d="M368.84,320.22c.044.044.089.1.133.139l.013-.006a.127.127,0,0,1-.146-.133Z" transform="translate(-360.292 -281.201)"/><path class="a" d="M369.05,320.433a.127.127,0,0,1,.051.025c.006.006.006.025.006.038-.019-.025-.032-.051-.051-.076C369.063,320.426,369.05,320.433,369.05,320.433Z" transform="translate(-360.368 -281.274)"/><path class="b" d="M360.468,281.24c-.514.247-.964.647-1.6.571-.254-.032-.1.165-.07.273l.006-.006a2.426,2.426,0,0,1-1.477-2.416c.33.241.152.761.552,1.008.235-.374-.19-.685,0-1.059.336.495.552,1.059,1.179,1.275a1.1,1.1,0,0,0,1.465-.545c.2.361-.051.621-.057.907C360.462,281.252,360.468,281.24,360.468,281.24Z" transform="translate(-356.073 -266.341)"/><path class="b" d="M373,265.17a1.162,1.162,0,0,1-.786,1.11A2.073,2.073,0,0,1,373,265.17Z" transform="translate(-361.525 -261.057)"/><path class="b" d="M360.326,280.9c.235-.051.463-.108.7-.159a.818.818,0,0,0,.1.108c-.235.438-.59.336-.945.2C360.224,281,360.275,280.949,360.326,280.9Z" transform="translate(-357.123 -266.755)"/><path class="b" d="M360.94,283.861h-.45c.2-.184.323-.133.444.006Z" transform="translate(-357.236 -267.853)"/><path class="b" d="M359.65,283.506c.063.013.133.032.2.044-.1.127-.139.006-.19-.051Z" transform="translate(-356.929 -267.765)"/><path class="b" d="M360.016,281.069c-.089-.051-.178-.1-.266-.159.044-.038.089-.082.133-.12.1.044.184.082.279.127C360.118,280.968,360.067,281.018,360.016,281.069Z" transform="translate(-356.965 -266.773)"/><path class="b" d="M359.256,280.434c-.063-.044-.2-.063-.12-.165.063-.082.159-.006.2.082A.506.506,0,0,0,359.256,280.434Z" transform="translate(-356.731 -266.57)"/><path class="b" d="M359.673,280.862c-.044-.044-.089-.1-.133-.14a1.1,1.1,0,0,0,.1-.082c.057.038.114.07.171.1C359.762,280.779,359.718,280.818,359.673,280.862Z" transform="translate(-356.889 -266.718)"/><path class="b" d="M359.419,280.42c.044.044.1.089.14.133a.406.406,0,0,1-.1.082c-.044-.044-.089-.089-.133-.14C359.362,280.471,359.387,280.445,359.419,280.42Z" transform="translate(-356.812 -266.638)"/><path class="c" d="M463.991,286.79a.688.688,0,0,1,.114.006,3.508,3.508,0,0,1,.032,2.194,1.119,1.119,0,0,0-.171.723c-.032.837.273,1.642.2,2.492.152-.235.12-.552.393-.7a3.617,3.617,0,0,1-.082.938,10.452,10.452,0,0,0,.07,3.354l-.006-.006c-.019.178-.032.361-.051.539-.336.108-.209.374-.2.6-.038.279.082.583-.146.824-.013-.482-.025-.97-.044-1.452,0-.063,0-.133-.006-.2.006-.355.222-.685.133-1.053,0-.108,0-.209.006-.317a2.522,2.522,0,0,0-.159-1.477c-.2.266.044.609-.19.85a10.563,10.563,0,0,1,.044-2.41.706.706,0,0,0,.019-.342,6.739,6.739,0,0,1-.082-3.12l-.013.006C464.1,287.779,463.928,287.272,463.991,286.79Z" transform="translate(-395.008 -268.968)"/><path class="b" d="M464.708,292.777c-.273.146-.241.457-.393.7.076-.85-.235-1.655-.2-2.492a1.119,1.119,0,0,1,.171-.723c.368.089.228.387.247.621.044.539-.114,1.11.273,1.585l.032.038c-.006.044-.019.1-.025.139l-.12.139Z" transform="translate(-395.154 -270.238)"/><path class="b" d="M457.845,268.334c-.114-.393-.412-.742-.292-1.294.672.678.476,1.661,1.04,2.289a1.3,1.3,0,0,1-.755-.862l-.006.006c.032-.032.057-.07.089-.1-.032-.013-.057-.032-.089-.044Z" transform="translate(-392.743 -261.742)"/><path class="b" d="M463.043,277.9c-.387-.254-.932-.45-.393-1.072C462.789,277.2,462.916,277.553,463.043,277.9Z" transform="translate(-394.535 -265.324)"/><path class="c" d="M465.24,287.607c.235-.178.038-.482.317-.837-.146.748.159,1.363-.209,1.94A3.115,3.115,0,0,0,465.24,287.607Z" transform="translate(-395.565 -268.961)"/><path class="b" d="M463.706,280.945c.019-.114-.057-.342.159-.273.266.082.59.076.8.349-.361.26-.653-.013-.964-.082C463.7,280.932,463.706,280.945,463.706,280.945Z" transform="translate(-395.002 -266.725)"/><path class="b" d="M462.79,280.368c.013-.013.019-.025.032-.038a.47.47,0,0,1,.076.082c.006.006-.013.032-.025.051A1.1,1.1,0,0,0,462.79,280.368Z" transform="translate(-394.669 -266.605)"/><path class="b" d="M465.732,280.853a.607.607,0,0,1-.146.114c-.07.032-.139,0-.127-.076.006-.051.076-.1.127-.133C465.681,280.695,465.681,280.79,465.732,280.853Z" transform="translate(-395.645 -266.754)"/><path class="b" d="M457.975,269.21l-.1-.038.1-.1-.006-.006v.146Z" transform="translate(-392.872 -262.485)"/><path class="a" d="M465.038,290.439c.006-.044.019-.1.025-.139a.376.376,0,0,1,.514.222,10.413,10.413,0,0,1,.051,1.1c.431-2.454.6-4.946,1.275-7.368-.241,1.94-.564,3.874-.691,5.821A24.584,24.584,0,0,1,465,295.886c-.2-.127-.063-.342-.146-.488.019-.178.032-.361.051-.539.342-.647.025-1.319.089-1.972a8.621,8.621,0,0,0-.082,1.978,10.637,10.637,0,0,1-.07-3.354,3.617,3.617,0,0,0,.082-.938h-.019A.881.881,0,0,0,465.038,290.439Z" transform="translate(-395.383 -268.039)"/><path class="c" d="M458.348,314.526q.77-1.446,1.534-2.9c.6.038.52-.539.793-.869a2.313,2.313,0,0,1-.425,1.332,2.453,2.453,0,0,0-.3,1.148,1.423,1.423,0,0,1-.856,1.37c-.216.089-.222.33-.349.482-.165.2-.216.526-.558.545-.025-.247.3-.412.171-.685l-.006.013c.032-.013.089-.013.1-.032.019-.07-.013-.12-.1-.12C458.354,314.717,458.354,314.622,458.348,314.526Zm.7-.406a1.268,1.268,0,0,0,.476-1.072c-.159.361-.482.647-.469,1.084h-.108c.013.025.019.057.032.082C459.007,314.19,459.026,314.152,459.052,314.121Zm.666-1.319c-.019-.038-.032-.082-.051-.12-.013.019-.038.038-.038.057a.565.565,0,0,0,.044.12C459.686,312.84,459.7,312.821,459.717,312.8Z" transform="translate(-392.985 -277.739)"/><path class="a" d="M463.913,302.978c.228-.247.108-.552.146-.824.583.45.07.919.025,1.382l-.057.247.006-.013c-.235.19-.2.5-.33.717-.159.26-.12-.063-.178-.114.1-.076.133-.159.051-.266-.051.057-.108.114-.159.171a.064.064,0,0,0-.07.044c-.216-.013-.279-.146-.228-.33.279-.97-.051-2.016.476-2.942.07.051.076.285.279.279,0,.063,0,.133.006.2a5.518,5.518,0,0,0-.495,1.864c.241.26.342.1.393-.159a.264.264,0,0,0,.146-.279Z" transform="translate(-394.784 -274.186)"/><path class="c" d="M463.309,305.892a.069.069,0,0,1,.07-.044l.114.1c.057.051.019.38.178.114.133-.216.1-.533.33-.717a14.442,14.442,0,0,1-.951,3.513A10.117,10.117,0,0,1,463.309,305.892Z" transform="translate(-394.75 -275.756)"/><path class="a" d="M466.363,289.16a11.389,11.389,0,0,1,.507-4.16C466.648,286.313,466.73,287.657,466.363,289.16Z" transform="translate(-395.959 -268.314)"/><path class="a" d="M457.969,317.38c.127.273-.2.438-.171.685h.025c-.108.006-.139.082-.159.165-.171.228-.349.457-.52.691l-.044-.051c.006-.279.254-.507.171-.805l-.006.013c.165-.038.171-.159.146-.285l-.006.006c.108.006.146-.051.146-.146l-.006.006c.1,0,.14-.051.146-.146l-.006.006C457.779,317.475,457.874,317.424,457.969,317.38Z" transform="translate(-392.587 -280.162)"/><path class="a" d="M469.489,279.982c-.032-.044-.076-.076-.07-.1a1.03,1.03,0,0,1,.044-.19c.019.025.063.057.063.082A1.881,1.881,0,0,1,469.489,279.982Z" transform="translate(-397.095 -266.371)"/><path class="c" d="M464.56,305.217l.057-.247C464.719,305.078,464.668,305.154,464.56,305.217Z" transform="translate(-395.317 -275.621)"/><path class="a" d="M457,319.781c-.108.152-.2.152-.292-.019l-.006.006.247-.038Z" transform="translate(-392.44 -281.022)"/><path class="c" d="M462.61,311.374c.019-.063.032-.12.051-.184l.057.038c-.038.044-.07.1-.108.146Z" transform="translate(-394.603 -277.897)"/><path class="c" d="M462.551,311.48c-.019.063-.032.12-.051.184-.019-.013-.032-.025-.051-.038.032-.051.07-.1.1-.146Z" transform="translate(-394.544 -278.003)"/><path class="a" d="M469.276,280.53c.006.019.019.044.013.063-.019.07-.044.076-.07.019a.078.078,0,0,1,.013-.063C469.238,280.536,469.263,280.536,469.276,280.53Z" transform="translate(-397.02 -266.678)"/><path class="c" d="M457.99,318.625c.019-.089.051-.165.159-.165C458.091,318.517,458.041,318.568,457.99,318.625Z" transform="translate(-392.913 -280.557)"/><path class="a" d="M437.95,336.257A3.154,3.154,0,0,1,440,335.3C439.453,335.915,438.635,335.934,437.95,336.257Z" transform="translate(-385.58 -286.719)"/><path class="a" d="M452.47,333.4h-1.63c.59.051,1.154-.33,1.75-.12l.025-.006c-.082.013-.171.025-.146.146Z" transform="translate(-390.296 -285.958)"/><path class="a" d="M441.5,335.186l-.025-.006h.076C441.527,335.18,441.508,335.186,441.5,335.186Z" transform="translate(-386.868 -286.675)"/><path class="a" d="M426.53,342.3l.26.019c-.019.032-.032.082-.057.089-.108.038-.165-.019-.19-.12C426.536,342.29,426.53,342.3,426.53,342.3Z" transform="translate(-381.401 -289.277)"/><path class="a" d="M427.624,342.782c-.057.013-.152.051-.165.032-.057-.082.032-.1.082-.114A.507.507,0,0,1,427.624,342.782Z" transform="translate(-381.734 -289.427)"/><path class="c" d="M463.01,285.7c.057-.152-.013-.349.171-.45a5.628,5.628,0,0,1,.361,1.94c-.07-.006-.14-.006-.209-.013C463.226,286.689,463.118,286.195,463.01,285.7Z" transform="translate(-394.749 -268.405)"/><path class="b" d="M463.964,297.84c.235-.241-.006-.583.19-.85a2.523,2.523,0,0,1,.159,1.477C463.97,298.385,463.925,298.138,463.964,297.84Z" transform="translate(-395.094 -272.701)"/><path class="b" d="M463.52,288.3c.07.006.139.006.209.013a.64.64,0,0,1,.044.495l.013-.006c-.076.2-.152.4-.266.685C463.52,289.023,463.52,288.661,463.52,288.3Z" transform="translate(-394.936 -269.521)"/><path class="b" d="M456.954,319.265l-.247.038a.99.99,0,0,1,.418-.843C457.208,318.758,456.954,318.986,456.954,319.265Z" transform="translate(-392.441 -280.557)"/><path class="b" d="M459.71,310.943c.108-.241.216-.482.38-.843a.918.918,0,0,1-.273.957A.92.92,0,0,0,459.71,310.943Z" transform="translate(-393.542 -277.498)"/><path class="b" d="M458.3,317.135c-.1.051-.19.1-.285.146a.581.581,0,0,1,.273-.571c0,.1.006.19.006.285v.152Z" transform="translate(-392.918 -279.917)"/><path class="b" d="M457.506,318.03c.025.133.019.247-.146.285C457.411,318.22,457.455,318.125,457.506,318.03Z" transform="translate(-392.682 -280.4)"/><path class="b" d="M459.759,311.534l-.216.2.006.006a.28.28,0,0,1,.1-.317C459.683,311.464,459.721,311.5,459.759,311.534Z" transform="translate(-393.477 -277.981)"/><path class="b" d="M459.51,311.91a.156.156,0,0,1-.025.057c-.006.006-.032.006-.044.006a.331.331,0,0,0,.07-.063Z" transform="translate(-393.443 -278.16)"/><path class="b" d="M457.946,317.59c-.006.1-.044.146-.146.146C457.806,317.647,457.844,317.59,457.946,317.59Z" transform="translate(-392.843 -280.239)"/><path class="b" d="M457.726,317.81c0,.1-.044.152-.146.146C457.624,317.905,457.675,317.861,457.726,317.81Z" transform="translate(-392.763 -280.319)"/><path class="a" d="M384.31,335.3a3.078,3.078,0,0,1,2.112.97A6.8,6.8,0,0,1,384.31,335.3Z" transform="translate(-365.952 -286.719)"/><path class="b" d="M374.107,333.961c-.2.222-.45.114-.716.127.222-.285.482-.146.716-.127Z" transform="translate(-361.956 -286.21)"/><path class="b" d="M383.079,334.325a.257.257,0,0,1-.076.019c-.006,0-.006-.032-.013-.044C383.015,334.306,383.041,334.313,383.079,334.325Z" transform="translate(-365.469 -286.353)"/><path class="c" d="M449.22,335.151a.743.743,0,0,1,.615-.038A.584.584,0,0,1,449.22,335.151Z" transform="translate(-389.703 -286.633)"/><path class="c" d="M457.061,332.089a.758.758,0,0,1-.051-.1l.146-.057c.006.038.032.089.019.114S457.1,332.069,457.061,332.089Z" transform="translate(-392.554 -285.486)"/><path class="a" d="M458.4,328.389c.025-.063.019-.2.114-.146.076.038.019.139-.063.184Z" transform="translate(-393.063 -284.133)"/><path class="c" d="M453.407,333.466c-.025-.12.063-.133.146-.146Z" transform="translate(-391.234 -285.994)"/><path class="a" d="M392.125,342.981a1.329,1.329,0,0,1,.127.139c.361.5.025,1.11.26,1.63.025.279.051.552.07.831-.044.038-.1.076-.14.12-.025-.057-.051-.114-.082-.171-.127-.33.032-.85-.583-.837-.032-.59-.317-1.192.089-1.763A1.179,1.179,0,0,1,392.125,342.981Z" transform="translate(-368.638 -289.511)"/><path class="b" d="M391.86,345.69c.615-.013.457.514.583.837C391.778,346.571,392.063,345.956,391.86,345.69Z" transform="translate(-368.715 -290.521)"/><path class="b" d="M396.557,351.511c-.387-.1-.755-.222-.831-.691l-.006.006c.393.1.761.216.837.685Z" transform="translate(-370.127 -292.398)"/><path class="b" d="M395.408,350.566c-.178-.076-.476.336-.558-.139v.006c.19-.019.057-.368.279-.3a.43.43,0,0,1,.279.431Z" transform="translate(-369.809 -292.144)"/><path class="b" d="M393.54,347.98a.342.342,0,0,1,.311.228c.082.165.1.336-.1.387s-.184-.146-.2-.273a3.094,3.094,0,0,1-.013-.342Z" transform="translate(-369.33 -291.359)"/><path class="b" d="M392.894,347.21c.044-.038.1-.076.14-.12.361.057.235.342.26.558h0C392.983,347.673,392.843,347.534,392.894,347.21Z" transform="translate(-369.089 -291.033)"/><path class="b" d="M397.03,351.918c.165.025.368-.076.514.159-.241.114-.374-.032-.514-.159Z" transform="translate(-370.607 -292.799)"/><path class="b" d="M394.581,350.3l-.1-.139c.159-.038.057.1.1.139Z" transform="translate(-369.673 -292.152)"/><path class="b" d="M394.766,350.52l-.139-.14-.006.006c.051.044.1.089.146.133Z" transform="translate(-369.725 -292.237)"/><path class="a" d="M427.575,348.974l.133-.152c.038-.057.076-.108.114-.165s.089-.1.133-.146l.139-.14c.3-.057.38-.526.774-.412a7.919,7.919,0,0,1-1.788,1.775,3.722,3.722,0,0,1-1.6.564c-.07-.336.152-.336.393-.393a2.59,2.59,0,0,0,1.509-.729C427.442,349.114,427.505,349.044,427.575,348.974Z" transform="translate(-381.013 -291.345)"/><path class="a" d="M430.909,347.671a.267.267,0,0,1,.146-.361C431.105,347.475,431.01,347.576,430.909,347.671Z" transform="translate(-382.996 -291.113)"/><path class="a" d="M431.13,347.246a.214.214,0,0,1,.222-.146C431.276,347.151,431.206,347.2,431.13,347.246Z" transform="translate(-383.084 -291.037)"/><path class="a" d="M464.949,283.05c-.114.025-.228.038-.336.07-.932.247-1.04.184-1.313-.85a3.186,3.186,0,0,0,1.655.539c.165-.013.006.165-.019.254C464.936,283.056,464.949,283.05,464.949,283.05Z" transform="translate(-394.855 -267.315)"/><path class="a" d="M463.686,287.651a.64.64,0,0,0-.044-.495,5.628,5.628,0,0,0-.361-1.94c.285-.184.26.108.317.228.12.235.051.526.228.748C463.768,286.674,463.939,287.181,463.686,287.651Z" transform="translate(-394.848 -268.371)"/><path class="a" d="M462.545,285.587l-.1-.152c0-.006.032-.025.051-.044.019.063.038.127.057.184Z" transform="translate(-394.544 -268.456)"/><path class="c" d="M462.8,284.142c-.019-.013-.038-.019-.057-.032.019.013.038.019.057.032Z" transform="translate(-394.651 -267.988)"/><path class="c" d="M462.83,284.16c.019.013.038.019.057.032-.019-.013-.038-.019-.057-.032Z" transform="translate(-394.684 -268.006)"/><path class="b" d="M358.764,289.66a2.439,2.439,0,0,1-.19-1.63C358.637,288.575,358.7,289.114,358.764,289.66Z" transform="translate(-356.512 -269.422)"/><path class="a" d="M455.092,261.265c-.152-.038-.171-.152-.139-.285C455.13,261.012,455.155,261.12,455.092,261.265Z" transform="translate(-391.796 -259.524)"/><path class="a" d="M455.315,261.563c-.12.025-.152-.044-.146-.146C455.3,261.392,455.315,261.468,455.315,261.563Z" transform="translate(-391.88 -259.682)"/><path class="a" d="M431.055,346.613a.663.663,0,0,0-.025-.108.688.688,0,0,1,.114-.006c.013,0,.025.051.019.051A.6.6,0,0,1,431.055,346.613Z" transform="translate(-383.048 -290.816)"/><path class="a" d="M430.61,346.977l.152-.057c-.019.051-.038.1-.057.159C430.667,347.04,430.642,347.009,430.61,346.977Z" transform="translate(-382.894 -290.971)"/><path class="a" d="M430.39,347.15l.139-.14.1.1c-.044.044-.1.089-.139.139C430.447,347.213,430.422,347.181,430.39,347.15Z" transform="translate(-382.813 -291.004)"/><path class="a" d="M430.395,347.319c-.044.051-.089.1-.133.146l-.1-.1c.051-.044.1-.089.139-.133C430.338,347.262,430.363,347.293,430.395,347.319Z" transform="translate(-382.729 -291.084)"/><path class="a" d="M430.177,347.541c-.044.044-.089.1-.133.14-.038-.038-.076-.07-.114-.108.051-.044.1-.089.146-.133Z" transform="translate(-382.645 -291.161)"/><path class="a" d="M429.967,347.768l-.139.14c-.038-.038-.07-.076-.108-.12.044-.044.089-.082.133-.127C429.891,347.692,429.929,347.73,429.967,347.768Z" transform="translate(-382.568 -291.242)"/><path class="a" d="M381.33,329.16c.431.139.488.495.507.875A.9.9,0,0,1,381.33,329.16Z" transform="translate(-364.862 -284.472)"/><path class="a" d="M381.21,331.816c.089-.082.2-.266.3-.133s-.089.2-.2.247C381.273,331.892,381.242,331.854,381.21,331.816Z" transform="translate(-364.818 -285.378)"/><path class="a" d="M365.116,314.11c.241.1.26.3.266.6a.6.6,0,0,1-.266-.6Z" transform="translate(-358.927 -278.965)"/><path class="a" d="M364.819,313.222c-.019.025-.038.044-.057.07a.688.688,0,0,1-.032-.108c0-.013.019-.032.032-.044A.943.943,0,0,1,364.819,313.222Z" transform="translate(-358.788 -278.61)"/><path class="a" d="M365.059,313.961a.156.156,0,0,1-.12-.19c.006-.019.057-.032.082-.051.013.082.019.165.038.241Z" transform="translate(-358.863 -278.822)"/><path class="a" d="M365.717,315.495c-.044-.07-.082-.139-.127-.2.032-.013.063-.019.1-.032.006.082.013.165.019.241Z" transform="translate(-359.102 -279.386)"/><g transform="translate(13.742 1.773)"><path class="b" d="M399.388,306.126a22.323,22.323,0,1,1,22.295-22.4A22.335,22.335,0,0,1,399.388,306.126Zm-21.857-22.155a21.823,21.823,0,1,0,21.648-22A21.833,21.833,0,0,0,377.531,283.971Z" transform="translate(-377.03 -261.48)"/><path class="c" d="M400.023,305.632A21.166,21.166,0,1,1,421.2,284.555,21.215,21.215,0,0,1,400.023,305.632Zm-19.86-21.153a19.869,19.869,0,1,0,19.752-19.866A19.885,19.885,0,0,0,380.164,284.478Z" transform="translate(-377.703 -262.146)"/></g><path class="a" d="M451.86,322.6c.032-.165.089-.311.279-.342a.1.1,0,0,1,.12.12c-.038.184-.178.247-.349.266C451.9,322.652,451.86,322.6,451.86,322.6Z" transform="translate(-390.669 -281.946)"/><path class="b" d="M463.925,303.506c-.051.254-.152.418-.393.159a5.444,5.444,0,0,1,.495-1.864c.013.482.025.97.044,1.452v-.019C463.956,303.29,463.785,303.322,463.925,303.506Z" transform="translate(-394.935 -274.461)"/><path class="c" d="M465.14,294.01l-.12.139Z" transform="translate(-395.485 -271.61)"/><path class="a" d="M458.01,269.226v-.146c.032.013.057.032.089.044C458.073,269.156,458.042,269.188,458.01,269.226Z" transform="translate(-392.92 -262.488)"/><path class="b" d="M465.019,299.858a8.268,8.268,0,0,1,.082-1.978c-.063.659.254,1.325-.089,1.972C465.006,299.852,465.019,299.858,465.019,299.858Z" transform="translate(-395.478 -273.026)"/><path class="a" d="M459.556,315.454c-.013-.437.311-.723.469-1.084a1.285,1.285,0,0,1-.476,1.072Z" transform="translate(-393.483 -279.06)"/><path class="a" d="M460.549,313.907a.362.362,0,0,1-.044.051.676.676,0,0,1-.044-.12c0-.013.025-.038.038-.057C460.517,313.824,460.53,313.869,460.549,313.907Z" transform="translate(-393.816 -278.844)"/><path class="a" d="M459.5,316.06c-.019.032-.044.07-.063.1-.013-.025-.019-.057-.032-.082h.108A.091.091,0,0,1,459.5,316.06Z" transform="translate(-393.428 -279.679)"/><path class="a" d="M458.46,317.3v-.152c.082,0,.114.051.1.12C458.549,317.289,458.492,317.3,458.46,317.3Z" transform="translate(-393.085 -280.078)"/><path class="c" d="M464.131,304.329c-.133-.19.032-.216.146-.279A.264.264,0,0,1,464.131,304.329Z" transform="translate(-395.142 -275.284)"/><path class="c" d="M463.59,306.041c.051-.057.108-.114.159-.171a.169.169,0,0,1-.051.266C463.666,306.1,463.628,306.073,463.59,306.041Z" transform="translate(-394.962 -275.95)"/><g transform="translate(21.966 6.079)"><path class="e" d="M419.743,273.313a3.452,3.452,0,0,1-2.346,3.424c-.273.1-.349.006-.393-.247a3.428,3.428,0,0,1,2.08-3.906c.507-.222.558-.2.634.342C419.737,273.091,419.743,273.263,419.743,273.313Z" transform="translate(-399.858 -269.801)"/><path class="e" d="M423.305,276.542a3.27,3.27,0,0,1-2.568,3.278c-.26.063-.361.006-.387-.266a3.308,3.308,0,0,1,2.581-3.589C423.584,275.813,423.166,276.377,423.305,276.542Z" transform="translate(-401.099 -271.077)"/><path class="e" d="M402.969,272.558c-.019-.9.063-.957.869-.583a3.3,3.3,0,0,1,1.94,3.487c-.032.285-.1.412-.431.3A3.242,3.242,0,0,1,402.969,272.558Z" transform="translate(-394.744 -269.547)"/><path class="e" d="M401.107,292.089a4.377,4.377,0,0,1,1.192.254c.26.082.342.19.171.457a3.349,3.349,0,0,1-4.217,1.351c-.184-.076-.355-.133-.184-.38A3.4,3.4,0,0,1,401.107,292.089Z" transform="translate(-392.927 -276.986)"/><path class="e" d="M425.975,284.646c-.78-.013-.805-.057-.514-.755a3.261,3.261,0,0,1,3.545-2.048c.323.038.412.133.279.463A3.253,3.253,0,0,1,425.975,284.646Z" transform="translate(-402.913 -273.227)"/><path class="e" d="M422.69,282.12c.824.019.85.063.495.824a3.225,3.225,0,0,1-3.418,1.985c-.476-.038-.514-.1-.355-.533A3.277,3.277,0,0,1,422.69,282.12Z" transform="translate(-400.731 -273.338)"/><path class="e" d="M428.513,289.359a3.388,3.388,0,0,1-2.917-1.649c-.12-.171-.1-.26.1-.342a3.316,3.316,0,0,1,4.35,1.294c.171.241.044.33-.152.4A4.09,4.09,0,0,1,428.513,289.359Z" transform="translate(-402.997 -275.137)"/><path class="e" d="M421.363,287.889a3.267,3.267,0,0,1,3.164,2.023c.12.228.044.323-.178.387a3.363,3.363,0,0,1-4.058-1.947c-.089-.2-.07-.3.159-.361A4.662,4.662,0,0,1,421.363,287.889Z" transform="translate(-401.066 -275.449)"/><path class="e" d="M395.014,284.379a3.343,3.343,0,0,1,2.638,1.363c.165.184.127.3-.1.418a3.341,3.341,0,0,1-4.369-.907c-.165-.222-.146-.317.1-.444A4.408,4.408,0,0,1,395.014,284.379Z" transform="translate(-391.127 -274.165)"/><path class="e" d="M399.082,281.654a3.278,3.278,0,0,1,3.177,3.113c.032.279-.07.342-.33.323a3.34,3.34,0,0,1-3.132-3.069C398.771,281.743,398.829,281.6,399.082,281.654Z" transform="translate(-393.217 -273.164)"/><path class="e" d="M400.373,278.2c.044.678-.044.748-.672.514a3.229,3.229,0,0,1-2.321-3.323c0-.488.044-.52.495-.38A3.214,3.214,0,0,1,400.373,278.2Z" transform="translate(-392.7 -270.71)"/><path class="e" d="M399.191,290.446a4.29,4.29,0,0,1-1.864-.507c-.2-.108-.266-.209-.108-.419a3.393,3.393,0,0,1,4.439-.774c.19.127.19.216.057.393A3.806,3.806,0,0,1,399.191,290.446Z" transform="translate(-392.609 -275.577)"/><path class="e" d="M394.849,281.678a3.2,3.2,0,0,1-3.189-2.251c-.1-.3-.082-.425.279-.463a3.266,3.266,0,0,1,3.646,2.1c.209.52.171.583-.412.609A2.757,2.757,0,0,1,394.849,281.678Z" transform="translate(-390.588 -272.174)"/><path class="e" d="M414.459,273.57a3.307,3.307,0,0,1-1.382,2.346c-.178.152-.279.089-.387-.1a3.264,3.264,0,0,1,.964-4.261c.2-.139.285-.1.374.1A4.471,4.471,0,0,1,414.459,273.57Z" transform="translate(-398.15 -269.442)"/><path class="e" d="M410.6,276.651c-.006.4.063.964-.241,1.11-.349.165-.723-.273-1.034-.533a3,3,0,0,1-.926-3.247c.063-.3.222-.279.431-.159A3,3,0,0,1,410.6,276.651Z" transform="translate(-396.687 -270.272)"/><path class="e" d="M391.94,290.125a3.594,3.594,0,0,1-1.744-.507c-.228-.127-.266-.235-.07-.45a3.1,3.1,0,0,1,4.014-.564c.241.152.3.247.07.469A3.205,3.205,0,0,1,391.94,290.125Z" transform="translate(-390 -275.53)"/><path class="e" d="M415.057,280.346a3.12,3.12,0,0,1-1.072,2.289c-.19.2-.292.108-.412-.082a3.017,3.017,0,0,1,.583-3.931c.222-.2.323-.139.438.089A3.429,3.429,0,0,1,415.057,280.346Z" transform="translate(-398.45 -272.015)"/><path class="e" d="M422.243,298.928c-.013.279.082.723-.19.85-.247.114-.583-.178-.85-.361a2.888,2.888,0,0,1-1.243-3.044c.057-.266.139-.361.425-.235A2.853,2.853,0,0,1,422.243,298.928Z" transform="translate(-400.938 -278.448)"/><path class="e" d="M422.238,293.936a2.953,2.953,0,0,1-2.327-1.294c-.152-.184-.089-.279.108-.38a3,3,0,0,1,3.811.951c.152.222.1.3-.114.4A3.505,3.505,0,0,1,422.238,293.936Z" transform="translate(-400.914 -276.931)"/><path class="e" d="M425.829,298.5a2.817,2.817,0,0,1-2.765-1.9c-.127-.33.032-.361.279-.4a2.925,2.925,0,0,1,3.291,1.775c.171.368.076.507-.3.514C426.171,298.506,426,298.5,425.829,298.5Z" transform="translate(-402.082 -278.476)"/><path class="e" d="M410.506,282.788c0,.774-.044.805-.767.514a2.581,2.581,0,0,1-1.718-2.841c.038-.368.159-.469.533-.349A2.582,2.582,0,0,1,410.506,282.788Z" transform="translate(-396.588 -272.586)"/><path class="e" d="M409.158,269.849a3.2,3.2,0,0,1,.311-1.338c.1-.254.209-.323.469-.127a2.827,2.827,0,0,1,.786,3.589c-.108.2-.184.273-.406.114A2.892,2.892,0,0,1,409.158,269.849Z" transform="translate(-397.008 -268.271)"/><path class="e" d="M400.486,297.265a2.183,2.183,0,0,1-2,2.264c-.355.051-.495-.038-.488-.425a2.184,2.184,0,0,1,1.915-2.327C400.454,296.681,400.5,296.719,400.486,297.265Z" transform="translate(-392.927 -278.687)"/><path class="e" d="M402.909,277.66c-.013-.571.006-.583.552-.393a2.6,2.6,0,0,1,1.858,2.657c-.006.355-.12.412-.444.311A2.607,2.607,0,0,1,402.909,277.66Z" transform="translate(-394.722 -271.522)"/><path class="e" d="M406.625,284.826a2.55,2.55,0,0,1-2.517-2.01c-.051-.216-.019-.3.222-.323a2.6,2.6,0,0,1,2.777,1.985C407.228,285.036,406.771,284.738,406.625,284.826Z" transform="translate(-395.155 -273.471)"/><path class="e" d="M418.37,281.789a2.58,2.58,0,0,1-1.1,1.928c-.171.139-.254.07-.355-.1a2.618,2.618,0,0,1,.793-3.323c.178-.12.266-.089.342.1A3.4,3.4,0,0,1,418.37,281.789Z" transform="translate(-399.741 -272.646)"/><path class="e" d="M418.188,270.354a2.455,2.455,0,0,1-1.275,2.143c-.19.127-.311.082-.368-.133a2.5,2.5,0,0,1,1.122-3.094c.2-.127.3-.082.361.139A3.684,3.684,0,0,1,418.188,270.354Z" transform="translate(-399.659 -268.611)"/><path class="e" d="M428.224,277.182a2.466,2.466,0,0,1-2.061,2.384c-.285.057-.393.006-.374-.3a2.5,2.5,0,0,1,1.991-2.4C428.167,276.77,428.249,276.827,428.224,277.182Z" transform="translate(-403.095 -271.4)"/><path class="e" d="M422.1,273.662a2.465,2.465,0,0,1,2.067-2.34c.279-.051.349.044.349.311a2.512,2.512,0,0,1-2.105,2.435C421.983,274.131,422.116,273.84,422.1,273.662Z" transform="translate(-401.742 -269.383)"/><path class="e" d="M402.58,298.1a2.365,2.365,0,0,1,1.6-2.3c.241-.1.342-.089.387.216a2.365,2.365,0,0,1-1.395,2.6c-.5.254-.571.209-.59-.336Z" transform="translate(-394.603 -278.328)"/><path class="e" d="M428.665,293.82a2.487,2.487,0,0,1-2.073-1.027c-.159-.2-.076-.279.12-.374a2.447,2.447,0,0,1,3.056.7c.165.216.152.336-.108.444A2.7,2.7,0,0,1,428.665,293.82Z" transform="translate(-403.359 -277.011)"/><path class="e" d="M394.837,292.11c.3.063.793-.082.938.3.133.349-.273.583-.507.824a2.258,2.258,0,0,1-2.454.45c-.26-.114-.159-.26-.063-.393A2.346,2.346,0,0,1,394.837,292.11Z" transform="translate(-390.969 -276.994)"/><path class="e" d="M431.421,286.459a2.28,2.28,0,0,1-1.522-.539c-.19-.146-.146-.247.032-.387a2.129,2.129,0,0,1,2.676.1c.165.152.184.26-.013.387A2.288,2.288,0,0,1,431.421,286.459Z" transform="translate(-404.554 -274.432)"/><path class="c" d="M414.136,293.743c0,2.061-.019,4.122.006,6.182a2.8,2.8,0,0,1-1.858,2.885.849.849,0,0,0-.482.52,6.906,6.906,0,0,0-.418,2.346,14.667,14.667,0,0,0,.273,4.077,4.3,4.3,0,0,0,.139.488c.235.7.235.7-.539.7-.8,0-1.6-.006-2.4.006-.336.006-.393-.063-.241-.387a6.635,6.635,0,0,0,.514-2.378,13.963,13.963,0,0,0-.216-4.356,1.56,1.56,0,0,0-.919-1.167,2.536,2.536,0,0,1-1.547-2.511c.025-2.568.057-5.136.07-7.7.006-1.541.032-3.075-.082-4.61-.019-.247-.006-.495-.019-.736-.013-.222.133-.292.311-.323.241-.044.235.139.26.285.247,1.439.457,2.879.628,4.331.165,1.408.317,2.809.393,4.223.006.108.025.216.038.323.013.127.038.247.2.26.184.013.247-.1.26-.254.038-.4.076-.8.1-1.2.159-2.593.235-5.193.152-7.793,0-.063-.006-.12-.006-.184-.006-.165.013-.311.222-.33.228-.019.285.12.3.311.114,1.021.247,2.048.349,3.069.2,1.991.361,3.982.431,5.979.006.152-.133.425.235.412.311-.013.279-.222.285-.418.089-1.427.146-2.86.266-4.28.127-1.56.3-3.12.476-4.68.019-.178-.019-.437.292-.431s.247.26.247.444q-.048,3.462.1,6.918c.032.717.12,1.433.178,2.156.013.139.013.3.209.285.159-.013.152-.159.165-.285.184-1.693.349-3.392.558-5.079.152-1.249.349-2.5.533-3.741.025-.178-.032-.438.3-.393.3.038.26.26.247.457A61.577,61.577,0,0,0,414.136,293.743Z" transform="translate(-396.008 -274.905)"/></g></g><g transform="translate(4880.001 1502.926)"><path class="c" d="M515.508,273.3a.646.646,0,0,1-.6.634,28.2,28.2,0,0,0-5.377-.457c-15.491,0-21.718,8.807-21.718,12.8a.343.343,0,0,1-.387.355c-.742,0-2.264-1.414-2.264-3.538,0-4.883,7.926-11.464,20.056-11.464C513.776,271.636,515.508,272.943,515.508,273.3Zm-10.044,2.79c0,.178-.355.457-.989,1.1-2.8,2.828-8.205,13.9-8.205,21.965,0,3.4,1.027,3.5,1.027,3.747,0,.355-.457.742-1.167.742-1.947,0-3.786-1.592-3.786-5.161,0-10.012,10.4-23.455,12.029-23.455A1.336,1.336,0,0,1,505.464,276.088Z" transform="translate(-485.16 -271.63)"/><path class="c" d="M516.27,310.379a4,4,0,0,1-4.28-4.141c0-4.458,4.318-7.888,6.829-7.888a2.6,2.6,0,0,1,2.086,2.3c-.038,2.3-2.619,4.882-4.489,4.882a3.306,3.306,0,0,1-1.135-.387,6.151,6.151,0,0,0-.457,2.441c0,1.059.387,1.414.85,1.414,2.4,0,5.555-3.678,7.286-6.119.14-.178.216-.285.317-.285a.712.712,0,0,1,.6.634,1.411,1.411,0,0,1-.285.71C522.288,305.851,518.6,310.379,516.27,310.379Zm-.526-6.366c.919,0,3.786-2.758,3.855-3.716,0-.139-.07-.247-.178-.247C519.028,300.049,517.513,300.9,515.744,304.012Z" transform="translate(-494.977 -281.407)"/><path class="c" d="M530.523,304.578c-1.237,0-3.183-1.344-3.183-4.21,0-6.227,8.63-17.26,8.7-21.648,0-.495.139-.78.425-.78s1.306,1.059,1.306,2.866c0,4.033-7.6,16.34-7.6,21.648,0,.457.247.7.533.7.919,0,4.527-4.775,6.614-7.749.14-.178.209-.285.317-.285a.712.712,0,0,1,.6.634,1.411,1.411,0,0,1-.285.71C536.357,299.093,532.926,304.578,530.523,304.578Z" transform="translate(-500.594 -273.939)"/><path class="c" d="M544.3,304.578c-1.237,0-3.183-1.344-3.183-4.21,0-6.227,8.63-17.26,8.7-21.648,0-.495.139-.78.425-.78s1.306,1.059,1.306,2.866c0,4.033-7.6,16.34-7.6,21.648,0,.457.247.7.533.7.919,0,4.527-4.775,6.614-7.749.14-.178.216-.285.317-.285a.712.712,0,0,1,.6.634,1.41,1.41,0,0,1-.285.71C550.137,299.093,546.706,304.578,544.3,304.578Z" transform="translate(-505.636 -273.939)"/><path class="c" d="M564.538,307.566a2.675,2.675,0,0,1-2.758-2.828c-.108.247-2.441,5.517-5.092,5.517a2.884,2.884,0,0,1-2.9-2.758c.038-3.5,3.468-6.931,4.6-10.291a.478.478,0,0,1,.425-.355c.71,0,1.592.989,1.592,2.264,0,1.522-3.113,6.157-3.113,8.738,0,.317.178.495.425.495.564,0,1.7-1.522,3.678-4.99,1.731-3.044,2.016-4.883,3.006-4.883a1.9,1.9,0,0,1,1.661,1.769c0,1.452-1.731,3.145-1.731,4.952a.567.567,0,0,0,.564.6c.78,0,2.372-2.016,3.538-3.468.139-.178.209-.285.317-.285a.712.712,0,0,1,.6.634,1.411,1.411,0,0,1-.285.71C568.254,304.668,566.269,307.566,564.538,307.566Z" transform="translate(-510.273 -280.858)"/><path class="c" d="M576.58,301.725c-.178,0-.71-.317-.71-.672a2.162,2.162,0,0,1,.387-.71c1.376-2.054,2.441-3.963,2.441-3.963a4.494,4.494,0,0,1-.881-2.054c0-1.769,1.661-3.786,2.511-3.786a1.294,1.294,0,0,1,1.135,1.344,8.936,8.936,0,0,1-1.376,3.468c0,1.135,2.758,2.758,2.758,4.388,0,1.731-1.769,3.995-1.769,6.227,0,.355.216.533.425.533,1.1,0,4.667-4.7,5.941-6.474.139-.178.216-.285.317-.285a.712.712,0,0,1,.6.634,1.411,1.411,0,0,1-.285.71c-1.2,1.769-4.635,6.969-6.969,6.969a3.35,3.35,0,0,1-3.468-3.113c0-2.936,2.9-4.952,2.9-6.614,0-.457-.108-.495-.919-1.135,0,0-.919,1.554-2.65,4.172C576.827,301.579,576.72,301.725,576.58,301.725Z" transform="translate(-518.352 -278.549)"/><path class="c" d="M595.229,306.92a3.509,3.509,0,0,1-3.4-3.678c0-2.549,2.333-4.318,4.489-7.888.247-.425.355-.742.6-.742.285,0,.85.634.85,1.306-.07,3.075-3.151,6.227-3.221,8.846,0,.6.317.78.6.78.919,0,4.388-4.141,5.593-5.84.139-.178.209-.285.317-.285a.712.712,0,0,1,.6.634,1.411,1.411,0,0,1-.285.71C600.39,302.462,597.207,306.92,595.229,306.92Zm5.022-15.992a1.213,1.213,0,0,1-.989,1.135,1.678,1.678,0,0,1-1.592-1.522.871.871,0,0,1,.958-.881C599.293,289.654,600.251,290.078,600.251,290.928Z" transform="translate(-524.192 -278.227)"/><path class="c" d="M618.844,295.313c.14-.178.216-.285.317-.285a.712.712,0,0,1,.6.634,1.411,1.411,0,0,1-.285.71c-1.2,1.769-3.253,4.99-4.635,4.99-2.124,0-2.866-1.484-2.866-4.172-1.909,2.086-3.925,6.157-6.189,6.157A3.266,3.266,0,0,1,603.1,300.3c0-4.844,5.092-9.48,8.205-9.48.888,0,1.56.634,1.56.989,0,.216-.85.564-1.661,1.306-1.56,1.414-5.485,4.883-5.485,8.243,0,.247.108.425.317.425.812,0,5.834-6.512,7.432-9.232a46.788,46.788,0,0,0,5.161-13.8c.178-.881.216-1.1.564-1.1.78,0,2.333,1.306,2.333,3.538,0,3.253-7.393,13.69-7.393,17.761,0,.6.178,1.027.533,1.027C615.446,299.98,617.57,297.082,618.844,295.313Z" transform="translate(-528.316 -273.836)"/><path class="c" d="M630.81,310.379a4,4,0,0,1-4.28-4.141c0-4.458,4.318-7.888,6.829-7.888a2.6,2.6,0,0,1,2.086,2.3c-.038,2.3-2.619,4.882-4.489,4.882a3.306,3.306,0,0,1-1.135-.387,6.152,6.152,0,0,0-.456,2.441c0,1.059.387,1.414.85,1.414,2.4,0,5.555-3.678,7.286-6.119.14-.178.216-.285.317-.285a.712.712,0,0,1,.6.634,1.411,1.411,0,0,1-.285.71C636.828,305.851,633.144,310.379,630.81,310.379Zm-.526-6.366c.919,0,3.786-2.758,3.855-3.716,0-.139-.07-.247-.178-.247C633.568,300.049,632.053,300.9,630.284,304.012Z" transform="translate(-536.889 -281.407)"/><path class="c" d="M672.935,286.147a.725.725,0,0,1-.6-.533c0-.425,4.21-4.667,4.21-8.313,0-1.167-.564-1.63-1.382-1.63-7.5,0-17.3,13.512-17.3,23.455,0,3.361,1.7,4.565,3.817,4.565,6.683,0,14.185-8.243,15.351-9.7.139-.178.247-.285.317-.285.317,0,.457.425.457.888S669.6,305.67,662.454,305.67a8.318,8.318,0,0,1-8.1-8.383c0-11.6,11.813-23.208,19.7-23.208,3.468,0,4.921,2.124,4.921,4.743C678.984,282.716,673.893,286.147,672.935,286.147Z" transform="translate(-547.069 -272.526)"/><path class="c" d="M697.416,301.459a2.6,2.6,0,0,1-2.581-2.581c0-2.828,3.044-5.662,3.044-6.474a.161.161,0,0,0-.139-.178c-.463,0-5.2,4.28-7.324,7.888-1.376,2.333-1.592,3.113-1.978,3.113s-1.027-.742-1.027-1.947c0-5.555,8.135-16.41,8.135-23.309,0-.317.14-.533.387-.533a3.468,3.468,0,0,1,2.441,3.221c0,5.2-5.624,11.674-6.759,15.706,2.758-3.253,5.269-5.586,7.184-5.586a2.084,2.084,0,0,1,2.054,2.086c0,2.333-3.785,4.7-3.785,6.721,0,.355.178.495.387.495.919,0,3.747-3.323,4.883-4.844.139-.178.216-.285.317-.285a.712.712,0,0,1,.6.634,1.41,1.41,0,0,1-.285.71C701.981,297.813,699.147,301.459,697.416,301.459Z" transform="translate(-559.166 -273.756)"/><path class="c" d="M713.83,310.379a4,4,0,0,1-4.28-4.141c0-4.458,4.318-7.888,6.829-7.888a2.6,2.6,0,0,1,2.086,2.3c-.038,2.3-2.619,4.882-4.489,4.882a3.305,3.305,0,0,1-1.135-.387,6.151,6.151,0,0,0-.457,2.441c0,1.059.387,1.414.85,1.414,2.4,0,5.555-3.678,7.286-6.119.139-.178.209-.285.317-.285a.712.712,0,0,1,.6.634,1.41,1.41,0,0,1-.285.71C719.841,305.851,716.164,310.379,713.83,310.379Zm-.533-6.366c.919,0,3.786-2.758,3.855-3.716,0-.139-.07-.247-.177-.247C716.588,300.049,715.067,300.9,713.3,304.012Z" transform="translate(-567.267 -281.407)"/><path class="c" d="M728.029,301.543a14.252,14.252,0,0,1,1.275,5.764c0,5.624-3.145,10.539-4.99,10.539-2.3,0-3.893-2.156-3.893-5.624,0-10.4,9.055-26.422,9.055-33.036a.318.318,0,0,1,.355-.355c1.1,0,2.441,1.554,2.441,3.995,0,2.727-3.291,8.915-5.834,16.588a1.749,1.749,0,0,0,1.522.742c1.978,0,4.35-2.689,5.586-4.42.139-.178.216-.285.317-.285a.712.712,0,0,1,.6.634,1.411,1.411,0,0,1-.285.71C733.2,298.29,730.686,301.543,728.029,301.543Zm-2.124-.393a48.84,48.84,0,0,0-2.371,14.185c0,.533.139.989.6.989.742,0,2.441-3.995,2.441-9.9A18.779,18.779,0,0,0,725.9,301.15Z" transform="translate(-571.244 -274.265)"/></g></g></svg>