<svg xmlns="http://www.w3.org/2000/svg" width="90" height="67.939" viewBox="0 0 90 67.939"><defs><style>.a{fill:#383027;}</style></defs><g transform="translate(0 -62.752)"><g transform="translate(0 62.752)"><path class="a" d="M57.252,66.13c-3.31-4.72-11.844-4.462-19.024.574-4.628,3.246-7.665,7.9-7.978,12.114l-27.8,19.5a5.71,5.71,0,0,0-2.309,3.369,4.875,4.875,0,0,0,4.232,6.034,5.5,5.5,0,0,0,.649.039,5.763,5.763,0,0,0,3.3-1.062l27.8-19.5c4.067,1.139,9.48-.13,14.107-3.376a21.1,21.1,0,0,0,7.245-8.5C59.022,71.8,58.942,68.539,57.252,66.13ZM54.26,73.9a17.808,17.808,0,0,1-6.045,7.04c-3.987,2.8-8.7,3.87-11.726,2.672a1.758,1.758,0,0,0-1.656.2L6.306,103.819a2.2,2.2,0,0,1-1.518.411,1.459,1.459,0,0,1-1.033-.578,1.459,1.459,0,0,1-.192-1.168,2.2,2.2,0,0,1,.9-1.288L32.993,81.188a1.758,1.758,0,0,0,.748-1.49c-.1-3.254,2.519-7.319,6.506-10.115h0A17.808,17.808,0,0,1,48.923,66.3q.379-.025.742-.025c2.167,0,3.86.668,4.709,1.878C55.317,69.493,55.275,71.591,54.26,73.9Z" transform="translate(0 -62.752)"/></g><g transform="translate(9.364 94.762)"><path class="a" d="M132.15,277.266h-7.708a13.6,13.6,0,0,0,4.345-8.179l.441-3.119a2.9,2.9,0,0,0-1.569-3.007,8.784,8.784,0,0,0-14.984-9.108A11.465,11.465,0,0,0,108.3,252.4a7.3,7.3,0,0,0,0-.757,7.2,7.2,0,0,0-6.69-6.779,7.124,7.124,0,0,0-6.643,3.6,10.39,10.39,0,0,0-13.456,4.118,6.468,6.468,0,0,0-10.49,3.15,7.9,7.9,0,0,0-10.45,6.98,2.917,2.917,0,0,0-2.235,3.293l.508,3.265a13.606,13.606,0,0,0,4.317,7.993H55.03a1.758,1.758,0,1,0,0,3.516h77.12a1.758,1.758,0,1,0,0-3.515ZM64.14,262.439a4.431,4.431,0,0,1,4.041-3.6,4.382,4.382,0,0,1,2.435.555,2.468,2.468,0,0,0,3.69-2.047l0-.05A3,3,0,0,1,77,254.515a2.929,2.929,0,0,1,2.717,1.3,2.484,2.484,0,0,0,.378.441,15.986,15.986,0,0,0-.322,3.28,1.758,1.758,0,1,0,3.516,0,10.705,10.705,0,0,1,.629-3.865,2.464,2.464,0,0,0,.153-.323c.026-.067.053-.133.081-.2s.049-.087.05-.089l-.017.025,0,0a6.874,6.874,0,0,1,10.6-2.617,1.772,1.772,0,0,0,.192.134,4.993,4.993,0,0,1,1.588,2.275,1.758,1.758,0,1,0,3.437-.737,7.725,7.725,0,0,0-2.119-3.631,3.617,3.617,0,0,1,6.622,2.911,1.758,1.758,0,0,0,1.764,2.45c.253-.022.481-.033.694-.033a7.945,7.945,0,0,1,5.184,1.926,3.655,3.655,0,0,1,1.037,1.648,1.758,1.758,0,0,0,3.428-.779,6.579,6.579,0,0,0-1.219-2.5,5.269,5.269,0,1,1,8.178,6.51H64.109C64.118,262.573,64.128,262.506,64.14,262.439Zm51.183,14.828H72.282a10.031,10.031,0,0,1-9.963-8.533l-.4-2.577h63.732l-.345,2.439a9.95,9.95,0,0,1-.29,1.358H108.665a1.758,1.758,0,1,0,0,3.516H123.19A10.11,10.11,0,0,1,115.323,277.266Z" transform="translate(-53.272 -244.853)"/></g><g transform="translate(48.604 67.633)"><g transform="translate(0 0)"><path class="a" d="M279.985,91.931a1.7,1.7,0,0,0-.1-.33,1.776,1.776,0,0,0-.162-.3,1.646,1.646,0,0,0-.218-.267,1.681,1.681,0,0,0-.267-.218,1.784,1.784,0,0,0-.633-.262,1.724,1.724,0,0,0-.686,0,1.779,1.779,0,0,0-.633.262,1.757,1.757,0,0,0-.647.787,1.692,1.692,0,0,0-.1.33,1.689,1.689,0,0,0,0,.686,1.783,1.783,0,0,0,.262.633,1.683,1.683,0,0,0,.218.267,1.664,1.664,0,0,0,.267.218,1.731,1.731,0,0,0,.3.162,1.656,1.656,0,0,0,.329.1,1.689,1.689,0,0,0,.686,0,1.644,1.644,0,0,0,.329-.1,1.735,1.735,0,0,0,.3-.162,1.71,1.71,0,0,0,.485-.485,1.736,1.736,0,0,0,.162-.3,1.647,1.647,0,0,0,.1-.329,1.686,1.686,0,0,0,0-.686Z" transform="translate(-276.505 -90.517)"/></g></g><g transform="translate(36.488 69.076)"><g transform="translate(0 0)"><path class="a" d="M217.362,99.822a1.758,1.758,0,0,0-2.291-.966,17.706,17.706,0,0,0-7.179,5.7,1.758,1.758,0,1,0,2.888,2,14.1,14.1,0,0,1,5.616-4.445A1.758,1.758,0,0,0,217.362,99.822Z" transform="translate(-207.579 -98.726)"/></g></g><g transform="translate(55.969 119.864)"><path class="a" d="M321.884,389.066a1.784,1.784,0,0,0-.1-.329,1.75,1.75,0,0,0-.162-.3,1.683,1.683,0,0,0-.218-.267,1.745,1.745,0,0,0-.267-.218,1.885,1.885,0,0,0-.3-.162,1.764,1.764,0,0,0-.329-.1,1.738,1.738,0,0,0-.687,0,1.854,1.854,0,0,0-.329.1,1.819,1.819,0,0,0-.571.379,1.688,1.688,0,0,0-.218.267,1.741,1.741,0,0,0-.162.3,1.779,1.779,0,0,0-.1.329,1.733,1.733,0,0,0-.033.343,1.772,1.772,0,0,0,.033.345,1.861,1.861,0,0,0,.1.329,1.782,1.782,0,0,0,.162.3,1.764,1.764,0,0,0,.218.267,1.91,1.91,0,0,0,.269.22,1.8,1.8,0,0,0,.3.162,1.877,1.877,0,0,0,.329.1,1.761,1.761,0,0,0,.345.033,1.742,1.742,0,0,0,.343-.033,1.785,1.785,0,0,0,.329-.1,1.733,1.733,0,0,0,.571-.381,1.681,1.681,0,0,0,.218-.267,1.79,1.79,0,0,0,.162-.3,1.871,1.871,0,0,0,.1-.329,1.761,1.761,0,0,0,.035-.345A1.732,1.732,0,0,0,321.884,389.066Z" transform="translate(-318.404 -387.652)"/></g></g></svg>