<svg xmlns="http://www.w3.org/2000/svg" width="90" height="89.987" viewBox="0 0 90 89.987"><defs><style>.a{fill:#383027;}</style></defs><g transform="translate(-1.991 -2)"><g transform="translate(1.991 2)"><path class="a" d="M29.61,35.268a1.5,1.5,0,0,0,0,2.121,7.509,7.509,0,0,0,10.606,0A1.5,1.5,0,1,0,38.1,35.268a4.508,4.508,0,0,1-6.365,0A1.5,1.5,0,0,0,29.61,35.268Z" transform="translate(11.593 14.407)"/><path class="a" d="M29.5,31.206a.75.75,0,0,1,1.059,0,1.5,1.5,0,0,0,2.122-2.121,3.842,3.842,0,0,0-5.3,0A1.5,1.5,0,0,0,29.5,31.206Z" transform="translate(10.478 11.006)"/><path class="a" d="M37.5,31.206a.75.75,0,0,1,1.059,0,1.5,1.5,0,1,0,2.122-2.121,3.842,3.842,0,0,0-5.3,0A1.5,1.5,0,0,0,37.5,31.206Z" transform="translate(14.476 11.006)"/><ellipse class="a" cx="1" cy="1.5" rx="1" ry="1.5" transform="translate(44 78)"/><ellipse class="a" cx="1" cy="2" rx="1" ry="2" transform="translate(44 82)"/><path class="a" d="M56.494,61.991H49V58.963a14.969,14.969,0,0,0,6-11.97,6,6,0,1,0,0-12V30.551l.942-13.19A7.488,7.488,0,0,0,51.995,3.5a7.389,7.389,0,0,0-4.967,1.9,8.975,8.975,0,0,0-14.062,0A7.389,7.389,0,0,0,28,3.5a7.488,7.488,0,0,0-3.941,13.861l.517,7.242a1.5,1.5,0,1,0,3-.213L27,16.327a1.5,1.5,0,0,0-.867-1.254,4.486,4.486,0,1,1,5.724-6.345,1.516,1.516,0,0,0,1.379.736,1.5,1.5,0,0,0,1.285-.889,5.983,5.983,0,0,1,10.948,0,1.5,1.5,0,0,0,2.664.15,4.488,4.488,0,1,1,5.738,6.349A1.5,1.5,0,0,0,53,16.327L52.1,29H46.2l1.288-10.312a1.5,1.5,0,0,0-2.976-.372L43.172,29h-6.35L35.485,18.311a1.5,1.5,0,0,0-2.976.372L33.8,29H26.5A1.5,1.5,0,0,0,25,30.5v4.5a6,6,0,1,0,0,12,14.969,14.969,0,0,0,6,11.97v3.028H25a1.5,1.5,0,0,0,0,3h6.524A9.015,9.015,0,0,0,38.5,70.854v2.119L31.94,75.595A1.5,1.5,0,0,0,31,76.988v13.5a1.5,1.5,0,1,0,3,0V78l6.557-2.622a1.5,1.5,0,0,0,.942-1.393V70.854A9.015,9.015,0,0,0,48.47,64.99h8.024a7.508,7.508,0,0,1,7.5,7.5v18a1.5,1.5,0,1,0,3,0v-18a10.51,10.51,0,0,0-10.5-10.5Zm1.5-21a3,3,0,0,1-3,3v-6A3,3,0,0,1,57.994,40.994ZM28,32h24v3H28Zm-6,9a3,3,0,0,1,3-3v6A3,3,0,0,1,22,40.994Zm6,6v-9h24v9a12,12,0,0,1-24,0Zm12,21a6,6,0,0,1-6-6V60.729a14.9,14.9,0,0,0,12,0v1.261A6,6,0,0,1,40,67.99Z" transform="translate(6.51 -2)"/><path class="a" d="M65.5,58V47.5a1.5,1.5,0,1,0-3,0V58h-3V53.5A1.5,1.5,0,0,0,58,52H55V40a9.014,9.014,0,0,1,7.5-8.874V41.5a1.5,1.5,0,1,0,3,0v-12A1.5,1.5,0,0,0,64,28,12.012,12.012,0,0,0,52,40V53.5A1.5,1.5,0,0,0,53.5,55h3v3A1.5,1.5,0,0,0,55,59.5v13.5a6,6,0,1,0,12,0V59.5A1.5,1.5,0,0,0,65.5,58Zm-7.5,3h6v6H58Zm3,15a3,3,0,0,1-3-3v-3h6v3A3,3,0,0,1,61,75.992Z" transform="translate(23.002 10.994)"/><path class="a" d="M17.017,52.031a1.5,1.5,0,1,0,2.967.439,9.658,9.658,0,0,1,.52-1.993,7.5,7.5,0,0,0-1.138-7.325,7.622,7.622,0,0,0-8.8-2.226,8.09,8.09,0,0,0-.814.408A7.511,7.511,0,0,0,7,51.58l7.5,12.988a4.474,4.474,0,0,0,2.733,2.1,4.529,4.529,0,0,0,1.179.15,4.433,4.433,0,0,0,2.235-.6,4.691,4.691,0,0,0,.442-.291,4.537,4.537,0,0,0,1.581-5.03,4.634,4.634,0,0,0-.807-1.446,8.411,8.411,0,0,1-1.273-2.089,1.5,1.5,0,1,0-2.76,1.177,11.4,11.4,0,0,0,1.726,2.829,1.672,1.672,0,0,1,.279.511,1.557,1.557,0,0,1-.526,1.633,1.585,1.585,0,0,1-.162.106,1.47,1.47,0,0,1-1.137.15,1.5,1.5,0,0,1-.916-.7L9.6,50.082a4.5,4.5,0,0,1,1.65-6.149,4.968,4.968,0,0,1,.505-.253A4.6,4.6,0,0,1,17,45a4.517,4.517,0,0,1,.694,4.42,12.6,12.6,0,0,0-.679,2.61Z" transform="translate(0.015 17.168)"/><path class="a" d="M10.75,44.54a1.5,1.5,0,1,0,2.049.549,1.5,1.5,0,0,0-2.049-.549Z" transform="translate(2.012 19.159)"/><path class="a" d="M6.5,41.582a9,9,0,0,0,12.3-3.3h0a15.034,15.034,0,0,0,1.7-7.811,12.148,12.148,0,0,0-.556-3.163L21.678,24.3a5.249,5.249,0,1,0,.537-9.927A5.249,5.249,0,1,0,13.879,19.8l-1.738,3.012a12.118,12.118,0,0,0-3.016,1.1,15.028,15.028,0,0,0-5.917,5.378A9,9,0,0,0,6.5,41.582Zm8.678-27.027a2.251,2.251,0,0,1,3.9,2.25,2.377,2.377,0,0,1-.267.367,1.5,1.5,0,0,0,.375,2.295l.132.076a1.5,1.5,0,0,0,2.17-.825,2.25,2.25,0,0,1,1.552-1.461,2.227,2.227,0,0,1,1.707.225,2.25,2.25,0,1,1-2.62,3.629,1.5,1.5,0,0,0-2.29.375l-1.65,2.85A5.627,5.627,0,0,0,17,23.391a5.684,5.684,0,0,0-1.408-.561l1.65-2.85a1.5,1.5,0,0,0-.819-2.17A2.3,2.3,0,0,1,16,17.623a2.25,2.25,0,0,1-.825-3.076ZM5.806,30.784a12.054,12.054,0,0,1,4.69-4.208,7.706,7.706,0,0,1,3.4-.969,3.172,3.172,0,0,1,1.6.378c2.509,1.449,2.55,7.574.7,10.8a6,6,0,1,1-10.39-6Z" transform="translate(-1.987 2.211)"/><path class="a" d="M28.485,57.629a2.985,2.985,0,0,1-.366-3.009,13.5,13.5,0,1,0-24.3,1.974l2.929,5.074a1.5,1.5,0,1,0,2.6-1.5L6.413,55.095a10.5,10.5,0,1,1,18.9-1.537,6.019,6.019,0,0,0,.864,5.99,7.583,7.583,0,0,1,1.336,2.388,7.5,7.5,0,0,1-13.6,6.149l-1.566-2.719a1.5,1.5,0,1,0-2.6,1.5l1.569,2.719A10.5,10.5,0,1,0,28.485,57.631Z" transform="translate(-1.991 15.153)"/></g></g></svg>