<svg xmlns="http://www.w3.org/2000/svg" width="20" height="20" viewBox="0 0 20 20"><defs><style>.a{fill:#383027;}</style></defs><g transform="translate(-65.179 -65.18)"><g transform="translate(65.179 65.18)"><g transform="translate(0 0)"><path class="a" d="M67.446,69.675a.524.524,0,0,0-.723.162,10,10,0,1,0,3.13-3.124.524.524,0,1,0,.558.886,8.956,8.956,0,1,1-1.563,13.915A9.013,9.013,0,0,1,67.608,70.4.524.524,0,0,0,67.446,69.675Z" transform="translate(-65.179 -65.18)"/><path class="a" d="M376.693,247.377h.646a.524.524,0,1,0,0-1.047h-.646a.524.524,0,1,0,0,1.047Z" transform="translate(-359.882 -236.843)"/><path class="a" d="M103.835,246.53a.524.524,0,0,0,.524.524H105a.524.524,0,1,0,0-1.047h-.646A.524.524,0,0,0,103.835,246.53Z" transform="translate(-101.811 -236.536)"/><path class="a" d="M247.377,105v-.646a.524.524,0,0,0-1.047,0V105a.524.524,0,0,0,1.047,0Z" transform="translate(-236.843 -101.811)"/><path class="a" d="M246.006,376.693v.646a.524.524,0,1,0,1.047,0v-.646a.524.524,0,1,0-1.047,0Z" transform="translate(-236.536 -359.883)"/><path class="a" d="M189.866,156.441a.524.524,0,0,0-.741.741l1.775,1.775a1.8,1.8,0,1,0,3.182,0l3.581-3.581a.524.524,0,0,0-.741-.741l-3.581,3.581a1.8,1.8,0,0,0-1.7,0Zm3.382,3.366a.757.757,0,1,1-.757-.757A.758.758,0,0,1,193.248,159.806Z" transform="translate(-182.489 -149.804)"/><path class="a" d="M119.072,119.072a.523.523,0,1,0-.37.153A.526.526,0,0,0,119.072,119.072Z" transform="translate(-115.402 -115.402)"/></g></g></g></svg>