<?xml version="1.0" standalone="no"?>
<!DOCTYPE svg PUBLIC "-//W3C//DTD SVG 20010904//EN"
 "http://www.w3.org/TR/2001/REC-SVG-20010904/DTD/svg10.dtd">
<svg version="1.0" xmlns="http://www.w3.org/2000/svg"
 width="512.000000pt" height="512.000000pt" viewBox="0 0 512.000000 512.000000"
 preserveAspectRatio="xMidYMid meet">
<metadata>
Created by potrace 1.14, written by Peter Selinger 2001-2017
</metadata>
<g transform="translate(0.000000,512.000000) scale(0.100000,-0.100000)"
fill="#000000" stroke="none">
<path d="M4170 4650 c0 -11 4 -28 9 -38 5 -9 25 -60 45 -112 55 -145 139 -265
318 -455 44 -46 60 -74 131 -225 14 -30 33 -98 42 -150 9 -52 25 -135 37 -185
17 -75 20 -128 21 -325 1 -129 -2 -255 -6 -279 -4 -23 -9 -57 -12 -75 -40
-232 -132 -463 -262 -657 -93 -140 -182 -236 -318 -345 -33 -26 -62 -50 -65
-54 -3 -3 -41 -36 -85 -73 -44 -37 -103 -90 -131 -117 -52 -49 -183 -140 -203
-140 -6 0 -11 -4 -11 -9 0 -5 -24 -21 -52 -36 -29 -15 -67 -38 -85 -51 -17
-13 -35 -24 -38 -24 -14 0 -202 -128 -275 -188 -41 -33 -108 -92 -147 -131
-58 -56 -93 -80 -173 -118 -75 -36 -102 -54 -107 -70 -3 -13 -9 -23 -14 -23
-5 0 -16 -11 -25 -25 -15 -24 -15 -28 20 -95 20 -38 36 -72 36 -75 -1 -19 2
-24 18 -30 9 -3 32 -8 51 -11 19 -2 42 -11 50 -18 28 -26 120 -56 181 -60 120
-8 226 34 291 116 73 92 111 192 111 292 0 53 -6 66 -32 66 -18 0 -36 -20
-122 -140 -18 -25 -49 -61 -69 -81 -36 -34 -41 -36 -113 -38 -92 -2 -94 4 -33
83 72 93 317 271 504 366 95 47 233 104 233 96 0 -2 30 4 68 13 45 12 96 17
157 15 162 -6 181 -4 291 32 132 43 190 73 250 132 103 103 135 231 101 417
-11 64 -14 70 -37 70 -22 0 -28 -8 -47 -65 -11 -36 -23 -81 -26 -100 -11 -87
-74 -173 -157 -215 -77 -39 -264 -68 -298 -46 -29 18 24 82 168 201 221 183
437 490 509 722 11 37 27 80 34 95 16 31 53 200 62 278 12 119 16 151 30 275
2 19 7 62 11 95 3 33 7 67 9 75 1 8 6 44 9 80 15 143 18 167 27 210 5 25 24
87 40 138 28 85 31 102 26 185 -6 117 -4 109 -84 311 -74 186 -200 444 -226
460 -12 8 -21 6 -33 -6 -16 -16 -16 -21 0 -75 48 -166 60 -203 88 -258 91
-181 116 -301 95 -447 -5 -32 -24 -58 -42 -58 -12 0 -75 125 -82 162 -3 21
-60 127 -126 236 -28 45 -67 118 -87 161 -54 116 -162 301 -182 312 -16 8 -18
5 -18 -26 0 -20 7 -49 15 -65 8 -16 33 -79 54 -140 35 -98 37 -111 23 -119
-13 -7 -33 7 -93 67 -58 59 -85 96 -114 157 -62 130 -135 214 -135 155z"/>
<path d="M871 4576 c-28 -46 -51 -87 -51 -91 0 -13 -62 -96 -116 -155 -52 -56
-85 -73 -98 -51 -7 11 55 184 96 269 22 45 28 66 20 74 -6 6 -17 8 -25 5 -26
-10 -172 -265 -216 -378 -17 -42 -43 -89 -58 -106 -40 -43 -111 -172 -151
-272 -37 -92 -65 -132 -82 -115 -24 24 -42 204 -23 239 6 11 14 35 18 53 4 19
26 77 50 130 44 100 81 206 114 327 17 58 18 72 7 84 -29 29 -55 3 -112 -117
-96 -197 -204 -462 -228 -555 -22 -85 -10 -189 38 -325 15 -43 34 -157 42
-252 5 -63 10 -108 23 -200 5 -36 12 -96 15 -135 7 -73 15 -142 21 -185 2 -14
7 -47 11 -75 10 -79 69 -303 99 -380 16 -38 47 -101 70 -140 23 -38 54 -95 69
-125 42 -81 70 -123 132 -196 64 -75 209 -217 299 -291 71 -59 90 -81 99 -109
11 -37 -16 -48 -97 -41 -88 8 -162 31 -230 71 -59 36 -106 112 -126 204 -7 31
-20 76 -28 100 -23 66 -66 77 -77 19 -2 -14 -7 -31 -10 -35 -3 -5 -7 -48 -10
-95 -7 -138 25 -226 116 -319 57 -58 106 -85 238 -130 122 -41 129 -42 297
-34 220 10 481 -101 808 -342 96 -71 137 -109 171 -157 28 -42 35 -63 22 -71
-23 -14 -102 -3 -150 22 -47 24 -64 43 -183 211 -17 25 -49 30 -62 11 -12 -20
-4 -129 13 -183 57 -175 177 -274 339 -281 63 -2 82 2 180 41 61 24 117 46
127 48 22 6 63 73 83 135 l17 51 -31 44 c-21 31 -49 54 -90 76 -33 17 -65 31
-70 31 -18 0 -75 43 -126 96 -107 108 -266 224 -510 372 -165 100 -245 155
-300 208 -22 22 -52 45 -67 53 -16 8 -28 17 -28 21 0 4 -63 60 -141 125 -282
237 -359 332 -492 605 -92 191 -136 340 -153 530 -13 133 -12 491 1 545 7 28
20 95 30 150 41 232 104 366 241 516 52 57 102 117 110 133 9 16 27 41 41 55
37 39 101 158 123 231 12 36 29 79 40 97 20 33 17 43 -11 43 -11 0 -35 -29
-68 -84z"/>
<path d="M2457 4544 c-1 -1 -36 -4 -77 -8 -63 -5 -126 -17 -277 -51 -48 -11
-185 -66 -264 -106 -530 -265 -864 -799 -867 -1383 0 -133 6 -216 23 -305 3
-14 8 -42 11 -61 26 -155 153 -430 273 -591 409 -547 1116 -768 1761 -552 531
178 924 625 1041 1185 24 114 35 379 19 478 -4 30 -11 75 -14 100 -27 180
-123 421 -239 595 -97 145 -259 312 -403 414 -204 145 -480 249 -732 277 -55
6 -250 13 -255 8z m283 -49 c14 -3 39 -7 55 -9 127 -18 345 -92 463 -158 85
-48 103 -59 153 -94 251 -176 427 -398 552 -694 16 -37 65 -194 73 -232 7 -36
24 -149 29 -193 6 -50 6 -238 0 -285 -10 -82 -15 -116 -19 -135 -98 -483 -395
-876 -823 -1089 -232 -115 -460 -166 -725 -160 -69 1 -134 5 -145 8 -10 3 -40
8 -68 11 -27 4 -70 12 -95 19 -25 8 -49 14 -55 15 -72 11 -233 77 -348 143
-272 155 -479 374 -617 653 -118 239 -158 414 -158 692 0 95 3 187 8 205 5 18
11 51 15 73 15 102 72 269 132 390 230 458 660 767 1168 839 87 12 354 13 405
1z"/>
<path d="M2420 4459 c-100 -9 -171 -21 -260 -45 -30 -8 -62 -16 -70 -18 -8 -2
-46 -16 -83 -30 -351 -133 -665 -426 -820 -767 -40 -86 -90 -238 -106 -319 -6
-30 -13 -68 -17 -85 -10 -51 -12 -337 -3 -410 63 -477 358 -902 781 -1125 142
-75 332 -140 453 -155 28 -3 75 -9 105 -13 90 -12 296 -4 380 13 8 2 33 6 55
10 71 12 202 54 292 93 413 179 722 531 846 968 41 142 51 225 52 394 0 160
-9 239 -39 360 -45 177 -104 312 -201 460 -231 351 -575 576 -1002 655 -94 17
-252 23 -363 14z m385 -117 c456 -91 827 -390 1013 -814 37 -84 81 -228 97
-313 28 -156 23 -374 -10 -525 -3 -14 -8 -36 -11 -50 -3 -14 -19 -65 -35 -114
-148 -443 -523 -789 -982 -906 -113 -28 -182 -35 -357 -34 -239 1 -388 36
-605 144 -415 205 -704 615 -760 1076 -15 121 -12 253 10 409 13 90 69 257
124 370 178 363 507 633 901 738 46 13 100 23 220 41 61 9 308 -4 395 -22z"/>
<path d="M2418 4218 c-22 -40 -16 -137 11 -184 25 -45 66 -74 80 -58 16 17 30
79 26 114 -5 49 -19 81 -50 118 -32 38 -50 40 -67 10z"/>
<path d="M2785 4178 c-39 -31 -64 -92 -60 -150 3 -59 14 -74 44 -59 57 31 91
118 77 195 -8 41 -22 45 -61 14z"/>
<path d="M3095 4099 c-58 -17 -116 -90 -117 -150 -1 -40 6 -44 51 -31 68 21
128 103 119 164 -4 26 -13 29 -53 17z"/>
<path d="M2617 4080 c-14 -11 -38 -45 -53 -75 -22 -46 -26 -64 -21 -113 5 -63
24 -112 42 -112 19 0 72 58 91 99 22 45 21 133 0 184 -19 43 -24 44 -59 17z"/>
<path d="M2128 4078 c-10 -28 2 -119 21 -156 11 -21 35 -53 55 -69 36 -32 99
-59 115 -49 14 9 6 105 -12 148 -18 43 -76 104 -109 117 -54 20 -66 21 -70 9z"/>
<path d="M2894 4045 c-84 -35 -142 -123 -145 -220 -3 -72 8 -84 60 -61 83 38
141 134 137 228 -2 60 -12 70 -52 53z"/>
<path d="M2370 3981 c-16 -31 -11 -112 9 -157 19 -41 94 -114 117 -114 39 0
43 117 7 188 -18 34 -93 102 -113 102 -5 0 -14 -9 -20 -19z"/>
<path d="M1883 3937 c-23 -36 2 -134 46 -188 32 -38 105 -79 142 -79 20 0 21
4 16 58 -6 70 -24 109 -73 156 -41 40 -119 72 -131 53z"/>
<path d="M3035 3881 c-49 -23 -99 -74 -119 -123 -17 -40 -22 -123 -8 -132 20
-12 90 22 132 64 49 48 70 99 70 169 0 48 -12 51 -75 22z"/>
<path d="M3245 3846 c-53 -24 -105 -101 -105 -155 0 -67 148 15 166 92 18 74
1 91 -61 63z"/>
<path d="M2123 3800 c9 -85 50 -139 130 -169 37 -14 49 10 36 69 -17 75 -75
131 -150 145 -19 4 -20 0 -16 -45z"/>
<path d="M2632 3753 c-62 -65 -74 -175 -26 -247 19 -30 38 -22 71 29 44 66 49
154 14 223 l-19 37 -40 -42z"/>
<path d="M1623 3754 c-13 -35 38 -112 100 -151 52 -32 173 -46 183 -20 13 35
-56 128 -123 164 -39 21 -152 26 -160 7z"/>
<path d="M2355 3710 c-11 -17 -8 -75 4 -113 21 -63 131 -143 159 -115 15 15
14 73 -1 116 -14 37 -61 90 -91 102 -50 18 -65 20 -71 10z"/>
<path d="M2792 3690 c-52 -48 -72 -137 -46 -199 17 -41 37 -38 75 9 33 41 44
116 26 169 -15 43 -27 47 -55 21z"/>
<path d="M1944 3639 c-12 -20 7 -94 34 -134 34 -49 104 -93 160 -101 44 -6 46
-4 43 41 -6 77 -85 174 -153 190 -58 13 -78 14 -84 4z"/>
<path d="M3269 3625 c-56 -18 -113 -73 -135 -132 -9 -24 -14 -46 -11 -49 3 -3
30 -5 61 -5 98 0 209 84 218 166 3 28 1 29 -42 32 -25 1 -66 -4 -91 -12z"/>
<path d="M3018 3616 c-49 -13 -68 -25 -106 -66 -26 -27 -67 -109 -59 -117 10
-10 89 -10 127 -1 73 19 175 136 157 181 -7 18 -58 19 -119 3z"/>
<path d="M2177 3596 c-9 -24 34 -97 73 -122 23 -15 59 -28 90 -31 l52 -5 -5
29 c-6 38 -19 62 -49 90 -48 45 -149 70 -161 39z"/>
<path d="M1771 3519 c-24 -5 -55 -16 -68 -24 l-24 -16 24 -32 c50 -65 159 -97
246 -71 68 20 76 33 42 72 -50 57 -139 85 -220 71z"/>
<path d="M3353 3474 c-41 -21 -42 -35 -1 -58 41 -25 115 -25 151 -2 35 23 34
32 -5 56 -40 24 -101 25 -145 4z"/>
<path d="M2633 3428 c-6 -7 -14 -47 -18 -88 -3 -41 -8 -86 -10 -100 -2 -14 -6
-59 -10 -100 -3 -41 -8 -95 -10 -120 -2 -25 -7 -94 -10 -155 -4 -67 -11 -112
-18 -117 -17 -11 -19 -5 -23 74 -7 139 -16 263 -29 383 -12 112 -18 160 -20
174 -2 9 -4 24 -4 34 -1 12 -7 17 -18 15 -16 -3 -18 -21 -19 -198 -2 -350 -20
-542 -44 -475 -4 11 -10 63 -14 115 -3 52 -8 104 -10 115 -2 11 -7 54 -10 95
-4 41 -9 82 -11 90 -2 8 -7 33 -9 55 -18 140 -27 185 -34 185 -26 -1 -28 -35
-28 -515 1 -478 2 -502 20 -530 26 -40 34 -47 82 -74 23 -13 47 -35 54 -50 43
-94 45 -349 4 -474 -9 -27 -14 -51 -11 -54 6 -5 228 -5 234 1 2 1 -6 36 -16
77 -15 60 -19 105 -17 234 2 181 16 234 64 254 40 17 87 61 107 101 16 31 18
65 17 300 -2 431 -1 642 1 685 2 34 -1 40 -18 40 -18 0 -22 -12 -37 -115 -9
-63 -19 -142 -23 -175 -3 -33 -8 -73 -10 -90 -6 -39 -14 -117 -21 -180 -2 -27
-6 -59 -8 -70 -3 -11 -5 -24 -5 -28 -1 -5 -5 -6 -10 -3 -13 9 -23 175 -26 439
-3 229 -9 274 -32 245z"/>
<path d="M3205 3403 c-31 -6 -75 -25 -75 -32 0 -11 33 -55 53 -71 55 -42 102
-59 162 -56 33 1 73 8 88 14 27 11 27 12 12 41 -38 74 -147 121 -240 104z"/>
<path d="M2912 3359 l-23 -9 20 -39 c23 -43 71 -88 117 -107 56 -24 174 -19
174 7 0 20 -34 75 -59 97 -58 50 -167 75 -229 51z"/>
<path d="M1663 3350 c-54 -13 -112 -57 -113 -87 0 -19 90 -48 146 -46 30 1 64
9 80 19 44 27 84 66 78 76 -20 33 -126 54 -191 38z"/>
<path d="M2015 3347 c-53 -9 -118 -47 -143 -85 -14 -21 -13 -23 34 -44 63 -28
136 -28 190 0 58 30 104 70 98 87 -12 31 -110 54 -179 42z"/>
<path d="M2922 3179 c-47 -14 -50 -34 -12 -74 49 -51 117 -70 193 -53 69 14
75 29 32 73 -20 20 -49 41 -63 46 -40 16 -112 19 -150 8z"/>
<path d="M1734 3155 c-51 -31 -79 -68 -61 -83 7 -6 31 -13 54 -16 75 -9 186
70 153 109 -20 24 -98 19 -146 -10z"/>
<path d="M2015 3156 c-28 -12 -65 -40 -84 -61 l-34 -39 23 -18 c12 -10 30 -19
39 -19 96 -8 149 3 202 44 19 14 42 40 52 57 l18 30 -35 15 c-52 22 -123 19
-181 -9z"/>
<path d="M3201 3165 c-32 -14 -33 -16 -19 -38 37 -55 141 -84 203 -55 32 14
32 28 -2 60 -48 43 -125 58 -182 33z"/>
<path d="M2210 3013 c-24 -9 -70 -55 -87 -87 -14 -27 -20 -112 -9 -123 10 -10
86 39 108 69 17 24 23 46 23 87 0 54 -7 64 -35 54z"/>
<path d="M2881 2948 c1 -71 17 -110 62 -157 41 -43 85 -60 99 -39 20 32 -9
158 -46 193 -28 27 -76 55 -95 55 -19 0 -21 -6 -20 -52z"/>
<path d="M3024 2987 c-14 -37 40 -106 107 -137 52 -23 137 -27 145 -6 13 34
-59 121 -118 143 -46 16 -127 16 -134 0z"/>
<path d="M1994 2960 c-23 -9 -84 -75 -85 -93 0 -7 -3 -25 -5 -40 -9 -55 34
-68 100 -29 44 26 68 65 74 121 l5 51 -34 -1 c-19 0 -43 -4 -55 -9z"/>
</g>
</svg>
